<svg width="48" height="48" viewBox="0 0 48 48" fill="none" xmlns="http://www.w3.org/2000/svg">
<path d="M0 24C0 10.7452 10.7452 0 24 0C37.2548 0 48 10.7452 48 24C48 37.2548 37.2548 48 24 48C10.7452 48 0 37.2548 0 24Z" fill="#424242"/>
<g clip-path="url(#clip0_2285_5948)">
<path d="M33.9593 23.8999C33.9593 21.2699 32.9393 18.8799 31.2693 17.0999C30.8593 16.6699 30.1593 16.6899 29.7793 17.1399C29.4493 17.5199 29.4593 18.0899 29.7993 18.4599C31.1393 19.8799 31.9593 21.7899 31.9593 23.8999C31.9593 27.7899 29.1593 31.0299 25.4593 31.7199L25.8693 31.4699C26.3393 31.1799 26.4893 30.5599 26.1993 30.0899C25.9093 29.6199 25.2993 29.4699 24.8193 29.7599L21.8693 31.5699L21.4993 31.7999C21.2193 31.9699 21.0393 32.2799 21.0193 32.6099C20.9993 32.9399 21.1593 33.2599 21.4193 33.4599L21.5493 33.5599L24.7293 35.9199C24.9093 36.0499 25.1193 36.1199 25.3193 36.1199C25.6293 36.1199 25.9293 35.9799 26.1193 35.7199C26.4493 35.2799 26.3593 34.6499 25.9093 34.3199L25.1993 33.7899C30.1093 33.1799 33.9193 28.9999 33.9193 23.9199L33.9593 23.8999Z" fill="white"/>
<path d="M21.9391 16.2199L21.4391 16.5899C20.9991 16.9199 20.8991 17.5499 21.2291 17.9899C21.4291 18.2499 21.7291 18.3899 22.0291 18.3899C22.2391 18.3899 22.4491 18.3299 22.6191 18.1899L25.4791 16.0699L25.9391 15.7299C26.2091 15.5299 26.3591 15.2099 26.3391 14.8799C26.3291 14.5699 26.1691 14.2999 25.9291 14.1199C25.9091 14.0999 25.8891 14.0899 25.8691 14.0699L22.5591 12.0499C22.0891 11.7599 21.4691 11.9099 21.1791 12.3799C20.8891 12.8499 21.0391 13.4699 21.5091 13.7599L22.1091 14.1299C17.5191 15.0099 14.0391 19.0399 14.0391 23.8999C14.0391 26.5299 15.0591 28.9199 16.7291 30.6999C17.1391 31.1299 17.8391 31.1099 18.2191 30.6599C18.5491 30.2799 18.5391 29.7099 18.1991 29.3399C16.8591 27.9199 16.0391 26.0099 16.0391 23.8999C16.0391 20.2299 18.5491 17.1299 21.9391 16.2199Z" fill="white"/>
</g>
<defs>
<clipPath id="clip0_2285_5948">
<rect width="24" height="24" fill="white" transform="translate(12 12)"/>
</clipPath>
</defs>
</svg>
