<svg width="48" height="48" viewBox="0 0 48 48" fill="none" xmlns="http://www.w3.org/2000/svg">
<path d="M0 24C0 10.7452 10.7452 0 24 0C37.2548 0 48 10.7452 48 24C48 37.2548 37.2548 48 24 48C10.7452 48 0 37.2548 0 24Z" fill="#424242"/>
<path d="M19.5 24.0003C19.5 24.167 19.5104 24.3337 19.5312 24.5003C19.5521 24.667 19.5764 24.8267 19.6042 24.9795C19.6458 25.1739 19.6285 25.3684 19.5521 25.5628C19.4757 25.7573 19.3403 25.8892 19.1458 25.9587C18.9514 26.0281 18.7604 26.0177 18.5729 25.9274C18.3854 25.8371 18.2639 25.6948 18.2083 25.5003C18.1389 25.2642 18.0868 25.0212 18.0521 24.7712C18.0174 24.5212 18 24.2642 18 24.0003C18 22.3198 18.5903 20.8892 19.7708 19.7087C20.9514 18.5281 22.4028 17.9587 24.125 18.0003L23.4583 17.3337C23.3056 17.1809 23.2292 17.0038 23.2292 16.8024C23.2292 16.601 23.3056 16.4239 23.4583 16.2712C23.6111 16.1184 23.7882 16.042 23.9896 16.042C24.191 16.042 24.3681 16.1184 24.5208 16.2712L26.4792 18.2295C26.6319 18.3823 26.7083 18.5559 26.7083 18.7503C26.7083 18.9448 26.6319 19.1184 26.4792 19.2712L24.5208 21.2295C24.3681 21.3823 24.1944 21.4552 24 21.4482C23.8056 21.4413 23.6319 21.3614 23.4792 21.2087C23.3264 21.0559 23.25 20.8788 23.25 20.6774C23.25 20.476 23.3264 20.2989 23.4792 20.1462L24.125 19.5003C22.8194 19.4725 21.7222 19.9031 20.8333 20.792C19.9444 21.6809 19.5 22.7503 19.5 24.0003ZM28.5 24.0003C28.5 23.8337 28.4896 23.667 28.4688 23.5003C28.4479 23.3337 28.4236 23.1739 28.3958 23.0212C28.3542 22.8128 28.3715 22.6149 28.4479 22.4274C28.5243 22.2399 28.6597 22.1045 28.8542 22.0212C29.0486 21.9378 29.2361 21.9378 29.4167 22.0212C29.5972 22.1045 29.7153 22.2434 29.7708 22.4378C29.8403 22.6878 29.8958 22.9413 29.9375 23.1982C29.9792 23.4552 30 23.7225 30 24.0003C30 25.667 29.4097 27.0941 28.2292 28.2816C27.0486 29.4691 25.5972 30.042 23.875 30.0003L24.5417 30.667C24.6944 30.8198 24.7708 30.9969 24.7708 31.1982C24.7708 31.3996 24.6944 31.5767 24.5417 31.7295C24.3889 31.8823 24.2118 31.9587 24.0104 31.9587C23.809 31.9587 23.6319 31.8823 23.4792 31.7295L21.5208 29.7712C21.3681 29.6184 21.2917 29.4448 21.2917 29.2503C21.2917 29.0559 21.3681 28.8823 21.5208 28.7295L23.4792 26.7712C23.6319 26.6184 23.809 26.542 24.0104 26.542C24.2118 26.542 24.3889 26.6184 24.5417 26.7712C24.6944 26.9239 24.7708 27.101 24.7708 27.3024C24.7708 27.5038 24.6944 27.6809 24.5417 27.8337L23.875 28.5003C25.1806 28.5281 26.2778 28.0975 27.1667 27.2087C28.0556 26.3198 28.5 25.2503 28.5 24.0003Z" fill="#FAFAFA"/>
</svg>
