<svg width="600" height="600" viewBox="0 0 600 600" fill="none" xmlns="http://www.w3.org/2000/svg">
<rect width="600" height="600" fill="white"/>
<path d="M226.296 411.483C225.953 411.197 225.591 410.949 225.247 410.663C225.591 410.949 225.953 411.216 226.296 411.483Z" fill="#263238"/>
<path d="M191.928 278.493C192.195 277.807 192.443 277.12 192.71 276.434C192.424 277.101 192.195 277.807 191.928 278.493Z" fill="#263238"/>
<path d="M210.467 395.901C209.437 394.661 208.502 393.364 207.51 392.106C208.483 393.383 209.437 394.68 210.467 395.901Z" fill="#263238"/>
<path d="M218.915 404.884C217.771 403.759 216.646 402.633 215.54 401.47C216.646 402.633 217.771 403.778 218.915 404.884Z" fill="#263238"/>
<path d="M298.141 437.249C298.446 437.249 298.751 437.287 299.056 437.287C308.02 437.287 316.717 436.162 325.089 434.236C320.131 435.342 315.096 436.2 310.042 436.696C306.094 437.078 302.108 437.23 298.141 437.249Z" fill="#263238"/>
<path d="M337.448 430.631C334.282 431.699 331.116 432.729 327.874 433.53C331.135 432.691 334.32 431.737 337.448 430.631Z" fill="#263238"/>
<path d="M184.643 340.439C184.986 342.595 185.368 344.731 185.844 346.848C189.506 363.345 197.192 378.736 207.529 392.087C196.201 377.382 188.381 359.893 185.196 340.783C185.024 340.649 184.815 340.554 184.643 340.42V340.439Z" fill="#263238"/>
<path d="M215.54 401.47C213.804 399.658 212.088 397.827 210.486 395.901C212.107 397.827 213.804 399.639 215.54 401.47Z" fill="#263238"/>
<path d="M259.386 430.707C271.802 435.227 284.962 437.268 298.141 437.249C270.925 437.039 245.96 427.427 226.296 411.483C236.214 419.627 247.314 426.321 259.367 430.707H259.386Z" fill="#263238"/>
<path d="M225.247 410.644C223.054 408.813 220.956 406.867 218.915 404.884C220.975 406.886 223.073 408.813 225.247 410.644Z" fill="#263238"/>
<path d="M414.728 311.831C413.469 296.955 409.331 282.651 403.151 269.129C393.577 248.226 379.082 229.23 362.604 213.038C346.851 197.533 328.236 182.599 322.763 161.181C319.101 146.839 322.191 129.236 330.048 116.686C315.191 116.343 295.699 120.52 283.818 130.151C272.756 139.115 264.059 152.484 259.939 166.045C255.381 181.035 256.411 197.914 264.059 211.57C264.135 211.722 264.173 211.875 264.25 212.027C270.295 222.593 279.984 230.928 285.229 241.837C293.888 253.623 299.056 268.137 299.056 283.891C299.056 323.236 267.168 355.125 227.822 355.125C211.782 355.125 197.059 349.727 185.158 340.783C188.343 359.893 196.162 377.382 207.491 392.086C208.483 393.364 209.418 394.661 210.447 395.882C212.069 397.808 213.785 399.639 215.501 401.451C216.608 402.614 217.733 403.759 218.877 404.865C220.937 406.848 223.016 408.794 225.209 410.625C225.552 410.911 225.915 411.178 226.258 411.445C245.902 427.389 270.868 437.001 298.103 437.211C302.069 437.211 306.037 437.039 310.004 436.658C308.382 430.688 307.429 424.433 307.429 417.948C307.429 378.603 339.317 346.714 378.663 346.714C389.877 346.714 400.462 349.384 409.903 354.019C409.998 354.057 410.094 354.095 410.189 354.133C414.27 340.439 415.911 326.04 414.69 311.793L414.728 311.831Z" fill="#34B161"/>
<path d="M327.874 433.53C326.94 433.778 326.024 434.026 325.09 434.255C326.024 434.045 326.94 433.778 327.874 433.53Z" fill="#263238"/>
<path d="M285.267 241.837C285.572 242.466 285.915 243.077 286.182 243.725C292.896 259.746 287.098 280.038 272.927 290.089C258.776 300.14 237.701 298.92 224.79 287.324C212.24 276.033 208.75 256.084 216.36 241.074C206.442 251.239 198.356 263.178 192.71 276.434C192.424 277.12 192.195 277.807 191.928 278.493C190.155 282.899 188.743 287.457 187.485 292.111C187.199 293.179 186.951 294.228 186.684 295.296C185.883 298.672 185.234 302.105 184.738 305.595C183.003 317.133 182.774 328.901 184.624 340.439C184.795 340.573 185.005 340.668 185.177 340.802C197.078 349.747 211.802 355.144 227.841 355.144C267.187 355.144 299.075 323.255 299.075 283.91C299.075 268.156 293.907 253.662 285.248 241.856L285.267 241.837Z" fill="#263238"/>
<path d="M409.941 354.057C400.5 349.422 389.915 346.752 378.701 346.752C339.355 346.752 307.467 378.641 307.467 417.986C307.467 424.471 308.401 430.726 310.042 436.696C315.096 436.2 320.131 435.342 325.09 434.236C326.024 434.026 326.94 433.759 327.874 433.511C331.116 432.71 334.301 431.68 337.448 430.612C348.968 426.702 359.953 421.248 369.642 413.829C389.076 398.952 403.247 377.592 410.227 354.152C410.132 354.114 410.036 354.076 409.941 354.038V354.057Z" fill="#82DCA0"/>
</svg>
