<svg width="78" height="78" viewBox="0 0 78 78" fill="none" xmlns="http://www.w3.org/2000/svg">
<g clip-path="url(#clip0_1283_10013)">
<path d="M61.4417 39.5908L21.0161 26.1165C18.9335 28.4251 17.2796 31.1856 16.2339 34.3226C12.176 46.4971 18.7575 59.6592 30.9321 63.7171C43.1067 67.7751 56.2689 61.1938 60.3268 49.0193C61.3724 45.8823 61.7054 42.6815 61.4244 39.5851L61.4417 39.5908Z" fill="#E63946"/>
<path d="M28.2203 42.6807C29.5065 43.1094 31.1353 41.6984 31.8584 39.5291C32.5814 37.3599 32.1249 35.2538 30.8387 34.8251C29.5525 34.3964 27.9236 35.8074 27.2006 37.9766C26.4775 40.1459 26.9341 42.252 28.2203 42.6807Z" fill="#212121"/>
<path d="M31.9084 38.4929C31.7173 38.4291 31.5377 38.3017 31.4189 38.1076L28.9509 34.1567C28.6786 33.728 28.8089 33.1632 29.2376 32.8909C29.6663 32.6186 30.2312 32.7489 30.5035 33.1776L32.9715 37.1285C33.2438 37.5572 33.1134 38.1221 32.6847 38.3944C32.4414 38.545 32.1633 38.5682 31.9113 38.4842L31.9084 38.4929Z" fill="#212121"/>
<path d="M37.1988 45.6753C38.485 46.104 40.1139 44.693 40.8369 42.5238C41.56 40.3545 41.1034 38.2484 39.8172 37.8197C38.531 37.391 36.9021 38.802 36.1791 40.9713C35.4561 43.1405 35.9126 45.2466 37.1988 45.6753Z" fill="#212121"/>
<path d="M36.754 40.1095C36.502 40.0255 36.2934 39.8402 36.1891 39.5737C36.0095 39.0986 36.2442 38.5685 36.7192 38.3889L41.0641 36.7088C41.5391 36.5293 42.0692 36.7639 42.2488 37.2389C42.4284 37.7139 42.1938 38.244 41.7188 38.4236L37.3739 40.1037C37.1653 40.179 36.951 40.1848 36.7511 40.1182L36.754 40.1095Z" fill="#212121"/>
<path d="M24.0525 50.2519C23.6528 50.1187 23.3863 49.7305 23.4355 49.2932C23.4877 48.7891 23.9279 48.4242 24.4348 48.4676C31.4939 49.1598 38.4662 51.4161 44.5897 55.002L45.2849 55.4075C45.7223 55.6595 45.8701 56.2302 45.6094 56.6647C45.3574 57.102 44.7896 57.2411 44.3522 56.9891L43.657 56.5836C37.7594 53.1309 31.0508 50.9528 24.2524 50.2896C24.1858 50.2867 24.1163 50.2635 24.0554 50.2432L24.0525 50.2519Z" fill="#333333"/>
<path d="M60.8765 28.9649C58.7155 24.9908 53.9736 20.4461 49.4635 18.0449C49.5185 17.9667 49.5736 17.8884 49.6025 17.8015C49.8806 16.9673 48.8262 15.8724 47.2446 15.3453C45.6631 14.8181 44.1597 15.0701 43.8846 15.8957C43.8527 15.9913 43.8382 16.0926 43.844 16.1911C39.2876 15.5221 33.4393 16.0638 29.7722 17.4485C26.6352 18.6332 24.5757 20.8144 22.4642 23.4417L15.8685 21.2433C15.0516 20.971 14.1595 21.4171 13.8872 22.2339L13.6497 22.9465C13.3774 23.7633 13.8235 24.6555 14.6404 24.9277L61.4966 40.5455C62.6145 33.136 62.852 32.5972 60.8707 28.9533L60.8765 28.9649Z" fill="#B02C38"/>
</g>
<defs>
<clipPath id="clip0_1283_10013">
<rect width="61" height="61" fill="white" transform="translate(19.2891) rotate(18.4338)"/>
</clipPath>
</defs>
</svg>
