<svg width="88" height="22" viewBox="0 0 88 22" fill="none" xmlns="http://www.w3.org/2000/svg">
<path d="M22.3649 8.00908C22.7948 7.53378 23.3365 7.16215 23.9889 6.89538C24.6401 6.6286 25.374 6.49579 26.1907 6.49579C26.8489 6.49579 27.4838 6.6286 28.0966 6.89538C28.7082 7.16099 29.2522 7.53028 29.7287 8.00093C30.204 8.47157 30.5838 9.03308 30.868 9.6843C31.1523 10.3367 31.2932 11.0473 31.2932 11.8185C31.2932 12.5897 31.1546 13.2619 30.8773 13.9015C30.6001 14.5422 30.2284 15.0944 29.7636 15.5604C29.2988 16.0252 28.7571 16.3933 28.1397 16.6659C27.5211 16.9385 26.8664 17.0795 26.1755 17.0911C25.8016 17.1016 25.4265 17.0713 25.0537 16.9979C24.6785 16.9246 24.3221 16.8162 23.9819 16.6753C23.6417 16.5331 23.3237 16.3572 23.0301 16.1475C22.7354 15.9378 22.4803 15.7025 22.2647 15.4416L21.9584 16.751H19.6797V6.05427C19.6797 4.57011 20.8831 3.3667 22.3673 3.3667V8.00908H22.3649ZM25.6478 15.0163C26.0555 15.0163 26.4411 14.9429 26.8034 14.7962C27.1657 14.6482 27.4815 14.4362 27.7482 14.1589C28.0138 13.8817 28.2235 13.5438 28.3773 13.1466C28.5311 12.7493 28.608 12.3078 28.608 11.8197C28.608 11.3316 28.5311 10.8563 28.3773 10.459C28.2235 10.0617 28.015 9.72507 27.7482 9.44665C27.4815 9.16939 27.1669 8.9562 26.8034 8.80941C26.44 8.66263 26.0555 8.58807 25.6478 8.58807C25.2401 8.58807 24.8545 8.66146 24.4922 8.80941C24.1287 8.95736 23.8141 9.16939 23.5474 9.44665C23.2806 9.72391 23.0721 10.0617 22.9183 10.459C22.7645 10.8563 22.6876 11.3094 22.6876 11.8197C22.6876 12.3299 22.7645 12.7493 22.9183 13.1466C23.0721 13.5438 23.2806 13.8805 23.5474 14.1589C23.8141 14.4374 24.1275 14.6494 24.4922 14.7962C24.8545 14.9429 25.2389 15.0163 25.6478 15.0163Z" fill="black"/>
<path d="M42.9469 6.83577H44.0327V16.7508H41.754L41.4301 15.4414C41.2263 15.7023 40.977 15.9365 40.6822 16.1473C40.3875 16.357 40.0671 16.5329 39.7211 16.6751C39.3751 16.816 39.0152 16.9244 38.6412 16.9978C38.2673 17.0712 37.8991 17.1026 37.5357 17.091C36.8437 17.0793 36.189 16.9383 35.5715 16.6657C34.9529 16.3943 34.4089 16.025 33.9394 15.5602C33.4676 15.0954 33.0971 14.5432 32.8257 13.9013C32.5531 13.2617 32.418 12.5662 32.418 11.8183C32.418 11.0704 32.5589 10.3365 32.8432 9.68411C33.1263 9.0329 33.506 8.47138 33.9825 8.00074C34.459 7.53009 35.003 7.16197 35.6158 6.89519C36.2274 6.62841 36.8623 6.49561 37.5193 6.49561C38.336 6.49561 39.0792 6.63191 39.7479 6.90334C40.4166 7.17594 40.9607 7.56155 41.38 8.05899C41.5594 7.33904 42.206 6.83461 42.9481 6.83461L42.9469 6.83577ZM38.0634 15.0162C38.4711 15.0162 38.8567 14.9428 39.219 14.796C39.5825 14.648 39.897 14.436 40.1626 14.1587C40.4283 13.8815 40.6391 13.5436 40.7917 13.1464C40.9443 12.7491 41.0212 12.3076 41.0212 11.8195C41.0212 11.3314 40.9443 10.8561 40.7917 10.4588C40.6391 10.0616 40.4283 9.72489 40.1626 9.44646C39.897 9.16803 39.5825 8.95601 39.219 8.80922C38.8556 8.66244 38.4711 8.58788 38.0634 8.58788C37.6556 8.58788 37.2689 8.66127 36.9066 8.80922C36.5443 8.95717 36.2286 9.1692 35.963 9.44646C35.6962 9.72372 35.4865 10.0616 35.3339 10.4588C35.1813 10.8561 35.1044 11.3092 35.1044 11.8195C35.1044 12.3297 35.1813 12.7491 35.3339 13.1464C35.4865 13.5436 35.6962 13.8803 35.963 14.1587C36.2286 14.436 36.5443 14.6492 36.9066 14.796C37.2689 14.9428 37.6556 15.0162 38.0634 15.0162Z" fill="black"/>
<path d="M48.9454 3.3667V16.751H46.2578V6.05427C46.2578 4.57011 47.4612 3.3667 48.9454 3.3667Z" fill="black"/>
<path d="M53.8594 3.3667V16.751H51.1719V6.05427C51.1719 4.57011 52.3753 3.3667 53.8594 3.3667Z" fill="black"/>
<path d="M55.4961 11.8183C55.4961 10.9795 55.6487 10.22 55.9551 9.53963C56.2615 8.85929 56.6774 8.28031 57.2051 7.805C57.7328 7.32969 58.3479 6.96273 59.0504 6.70877C59.7529 6.45481 60.5019 6.32666 61.2953 6.32666C62.0886 6.32666 62.8202 6.45364 63.5239 6.70877C64.2275 6.9639 64.8414 7.32969 65.3692 7.805C65.8969 8.28147 66.3163 8.85929 66.6285 9.53963C66.9395 10.2188 67.0956 10.9795 67.0956 11.8183C67.0956 12.6571 66.9395 13.412 66.6285 14.0807C66.3174 14.7494 65.8981 15.319 65.3692 15.7897C64.8426 16.2603 64.2275 16.6226 63.5239 16.8777C62.8202 17.1329 62.0781 17.2598 61.2953 17.2598C60.5124 17.2598 59.754 17.1329 59.0504 16.8777C58.3468 16.6226 57.7328 16.2591 57.2051 15.7897C56.6774 15.319 56.2615 14.7494 55.9551 14.0807C55.6487 13.4108 55.4961 12.6582 55.4961 11.8183ZM61.2953 15.2037C61.738 15.2037 62.1515 15.121 62.5371 14.9567C62.9227 14.7925 63.2536 14.5606 63.532 14.2601C63.8104 13.9595 64.0283 13.6019 64.1867 13.1883C64.3452 12.7747 64.4255 12.3181 64.4255 11.8195C64.4255 11.3209 64.3452 10.8421 64.1867 10.4168C64.0283 9.99164 63.8093 9.63283 63.532 9.33693C63.2548 9.04103 62.9227 8.81269 62.5371 8.64843C62.1515 8.48417 61.738 8.40146 61.2953 8.40146C60.8526 8.40146 60.4251 8.4865 60.0453 8.65659C59.6655 8.82667 59.337 9.062 59.0586 9.36256C58.7813 9.66312 58.5623 10.0231 58.4038 10.4425C58.2454 10.8619 58.1662 11.3209 58.1662 11.8195C58.1662 12.3181 58.2454 12.7747 58.4038 13.1883C58.5623 13.603 58.7813 13.9595 59.0586 14.2601C59.3358 14.5606 59.6655 14.7925 60.0453 14.9567C60.4251 15.121 60.841 15.2037 61.2953 15.2037Z" fill="black"/>
<path d="M80.0014 16.3258C80.0014 17.1191 79.8686 17.8309 79.6018 18.46C79.3351 19.0891 78.9646 19.6273 78.4881 20.0758C78.0117 20.5232 77.4455 20.8715 76.7873 21.122C76.1291 21.3713 75.4103 21.5017 74.6274 21.5134C73.9017 21.5367 73.2073 21.4679 72.5445 21.3095C71.8816 21.1511 71.2886 20.9064 70.7667 20.5779C70.2448 20.2494 69.815 19.8277 69.4736 19.3104C69.4701 19.3058 69.4666 19.2999 69.4631 19.2953C68.9506 18.5089 69.575 17.4663 70.5139 17.4663H71.5834C71.6276 18.1117 71.8921 18.6056 72.3732 18.9458C72.8544 19.286 73.4764 19.4561 74.236 19.4561C74.6775 19.4561 75.0864 19.3943 75.4604 19.2697C75.8343 19.145 76.1605 18.9516 76.4378 18.6918C76.7162 18.4309 76.9317 18.1047 77.0843 17.7144C77.2369 17.323 77.3138 16.8559 77.3138 16.3107V15.1201C76.8945 15.6757 76.3504 16.087 75.6806 16.3538C75.0119 16.6194 74.2861 16.7533 73.5044 16.7533C72.8124 16.7533 72.1577 16.6287 71.5403 16.3794C70.9217 16.1301 70.3776 15.7783 69.9082 15.3251C69.4364 14.8719 69.0659 14.3325 68.7945 13.7105C68.5219 13.086 68.3867 12.401 68.3867 11.6531C68.3867 10.9052 68.5277 10.1794 68.8119 9.54454C69.0962 8.90963 69.4748 8.36792 69.9513 7.92058C70.4277 7.47323 70.9718 7.12374 71.5845 6.87444C72.1962 6.62514 72.8311 6.50049 73.4881 6.50049C74.3047 6.50049 75.048 6.63679 75.7167 6.90823C76.3854 7.18083 76.9294 7.56643 77.3488 8.06387C77.5282 7.34392 78.1747 6.83949 78.9168 6.83949H80.0026V16.3293L80.0014 16.3258ZM74.0321 14.6762C74.4399 14.6762 74.8255 14.6028 75.1878 14.4549C75.5512 14.3081 75.8658 14.1007 76.1314 13.8339C76.397 13.5672 76.6079 13.2468 76.7605 12.8728C76.9131 12.4989 76.99 12.09 76.99 11.6485C76.99 11.1836 76.9131 10.7643 76.7605 10.3891C76.6079 10.0152 76.397 9.69482 76.1314 9.42804C75.8658 9.16243 75.5512 8.95507 75.1878 8.80712C74.8243 8.65917 74.4399 8.58577 74.0321 8.58577C73.6244 8.58577 73.2376 8.65917 72.8753 8.80712C72.513 8.95507 72.1973 9.16127 71.9317 9.42804C71.6661 9.69482 71.4552 10.0152 71.3026 10.3891C71.15 10.7631 71.0731 11.1836 71.0731 11.6485C71.0731 12.1133 71.15 12.4989 71.3026 12.8728C71.4552 13.2468 71.6649 13.5672 71.9317 13.8339C72.1973 14.0995 72.513 14.3081 72.8753 14.4549C73.2376 14.6028 73.6244 14.6762 74.0321 14.6762Z" fill="black"/>
<path d="M2.62267 18.4905C2.6017 18.473 2.57956 18.4579 2.55859 18.4404C2.57956 18.4579 2.6017 18.4742 2.62267 18.4905Z" fill="#263238"/>
<path d="M0.523438 10.367C0.539747 10.3251 0.554892 10.2831 0.571201 10.2412C0.553727 10.282 0.539747 10.3251 0.523438 10.367Z" fill="#263238"/>
<path d="M1.65713 17.5385C1.59422 17.4627 1.53714 17.3835 1.47656 17.3066C1.53598 17.3847 1.59422 17.4639 1.65713 17.5385Z" fill="#263238"/>
<path d="M2.17495 18.0874C2.10505 18.0187 2.03632 17.95 1.96875 17.8789C2.03632 17.95 2.10505 18.0199 2.17495 18.0874Z" fill="#263238"/>
<path d="M7.01172 20.0644C7.03036 20.0644 7.049 20.0668 7.06764 20.0668C7.61517 20.0668 8.14639 19.998 8.65781 19.8804C8.35492 19.9479 8.04737 20.0004 7.73866 20.0307C7.49751 20.0539 7.25403 20.0633 7.01172 20.0644Z" fill="#263238"/>
<path d="M9.41294 19.6587C9.21955 19.7239 9.02617 19.7868 8.82812 19.8358C9.02733 19.7845 9.22188 19.7263 9.41294 19.6587Z" fill="#263238"/>
<path d="M0.078125 14.1511C0.0990944 14.2827 0.122393 14.4132 0.151517 14.5425C0.375191 15.5502 0.844672 16.4903 1.47608 17.3058C0.784093 16.4076 0.306458 15.3393 0.111909 14.172C0.101424 14.1639 0.0886097 14.1581 0.078125 14.1499V14.1511Z" fill="#263238"/>
<path d="M1.96887 17.8787C1.86286 17.7681 1.75801 17.6562 1.66016 17.5386C1.75918 17.6562 1.86286 17.7669 1.96887 17.8787Z" fill="#263238"/>
<path d="M4.64621 19.6645C5.40461 19.9406 6.20843 20.0653 7.01342 20.0641C5.35102 20.0513 3.82608 19.4641 2.625 18.4902C3.23078 18.9877 3.90879 19.3966 4.64505 19.6645H4.64621Z" fill="#263238"/>
<path d="M2.55864 18.4392C2.42467 18.3274 2.29653 18.2086 2.17188 18.0874C2.29769 18.2097 2.42584 18.3274 2.55864 18.4392Z" fill="#263238"/>
<path d="M14.136 12.4035C14.0591 11.4949 13.8063 10.6211 13.4288 9.79517C12.844 8.51837 11.9586 7.35807 10.9521 6.36901C9.98985 5.4219 8.85284 4.50973 8.5185 3.20147C8.29482 2.32542 8.48355 1.25016 8.96351 0.483613C8.05601 0.462644 6.86541 0.717771 6.13964 1.30608C5.46396 1.85361 4.93274 2.67025 4.68111 3.49854C4.40268 4.4142 4.46559 5.4452 4.93274 6.27931C4.9374 6.28863 4.93973 6.29795 4.94439 6.30727C5.31368 6.95266 5.90548 7.46175 6.22585 8.12811C6.75474 8.84805 7.07045 9.73459 7.07045 10.6969C7.07045 13.1002 5.12263 15.048 2.71931 15.048C1.73957 15.048 0.840219 14.7183 0.113281 14.1719C0.30783 15.3392 0.785465 16.4075 1.47745 17.3057C1.53803 17.3837 1.59512 17.463 1.65802 17.5375C1.75705 17.6552 1.86189 17.767 1.96674 17.8777C2.03431 17.9488 2.10304 18.0187 2.17294 18.0862C2.29875 18.2074 2.42573 18.3262 2.55971 18.438C2.58068 18.4555 2.60281 18.4718 2.62378 18.4881C3.82369 19.462 5.34863 20.0492 7.0122 20.062C7.25451 20.062 7.49682 20.0515 7.73914 20.0282C7.64012 19.6636 7.58187 19.2815 7.58187 18.8854C7.58187 16.4821 9.52969 14.5342 11.933 14.5342C12.618 14.5342 13.2646 14.6973 13.8412 14.9804C13.847 14.9828 13.8529 14.9851 13.8587 14.9874C14.108 14.151 14.2082 13.2714 14.1336 12.4012L14.136 12.4035Z" fill="#686868"/>
<path d="M8.83024 19.8374C8.77316 19.8525 8.71724 19.8677 8.66016 19.8817C8.71724 19.8689 8.77316 19.8525 8.83024 19.8374Z" fill="#263238"/>
<path d="M6.22634 8.12814C6.24498 8.16658 6.26595 8.20386 6.28226 8.24347C6.69232 9.22204 6.33818 10.4616 5.47261 11.0755C4.6082 11.6894 3.32092 11.6149 2.53224 10.9066C1.76569 10.2169 1.5525 8.99837 2.01732 8.08154C1.41154 8.70247 0.917597 9.43174 0.572768 10.2414C0.555294 10.2833 0.541314 10.3253 0.525004 10.3672C0.416662 10.6363 0.330455 10.9147 0.253567 11.199C0.236093 11.2642 0.220948 11.3283 0.204639 11.3935C0.15571 11.5997 0.116102 11.8094 0.0858129 12.0226C-0.0201988 12.7274 -0.034179 13.4462 0.0788226 14.151C0.0893072 14.1592 0.102122 14.165 0.112607 14.1731C0.839544 14.7195 1.7389 15.0492 2.71863 15.0492C5.12195 15.0492 7.06977 13.1014 7.06977 10.6981C7.06977 9.73579 6.75407 8.85042 6.22517 8.12931L6.22634 8.12814Z" fill="#263238"/>
<path d="M13.8414 14.9818C13.2647 14.6987 12.6182 14.5356 11.9332 14.5356C9.52985 14.5356 7.58203 16.4835 7.58203 18.8868C7.58203 19.2829 7.63912 19.665 7.7393 20.0296C8.04802 19.9993 8.35557 19.9469 8.65846 19.8793C8.71554 19.8665 8.77146 19.8502 8.82854 19.8351C9.02659 19.7861 9.22114 19.7232 9.41336 19.658C10.117 19.4192 10.788 19.086 11.3798 18.6328C12.5669 17.7242 13.4325 16.4194 13.8589 14.9877C13.853 14.9853 13.8472 14.983 13.8414 14.9807V14.9818Z" fill="#AFAFAF"/>
</svg>
