<svg width="72" height="72" viewBox="0 0 72 72" fill="none" xmlns="http://www.w3.org/2000/svg">
<circle cx="36" cy="36" r="36" fill="white"/>
<path d="M27.1556 49.3779C27.1144 49.3436 27.0709 49.3139 27.0297 49.2795C27.0709 49.3139 27.1144 49.3459 27.1556 49.3779Z" fill="#263238"/>
<path d="M23.0314 33.4192C23.0635 33.3368 23.0932 33.2544 23.1253 33.172C23.0909 33.2521 23.0635 33.3368 23.0314 33.4192Z" fill="#263238"/>
<path d="M25.256 47.5081C25.1324 47.3594 25.0202 47.2037 24.9012 47.0527C25.018 47.206 25.1324 47.3616 25.256 47.5081Z" fill="#263238"/>
<path d="M26.2699 48.5861C26.1325 48.451 25.9975 48.316 25.8648 48.1764C25.9975 48.316 26.1325 48.4533 26.2699 48.5861Z" fill="#263238"/>
<path d="M35.7769 52.4699C35.8135 52.4699 35.8501 52.4745 35.8867 52.4745C36.9624 52.4745 38.006 52.3394 39.0107 52.1083C38.4157 52.241 37.8115 52.344 37.205 52.4035C36.7312 52.4493 36.2529 52.4676 35.7769 52.4699Z" fill="#263238"/>
<path d="M40.4938 51.6757C40.1139 51.8039 39.734 51.9275 39.3449 52.0236C39.7362 51.9229 40.1184 51.8085 40.4938 51.6757Z" fill="#263238"/>
<path d="M22.1571 40.8527C22.1983 41.1114 22.2441 41.3677 22.3013 41.6217C22.7408 43.6014 23.6631 45.4483 24.9035 47.0504C23.5441 45.2858 22.6057 43.1872 22.2235 40.8939C22.2029 40.8779 22.1777 40.8665 22.1571 40.8504V40.8527Z" fill="#263238"/>
<path d="M25.8648 48.1764C25.6565 47.959 25.4505 47.7393 25.2583 47.5081C25.4528 47.7393 25.6565 47.9567 25.8648 48.1764Z" fill="#263238"/>
<path d="M31.1264 51.6849C32.6163 52.2273 34.1954 52.4722 35.7769 52.4699C32.511 52.4447 29.5152 51.2912 27.1556 49.3779C28.3457 50.3552 29.6776 51.1585 31.1241 51.6849H31.1264Z" fill="#263238"/>
<path d="M27.0297 49.2772C26.7665 49.0575 26.5147 48.8241 26.2699 48.5861C26.517 48.8264 26.7688 49.0575 27.0297 49.2772Z" fill="#263238"/>
<path d="M49.7674 37.4198C49.6163 35.6346 49.1197 33.9181 48.3782 32.2955C47.2293 29.7871 45.4899 27.5076 43.5125 25.5646C41.6221 23.7039 39.3884 21.9119 38.7315 19.3417C38.2921 17.6207 38.6629 15.5083 39.6058 14.0023C37.8229 13.9611 35.4839 14.4624 34.0581 15.6181C32.7307 16.6938 31.6871 18.2981 31.1927 19.9254C30.6457 21.7242 30.7693 23.7497 31.6871 25.3884C31.6962 25.4067 31.7008 25.425 31.71 25.4433C32.4355 26.7112 33.5981 27.7113 34.2275 29.0204C35.2665 30.4348 35.8867 32.1765 35.8867 34.0669C35.8867 38.7884 32.0601 42.615 27.3386 42.615C25.4139 42.615 23.6471 41.9673 22.2189 40.8939C22.6012 43.1872 23.5395 45.2858 24.899 47.0504C25.018 47.2037 25.1301 47.3593 25.2537 47.5058C25.4482 47.737 25.6542 47.9567 25.8602 48.1741C25.9929 48.3137 26.128 48.451 26.2653 48.5838C26.5124 48.8218 26.7619 49.0552 27.0251 49.2749C27.0663 49.3093 27.1098 49.3413 27.151 49.3734C29.5083 51.2867 32.5041 52.4401 35.7723 52.4653C36.2483 52.4653 36.7244 52.4447 37.2004 52.3989C37.0059 51.6826 36.8915 50.9319 36.8915 50.1538C36.8915 45.4323 40.7181 41.6057 45.4396 41.6057C46.7853 41.6057 48.0555 41.9261 49.1883 42.4822C49.1998 42.4868 49.2112 42.4914 49.2227 42.496C49.7124 40.8527 49.9093 39.1248 49.7628 37.4152L49.7674 37.4198Z" fill="#34B161"/>
<path d="M39.3449 52.0236C39.2327 52.0534 39.1229 52.0831 39.0107 52.1106C39.1229 52.0854 39.2327 52.0534 39.3449 52.0236Z" fill="#263238"/>
<path d="M34.232 29.0204C34.2687 29.096 34.3099 29.1692 34.3419 29.247C35.1475 31.1695 34.4518 33.6046 32.7513 34.8107C31.0531 36.0168 28.5242 35.8704 26.9747 34.4789C25.4688 33.124 25.05 30.7301 25.9632 28.9289C24.7731 30.1487 23.8027 31.5814 23.1253 33.172C23.0909 33.2544 23.0634 33.3368 23.0314 33.4192C22.8186 33.9479 22.6492 34.4949 22.4981 35.0533C22.4638 35.1815 22.4341 35.3073 22.402 35.4355C22.3059 35.8406 22.2281 36.2526 22.1686 36.6714C21.9603 38.056 21.9329 39.4681 22.1549 40.8527C22.1755 40.8688 22.2006 40.8802 22.2212 40.8962C23.6493 41.9696 25.4162 42.6173 27.3409 42.6173C32.0624 42.6173 35.889 38.7907 35.889 34.0692C35.889 32.1788 35.2688 30.4394 34.2298 29.0227L34.232 29.0204Z" fill="#263238"/>
<path d="M49.1929 42.4868C48.06 41.9307 46.7898 41.6103 45.4441 41.6103C40.7226 41.6103 36.896 45.4369 36.896 50.1584C36.896 50.9365 37.0082 51.6872 37.205 52.4035C37.8115 52.344 38.4157 52.241 39.0107 52.1083C39.1229 52.0831 39.2327 52.0511 39.3449 52.0213C39.734 51.9252 40.1162 51.8016 40.4938 51.6735C41.8761 51.2043 43.1944 50.5497 44.357 49.6594C46.6891 47.8743 48.3896 45.311 49.2273 42.4983C49.2158 42.4937 49.2044 42.4891 49.1929 42.4845V42.4868Z" fill="#82DCA0"/>
</svg>
