<svg width="12" height="12" viewBox="0 0 12 12" fill="none" xmlns="http://www.w3.org/2000/svg">
<path d="M5.99992 7.16666L1.91659 11.25C1.76381 11.4028 1.56936 11.4792 1.33325 11.4792C1.09714 11.4792 0.902696 11.4028 0.749919 11.25C0.597141 11.0972 0.520752 10.9028 0.520752 10.6667C0.520752 10.4306 0.597141 10.2361 0.749919 10.0833L4.83325 6L0.749919 1.91666C0.597141 1.76388 0.520752 1.56944 0.520752 1.33333C0.520752 1.09722 0.597141 0.902773 0.749919 0.749995C0.902696 0.597217 1.09714 0.520828 1.33325 0.520828C1.56936 0.520828 1.76381 0.597217 1.91659 0.749995L5.99992 4.83333L10.0833 0.749995C10.236 0.597217 10.4305 0.520828 10.6666 0.520828C10.9027 0.520828 11.0971 0.597217 11.2499 0.749995C11.4027 0.902773 11.4791 1.09722 11.4791 1.33333C11.4791 1.56944 11.4027 1.76388 11.2499 1.91666L7.16659 6L11.2499 10.0833C11.4027 10.2361 11.4791 10.4306 11.4791 10.6667C11.4791 10.9028 11.4027 11.0972 11.2499 11.25C11.0971 11.4028 10.9027 11.4792 10.6666 11.4792C10.4305 11.4792 10.236 11.4028 10.0833 11.25L5.99992 7.16666Z" fill="#212121"/>
</svg>
