<svg width="52" height="78" viewBox="0 0 52 78" fill="none" xmlns="http://www.w3.org/2000/svg">
<g clip-path="url(#clip0_10277_309)">
<path fill-rule="evenodd" clip-rule="evenodd" d="M9.42499 72.0139C7.07772 72.0139 5.17542 70.1116 5.17542 67.7643V48.0898L10.0727 33.4234C10.584 31.8934 12.0158 30.862 13.6287 30.862H38.3713C39.9842 30.862 41.416 31.8934 41.9273 33.4234L46.8246 48.0898V67.7643C46.8246 70.1116 44.9223 72.0139 42.575 72.0139H9.42499Z" fill="#E0E0E0"/>
<path d="M36.6564 35.6573H15.3423C14.3205 35.6573 13.4922 36.4855 13.4922 37.5073V54.5069C13.4922 55.5286 14.3205 56.3569 15.3423 56.3569H36.6564C37.6782 56.3569 38.5065 55.5286 38.5065 54.5069V37.5073C38.5065 36.4855 37.6782 35.6573 36.6564 35.6573Z" fill="#BDBDBD"/>
<path d="M39.7279 41.4228H12.2734C11.1932 41.4228 10.3175 42.2985 10.3175 43.3786V65.1187C10.3175 66.1989 11.1932 67.0745 12.2734 67.0745H39.7279C40.8081 67.0745 41.6838 66.1989 41.6838 65.1187V43.3786C41.6838 42.2985 40.8081 41.4228 39.7279 41.4228Z" fill="white"/>
<path fill-rule="evenodd" clip-rule="evenodd" d="M46.8246 48.0885H5.17542V68.2654C5.17542 70.336 6.85331 72.0139 8.92391 72.0139H43.0773C45.1479 72.0139 46.8258 70.336 46.8258 68.2654L46.8246 48.0885Z" fill="#757575"/>
</g>
<g clip-path="url(#clip1_10277_309)">
<path d="M15.828 26.486C15.659 26.486 15.487 26.443 15.329 26.352C12.937 24.971 11.044 23.032 9.99599 20.891C8.88499 18.62 8.84299 16.381 9.87699 14.589C10.153 14.11 10.765 13.945 11.243 14.223C11.722 14.499 11.885 15.111 11.609 15.589C10.918 16.786 10.983 18.357 11.793 20.012C12.667 21.799 14.278 23.436 16.329 24.619C16.807 24.895 16.971 25.507 16.695 25.985C16.509 26.305 16.174 26.486 15.828 26.486Z" fill="#9E9E9E"/>
<path d="M37.596 11.298C37.25 11.298 36.914 11.119 36.729 10.798C36.453 10.319 36.617 9.708 37.095 9.432C40.007 7.751 41.586 4.805 40.543 3C40.267 2.521 40.431 1.91 40.909 1.634C41.387 1.358 41.998 1.521 42.275 2C43.914 4.83899 42.077 8.86399 38.094 11.164C37.937 11.255 37.764 11.298 37.595 11.298H37.596Z" fill="#9E9E9E"/>
<path d="M40.609 8.25499C40.628 7.94099 40.453 7.63799 40.172 7.49699C37.079 5.95599 32.825 6.14099 29.05 8.32099C25.087 10.609 22.763 14.454 22.76 18.056C25.881 19.854 30.372 19.764 34.336 17.476C38.111 15.296 40.399 11.705 40.61 8.25599L40.609 8.25499Z" fill="#9E9E9E"/>
<path d="M33.519 28.893C32.86 29.893 31.731 30.555 30.444 30.555C28.41 30.555 26.761 28.906 26.761 26.872C26.761 25.525 27.492 24.359 28.571 23.717C28.137 23.415 27.691 23.122 27.221 22.851C22.187 19.945 16.515 19.698 12.392 21.753C12.017 21.94 11.783 22.345 11.809 22.763C12.091 27.362 15.141 32.15 20.175 35.056C25.46 38.107 31.448 38.227 35.609 35.83C35.607 33.502 34.872 31.1 33.519 28.893Z" fill="#9E9E9E"/>
<path d="M20.463 13.193C17.597 13.193 15.265 10.861 15.265 7.995C15.265 7.581 15.601 7.245 16.015 7.245C16.429 7.245 16.765 7.581 16.765 7.995C16.765 10.034 18.424 11.693 20.463 11.693C20.877 11.693 21.213 12.029 21.213 12.443C21.213 12.857 20.877 13.193 20.463 13.193Z" fill="#9E9E9E"/>
<path d="M20.047 16.097C15.92 16.097 12.562 12.739 12.562 8.612C12.562 8.198 12.898 7.862 13.312 7.862C13.726 7.862 14.062 8.198 14.062 8.612C14.062 11.913 16.747 14.597 20.047 14.597C20.461 14.597 20.797 14.933 20.797 15.347C20.797 15.761 20.461 16.097 20.047 16.097Z" fill="#9E9E9E"/>
</g>
<defs>
<clipPath id="clip0_10277_309">
<rect width="51" height="51" fill="white" transform="translate(0.5 27)"/>
</clipPath>
<clipPath id="clip1_10277_309">
<rect width="40" height="40" fill="white" transform="translate(6)"/>
</clipPath>
</defs>
</svg>
