<svg width="22" height="22" viewBox="0 0 22 22" fill="none" xmlns="http://www.w3.org/2000/svg">
<path d="M6.25835 3.35993L14.2347 10.535C14.4913 10.7658 14.5124 11.161 14.2818 11.4179H14.2818C14.267 11.4344 14.2513 11.4501 14.2347 11.465L6.25835 18.6401C5.9383 18.9279 5.91202 19.421 6.1996 19.7414C6.48718 20.0618 6.97976 20.0881 7.29981 19.8002L15.2762 12.6251H15.2762C15.334 12.5732 15.3889 12.5182 15.4408 12.4604C16.2465 11.5628 16.1728 10.1814 15.2762 9.37487L7.29981 2.19981C6.97976 1.91192 6.48718 1.93825 6.1996 2.25862C5.91202 2.57897 5.9383 3.07205 6.25835 3.35993V3.35993Z" fill="#9E9E9E"/>
</svg>
