<svg width="92" height="92" viewBox="0 0 92 92" fill="none" xmlns="http://www.w3.org/2000/svg">
<g clip-path="url(#clip0_10470_4875)" filter="url(#filter0_d_10470_4875)">
<path d="M46 35.9C43.8 35.9 42 36.7 40.4 38.2C38.8 39.7 38.1 41.6 38.1 43.8C38.1 46 38.9 47.8 40.4 49.4C41.9 51 43.8 51.7 46 51.7C48.2 51.7 50 50.9 51.6 49.4C53.2 47.9 53.9 46 53.9 43.8C53.9 41.6 53.1 39.8 51.6 38.2C50.1 36.6 48.2 35.9 46 35.9ZM49.1 46.9C48.3 47.7 47.2 48.2 46 48.2C44.8 48.2 43.7 47.8 42.9 46.9C42 46 41.6 45 41.6 43.8C41.6 42.6 42 41.5 42.9 40.7C43.7 39.9 44.8 39.4 46 39.4C47.2 39.4 48.3 39.8 49.1 40.7C49.9 41.5 50.4 42.6 50.4 43.8C50.4 45 50 46 49.1 46.9Z" fill="white"/>
<path d="M46 6C26.1 6 10 22.1 10 42C10 61.9 26.1 78 46 78C52.2 78 58 76.4 63.1 73.7C60 70.8 58 66.6 58 62C58 60.5 58.2 59.1 58.6 57.8H32C31 57.8 30.2 57.5 29.5 56.8C28.8 56.1 28.5 55.3 28.5 54.3V33.3C28.5 32.3 28.8 31.5 29.5 30.8C30.2 30.1 31 29.8 32 29.8H37.5L39.7 27.4C40 27 40.4 26.8 40.9 26.6C41.4 26.4 41.8 26.3 42.3 26.3H49.7C50.2 26.3 50.7 26.4 51.1 26.6C51.6 26.8 51.9 27.1 52.3 27.4L54.5 29.8H60C61 29.8 61.8 30.1 62.5 30.8C63.2 31.5 63.5 32.3 63.5 33.3V50C66.3 47.5 70 46 74 46C76.7 46 79.3 46.7 81.5 47.9C81.8 46 82 44 82 42C82 22.1 65.9 6 46 6Z" fill="white"/>
<path d="M46 39.4C44.8 39.4 43.7 39.8 42.9 40.7C42.1 41.5 41.6 42.6 41.6 43.8C41.6 45 42 46.1 42.9 46.9C43.7 47.7 44.8 48.2 46 48.2C47.2 48.2 48.3 47.8 49.1 46.9C49.9 46.1 50.4 45 50.4 43.8C50.4 42.6 50 41.5 49.1 40.7C48.3 39.8 47.2 39.4 46 39.4Z" fill="#424242"/>
<path d="M62.5 30.8C61.8 30.1 61 29.8 60 29.8H54.5L52.3 27.4C52 27 51.6 26.8 51.1 26.6C50.6 26.4 50.2 26.3 49.7 26.3H42.3C41.8 26.3 41.3 26.4 40.9 26.6C40.4 26.8 40.1 27.1 39.7 27.4L37.5 29.8H32C31 29.8 30.2 30.1 29.5 30.8C28.8 31.5 28.5 32.3 28.5 33.3V54.3C28.5 55.3 28.8 56.1 29.5 56.8C30.2 57.5 31 57.8 32 57.8H58.6C59.4 54.7 61.2 52 63.5 50V33.2C63.5 32.3 63.2 31.5 62.5 30.8ZM51.6 49.3C50.1 50.8 48.2 51.6 46 51.6C43.8 51.6 42 50.8 40.4 49.3C38.8 47.8 38.1 45.9 38.1 43.7C38.1 41.5 38.9 39.7 40.4 38.1C41.9 36.5 43.8 35.8 46 35.8C48.2 35.8 50 36.6 51.6 38.1C53.2 39.6 53.9 41.5 53.9 43.7C53.9 45.9 53.1 47.8 51.6 49.3Z" fill="#424242"/>
<path d="M74 74C80.6 74 86 68.6 86 62C86 55.4 80.6 50 74 50C67.4 50 62 55.4 62 62C62 68.6 67.4 74 74 74Z" fill="#424242"/>
<path d="M80 61H75V56C75 55.4 74.6 55 74 55C73.4 55 73 55.4 73 56V61H68C67.4 61 67 61.4 67 62C67 62.6 67.4 63 68 63H73V68C73 68.6 73.4 69 74 69C74.6 69 75 68.6 75 68V63H80C80.6 63 81 62.6 81 62C81 61.4 80.6 61 80 61Z" fill="white"/>
<path d="M46 82C23.9 82 6 64.1 6 42C6 20 23.9 2 46 2C68.1 2 86 20 86 42C86 44.9 85.7 47.7 85.1 50.5C85.7 51.1 86.2 51.7 86.7 52.3C87.5 49 88 45.5 88 42C88 18.8 69.2 0 46 0C22.8 0 4 18.9 4 42C4 65.1 22.8 84 46 84C54.5 84 62.4 81.5 68.9 77.2C68.1 76.9 67.4 76.6 66.6 76.2C60.7 79.9 53.6 82 46 82Z" fill="url(#paint0_linear_10470_4875)"/>
<path d="M46 78C26.1 78 10 61.9 10 42C10 22.1 26.1 6 46 6C65.9 6 82 22.1 82 42C82 44 81.8 46 81.5 47.9C82.8 48.6 84 49.5 85.1 50.5C85.7 47.8 86 45 86 42C86 20 68.1 2 46 2C23.9 2 6 20 6 42C6 64.1 23.9 82 46 82C53.6 82 60.7 79.9 66.7 76.2C65.4 75.5 64.2 74.7 63.1 73.7C58 76.5 52.2 78 46 78Z" fill="#030303"/>
</g>
<path d="M50 0H16C9.4 0 4 5.4 4 12C4 17.4 7.6 21.9 12.4 23.4L23.5 30.1C24.2 30.5 25 30 25 29.2V24H50C56.6 24 62 18.6 62 12C62 5.4 56.6 0 50 0Z" fill="#36C1B3"/>
<path d="M16.3 9.2C16.3 11.1 17.4 13 18.9 13.7L18.2 14.6C17.1 14 16.2 12.8 15.7 11.4C15.2 12.9 14.3 14.1 13.1 14.8L12.4 13.9C14 13.1 15.1 11.1 15.1 9.2V7.4H16.2V9.2H16.3ZM19.7 17V6.5H20.8V10.7H22.5V11.6H20.8V17H19.7ZM26.9 8.7C26.9 10.1 27.9 11.3 29.5 11.9L29 12.7C27.8 12.3 26.9 11.5 26.4 10.4C25.9 11.5 25 12.4 23.7 12.9L23.1 12C24.7 11.4 25.7 10.1 25.7 8.6V8.1H23.3V7.2H29.1V8.1H26.8V8.7H26.9ZM24.9 16.8V13.5H26V15.9H32V16.8H24.9ZM30.6 14.2V6.5H31.7V14.2H30.6ZM42.1 6.5V17H41V6.5H42.1ZM33.5 14.2C36.3 12.9 37.7 11 37.9 8.5H34V7.6H39C39 10.7 37.7 13.3 34.1 15.1L33.5 14.2ZM53.4 12.2V13.1H43.8V12.2H48V11.2H45V8.5H51V7.6H45V6.7H52.2V9.3H46.1V10.3H52.4V11.2H49.1V12.2H53.4ZM44.8 14.8V13.9H52.2V16.9H51.1V14.7L44.8 14.8Z" fill="white"/>
<defs>
<filter id="filter0_d_10470_4875" x="0" y="0" width="92" height="92" filterUnits="userSpaceOnUse" color-interpolation-filters="sRGB">
<feFlood flood-opacity="0" result="BackgroundImageFix"/>
<feColorMatrix in="SourceAlpha" type="matrix" values="0 0 0 0 0 0 0 0 0 0 0 0 0 0 0 0 0 0 127 0" result="hardAlpha"/>
<feOffset dy="4"/>
<feGaussianBlur stdDeviation="2"/>
<feComposite in2="hardAlpha" operator="out"/>
<feColorMatrix type="matrix" values="0 0 0 0 0 0 0 0 0 0 0 0 0 0 0 0 0 0 0.25 0"/>
<feBlend mode="normal" in2="BackgroundImageFix" result="effect1_dropShadow_10470_4875"/>
<feBlend mode="normal" in="SourceGraphic" in2="effect1_dropShadow_10470_4875" result="shape"/>
</filter>
<linearGradient id="paint0_linear_10470_4875" x1="46" y1="0" x2="46" y2="84" gradientUnits="userSpaceOnUse">
<stop stop-color="#C3F0EC"/>
<stop offset="1" stop-color="#17A093"/>
</linearGradient>
<clipPath id="clip0_10470_4875">
<rect width="84" height="84" fill="white" transform="translate(4)"/>
</clipPath>
</defs>
</svg>
