<svg width="32" height="32" viewBox="0 0 32 32" fill="none" xmlns="http://www.w3.org/2000/svg">
<g clip-path="url(#clip0_10017_281)">
<path d="M16 30C23.732 30 30 23.732 30 16C30 8.26801 23.732 2 16 2C8.26801 2 2 8.26801 2 16C2 23.732 8.26801 30 16 30Z" fill="#FFC84D"/>
<path d="M24.1272 18.3128C24.052 18.3296 23.968 18.3416 23.8912 18.3584C22.2336 20.1864 19.4704 21.2112 16.3336 21.2112C12.196 21.2112 9.77921 20.1808 8.45361 18.3424C8.40401 18.3312 8.34881 18.324 8.30001 18.3128C7.96401 18.2368 7.63201 18.4712 7.66401 18.7824C8.06401 22.7336 11.7368 25.8288 16.2136 25.8288C20.6904 25.8288 24.364 22.7336 24.7632 18.7824C24.7944 18.4704 24.4632 18.2368 24.1272 18.3128Z" fill="#FF6D00"/>
<path d="M16.3336 21.2112C19.4704 21.2112 22.2336 20.1864 23.8912 18.3584C21.636 18.848 19.0184 19.1352 16.2136 19.1352C13.376 19.1352 10.7272 18.8432 8.45361 18.3424C9.77921 20.1808 12.196 21.2112 16.3336 21.2112Z" fill="white"/>
<path d="M13.7288 15.9848L11.4536 15.2864C11.2968 15.2384 11.1264 15.2704 10.9976 15.372L9.13284 16.8504C8.80884 17.1072 8.33204 16.8808 8.32484 16.468L8.28564 14.0888C8.28324 13.9248 8.20004 13.7728 8.06324 13.6816L6.08084 12.3648C5.73684 12.136 5.80404 11.612 6.19524 11.4784L8.44644 10.7064C8.60164 10.6528 8.72084 10.5272 8.76484 10.3688L9.40484 8.07681C9.51604 7.67921 10.0352 7.58081 10.2832 7.91121L11.7136 9.81361C11.812 9.94481 11.9688 10.0192 12.1328 10.012L14.5104 9.91201C14.9232 9.89441 15.1768 10.3584 14.9392 10.696L13.572 12.644C13.4776 12.7784 13.456 12.9504 13.5128 13.104L14.3424 15.3344C14.4864 15.7216 14.124 16.1056 13.7288 15.9848Z" fill="#FFF3B8"/>
<path d="M18.2712 15.9848L20.5464 15.2864C20.7032 15.2384 20.8736 15.2704 21.0024 15.372L22.8672 16.8504C23.1912 17.1072 23.668 16.8808 23.6752 16.468L23.7144 14.0888C23.7168 13.9248 23.8 13.7728 23.9368 13.6816L25.9192 12.3648C26.2632 12.136 26.196 11.612 25.8048 11.4784L23.5536 10.7064C23.3984 10.6528 23.2792 10.5272 23.2352 10.3688L22.5952 8.07681C22.484 7.67921 21.9648 7.58081 21.7168 7.91121L20.2864 9.81361C20.188 9.94481 20.0312 10.0192 19.8672 10.012L17.4896 9.91201C17.0768 9.89441 16.8232 10.3584 17.0608 10.696L18.428 12.644C18.5224 12.7784 18.544 12.9504 18.4872 13.104L17.6576 15.3344C17.5136 15.7216 17.876 16.1056 18.2712 15.9848Z" fill="#FFF3B8"/>
</g>
<defs>
<clipPath id="clip0_10017_281">
<rect width="32" height="32" fill="white"/>
</clipPath>
</defs>
</svg>
