<svg width="20" height="20" viewBox="0 0 20 20" fill="none" xmlns="http://www.w3.org/2000/svg">
<path d="M16.5093 7.92554H2.51285C2.10366 8.86124 1.875 9.89323 1.875 10.9794C1.875 15.1946 5.29289 18.6125 9.50808 18.6125C13.7233 18.6125 17.1412 15.1946 17.1412 10.9794C17.1412 9.89323 16.9125 8.86124 16.5033 7.92554H16.5093Z" fill="#4EB65A"/>
<path d="M6.20483 14.8485C6.74941 15.7601 7.8867 16.6507 10.2606 16.6507C12.6344 16.6507 13.8259 15.718 14.3554 14.7853C10.5133 12.5589 6.59597 14.6319 6.20483 14.8485Z" fill="#3F8F46"/>
<path d="M14.2737 12.9169H6.24646C5.94258 12.9169 5.70188 13.1816 5.74099 13.4855C5.78612 13.8526 5.90647 14.355 6.20433 14.8485C6.59547 14.6288 10.5128 12.5588 14.3549 14.7853C14.6227 14.3099 14.734 13.8375 14.7791 13.4855C14.8183 13.1816 14.5776 12.9169 14.2737 12.9169Z" fill="#212121"/>
<path d="M18.6149 6.97174H16.3312C15.9491 5.93374 15.5309 5.04016 14.6765 4.34515C13.6776 3.5328 11.9115 2.75655 10.4222 2.49178C10.4342 2.4617 10.4402 2.4286 10.4402 2.39551C10.4402 2.10667 9.99793 1.875 9.45034 1.875C8.90276 1.875 8.46048 2.10968 8.46048 2.39551C8.46048 2.42559 8.4665 2.45568 8.47853 2.48577C6.82375 2.76859 4.87411 3.68925 3.78796 4.70318C2.79208 5.63287 2.81013 5.82543 2.38892 8.25044H18.6118C18.8947 8.25044 19.1263 8.01877 19.1263 7.73596V7.48924C19.1263 7.20642 18.8947 6.97475 18.6118 6.97475L18.6149 6.97174Z" fill="#3F8F46"/>
<path d="M7.48604 11.9481C7.37773 11.9481 7.27543 11.891 7.22127 11.7887C7.14605 11.6443 7.20021 11.4637 7.34463 11.3855L9.26719 10.3746L7.34162 9.3727C7.1972 9.29447 7.14004 9.11696 7.21826 8.96953C7.29649 8.8221 7.474 8.76795 7.62143 8.84617L9.53497 9.86011C9.72752 9.97143 9.84185 10.161 9.84486 10.3746C9.84787 10.5852 9.74257 10.7778 9.56204 10.8891L7.62143 11.912C7.5763 11.9361 7.53117 11.9451 7.48303 11.9451L7.48604 11.9481Z" fill="#212121"/>
<path d="M13.7896 11.9482C13.7415 11.9482 13.6964 11.9362 13.6512 11.9151L11.7287 10.9042C11.5301 10.7838 11.4248 10.5913 11.4278 10.3777C11.4308 10.164 11.5421 9.9745 11.7287 9.8692L13.6512 8.84925C13.7956 8.77102 13.9762 8.82819 14.0544 8.9726C14.1326 9.11702 14.0755 9.29754 13.931 9.37577L12.0175 10.3897L13.931 11.3886C14.0755 11.4638 14.1326 11.6443 14.0544 11.7918C14.0002 11.8941 13.8979 11.9512 13.7896 11.9512V11.9482Z" fill="#212121"/>
</svg>
