<svg width="78" height="78" viewBox="0 0 78 78" fill="none" xmlns="http://www.w3.org/2000/svg">
<g clip-path="url(#clip0_1477_7632)">
<path d="M59.4128 38.8551L18.914 25.3564C16.8276 27.6692 15.1706 30.4347 14.1231 33.5775C10.0578 45.7742 16.6511 58.9602 28.8478 63.0255C41.0445 67.0908 54.2305 60.4975 58.2958 48.3008C59.3433 45.158 59.677 41.9514 59.3954 38.8493L59.4128 38.8551Z" fill="#4EB65A"/>
<path d="M22.9222 48.9479C23.6187 52.111 26.0506 55.7847 32.9194 58.0741C39.7882 60.3636 44.1351 58.8139 46.5669 56.6258C37.597 46.4781 24.2629 48.6983 22.9222 48.9479Z" fill="#3F8F46"/>
<path d="M48.1331 51.1415L24.9063 43.3997C24.027 43.1066 23.0752 43.6406 22.8953 44.5576C22.6719 45.6632 22.5355 47.2332 22.9215 48.9482C24.2651 48.6899 37.5963 46.4784 46.5662 56.6261C47.7994 55.5088 48.5771 54.2494 49.0472 53.2744C49.4534 52.4328 49.0123 51.4346 48.1331 51.1415Z" fill="#212121"/>
<path d="M66.4249 38.1254L59.8173 35.923C59.7128 32.551 59.3645 29.5621 57.5624 26.727C55.4555 23.4131 51.0939 19.4637 47.04 17.2612C47.1038 17.1858 47.1531 17.0958 47.1851 17.0001C47.4636 16.1643 46.4073 15.0674 44.8229 14.5393C43.2384 14.0112 41.7324 14.2637 41.4567 15.0907C41.4277 15.1778 41.4161 15.2707 41.4219 15.3693C36.361 14.5917 29.8318 15.3754 25.7112 17.2617C21.9329 18.9912 21.7995 19.5658 18.2419 26.1764L65.183 41.8224C66.0013 42.0952 66.8951 41.6483 67.1679 40.8299L67.4058 40.1161C67.6786 39.2977 67.2317 38.4039 66.4133 38.1312L66.4249 38.1254Z" fill="#A4D4AA"/>
<path d="M29.4285 41.7916C29.1151 41.6871 28.8743 41.423 28.8162 41.0748C28.7378 40.5844 29.0687 40.1143 29.562 40.0272L36.0999 38.9563L31.4945 34.2002C31.1521 33.8346 31.1579 33.2658 31.5264 32.9147C31.8949 32.5636 32.4608 32.5781 32.8119 32.9466L37.3709 37.7259C37.8207 38.2337 37.9687 38.8924 37.7714 39.5134C37.577 40.1257 37.0866 40.5813 36.4568 40.7294L29.8551 41.8177C29.7013 41.8438 29.562 41.8264 29.4227 41.78L29.4285 41.7916Z" fill="#212121"/>
<path d="M47.6669 47.8719C47.5277 47.8255 47.4087 47.7471 47.2984 47.6426L42.7104 42.8633C42.2519 42.3236 42.1329 41.6649 42.3477 41.0497C42.5624 40.4345 43.0673 39.9934 43.7086 39.8686L50.2552 38.7715C50.7486 38.6845 51.2158 39.024 51.3028 39.5173C51.3899 40.0106 51.0504 40.4778 50.5571 40.5649L44.0424 41.6532L48.6158 46.389C48.9612 46.7459 48.9525 47.3234 48.5839 47.6745C48.3286 47.9183 47.9774 47.9851 47.664 47.8806L47.6669 47.8719Z" fill="#212121"/>
</g>
<defs>
<clipPath id="clip0_1477_7632">
<rect width="61" height="61" fill="white" transform="translate(19.2891) rotate(18.4338)"/>
</clipPath>
</defs>
</svg>
