<svg width="24" height="24" viewBox="0 0 24 24" fill="none" xmlns="http://www.w3.org/2000/svg">
<path d="M7.68224 20.3893C7.6603 20.3714 7.63836 20.3554 7.61642 20.3375C7.63737 20.3554 7.6603 20.3714 7.68224 20.3893Z" fill="#263238"/>
<path d="M5.52859 12.084C5.54555 12.0411 5.5605 11.9973 5.57845 11.9554C5.5605 11.9973 5.54654 12.0411 5.52859 12.084Z" fill="#263238"/>
<path d="M6.68909 19.4156C6.62427 19.3388 6.56643 19.2571 6.50461 19.1783C6.56544 19.2581 6.62427 19.3388 6.68909 19.4156Z" fill="#263238"/>
<path d="M7.22388 19.9768C7.15209 19.907 7.08129 19.8362 7.01248 19.7634C7.08129 19.8362 7.15109 19.907 7.22388 19.9768Z" fill="#263238"/>
<path d="M12.1686 21.9969C12.1875 21.9969 12.2065 21.9999 12.2254 21.9999C12.7848 21.9999 13.3273 21.9301 13.8508 21.8094C13.5407 21.8783 13.2276 21.9321 12.9115 21.963C12.6642 21.9869 12.4169 21.9969 12.1686 21.9969Z" fill="#263238"/>
<path d="M14.6239 21.5826C14.4265 21.6494 14.2281 21.7132 14.0256 21.7641C14.2291 21.7122 14.4285 21.6524 14.6239 21.5826Z" fill="#263238"/>
<path d="M5.08365 15.9526C5.10559 16.0872 5.12952 16.2208 5.15844 16.3534C5.38679 17.3835 5.86743 18.3438 6.51261 19.1784C5.80561 18.26 5.31599 17.1681 5.11755 15.9745C5.10658 15.9665 5.09462 15.9606 5.08365 15.9526Z" fill="#263238"/>
<path d="M7.01615 19.7627C6.90845 19.6491 6.80076 19.5354 6.70004 19.4147C6.80076 19.5354 6.90746 19.6491 7.01615 19.7627Z" fill="#263238"/>
<path d="M9.74231 21.5888C10.5171 21.871 11.3388 21.9987 12.1625 21.9967C10.4623 21.9837 8.90368 21.3834 7.67715 20.3873C8.2964 20.8958 8.98844 21.3136 9.74231 21.5878V21.5888Z" fill="#263238"/>
<path d="M7.61484 20.3361C7.47723 20.2224 7.3476 20.0998 7.21896 19.9761C7.3476 20.1008 7.47823 20.2204 7.61484 20.3361Z" fill="#263238"/>
<path d="M19.4482 14.1665C19.3695 13.2382 19.1112 12.3438 18.7253 11.5002C18.128 10.1949 17.2225 9.00926 16.1945 7.99815C15.2102 7.02991 14.0485 6.09757 13.7075 4.76038C13.4791 3.86493 13.6716 2.78502 14.1622 2.00125C13.2348 1.98031 12.0173 2.22062 11.2764 2.82191C10.5863 3.38131 10.0429 4.21693 9.78558 5.06252C9.50139 5.99885 9.56521 7.05284 10.0429 7.90541C10.0478 7.91439 10.0498 7.92535 10.0548 7.93433C10.4328 8.59345 11.037 9.11397 11.3651 9.79502C11.9056 10.5309 12.2287 11.4373 12.2287 12.4205C12.2287 14.8775 10.2373 16.8688 7.78026 16.8688C6.77909 16.8688 5.85969 16.5318 5.11679 15.9734C5.31523 17.166 5.80385 18.2579 6.51184 19.1773C6.57367 19.257 6.63151 19.3378 6.69632 19.4146C6.79704 19.5342 6.90374 19.6489 7.01243 19.7626C7.08123 19.8354 7.15203 19.9062 7.22383 19.976C7.35247 20.0996 7.4821 20.2213 7.61971 20.336C7.64065 20.3539 7.66359 20.3699 7.68552 20.3878C8.91205 21.383 10.4716 21.9833 12.1708 21.9972C12.4181 21.9972 12.6664 21.9872 12.9137 21.9633C12.812 21.5904 12.7532 21.1995 12.7532 20.7946C12.7532 18.3377 14.7446 16.3463 17.2016 16.3463C17.9026 16.3463 18.5628 16.5139 19.1521 16.802C19.1581 16.805 19.1641 16.807 19.17 16.81C19.4243 15.9554 19.527 15.056 19.4512 14.1665H19.4482Z" fill="#570614"/>
<path d="M14.0225 21.7645C13.9647 21.7794 13.9068 21.7954 13.849 21.8093C13.9078 21.7964 13.9647 21.7794 14.0225 21.7645Z" fill="#263238"/>
<path d="M11.3649 9.79524C11.3839 9.83512 11.4058 9.87302 11.4227 9.91291C11.8416 10.9131 11.4796 12.1804 10.5961 12.8076C9.71258 13.4349 8.39631 13.3601 7.59058 12.6351C6.8068 11.9311 6.58842 10.6847 7.06407 9.74738C6.44483 10.3816 5.94026 11.1274 5.58725 11.9551C5.5693 11.998 5.55534 12.0408 5.5374 12.0837C5.42671 12.3579 5.33796 12.6441 5.26018 12.9333C5.24223 13.0001 5.22627 13.0659 5.21032 13.1327C5.16046 13.3441 5.12057 13.5585 5.08866 13.7759C4.97997 14.4968 4.96601 15.2307 5.08168 15.9507C5.09265 15.9587 5.10462 15.9646 5.11559 15.9726C5.85849 16.531 6.77788 16.8681 7.77905 16.8681C10.2361 16.8681 12.2275 14.8767 12.2275 12.4198C12.2275 11.4366 11.9044 10.5311 11.3639 9.79424L11.3649 9.79524Z" fill="#B07F4A"/>
<path d="M19.1537 16.8039C18.5644 16.5147 17.9043 16.3482 17.2033 16.3482C14.7462 16.3482 12.7549 18.3395 12.7549 20.7965C12.7549 21.2014 12.8137 21.5923 12.9154 21.9652C13.2315 21.9343 13.5456 21.8804 13.8547 21.8116C13.9136 21.7977 13.9704 21.7817 14.0282 21.7668C14.2307 21.7169 14.4291 21.6521 14.6266 21.5853C15.3465 21.342 16.0316 20.9999 16.6359 20.5373C17.8494 19.6079 18.7339 18.2747 19.1707 16.8119C19.1647 16.8089 19.1587 16.8069 19.1528 16.8039H19.1537Z" fill="#B07F4A"/>
</svg>
