<svg width="32" height="32" viewBox="0 0 32 32" fill="none" xmlns="http://www.w3.org/2000/svg">
<g clip-path="url(#clip0_10017_264)">
<path d="M27.6985 2.61521C28.1568 2.35041 28.7585 2.55201 28.9425 3.04801C29.9256 5.69921 28.8856 8.75041 26.3544 10.212C23.8232 11.6736 20.66 11.0488 18.856 8.87121C18.5184 8.46321 18.6448 7.84161 19.1032 7.57681L27.6985 2.61441V2.61521Z" fill="#B3202D"/>
<path d="M4.30166 2.61521C3.84326 2.35041 3.24166 2.55201 3.05766 3.04801C2.07446 5.69921 3.11446 8.75041 5.64566 10.212C8.17686 11.6736 11.3401 11.0488 13.1441 8.87121C13.4817 8.46321 13.3553 7.84161 12.8969 7.57681L4.30166 2.61521Z" fill="#B3202D"/>
<path d="M16 29.6C23.5111 29.6 29.6 23.5111 29.6 16C29.6 8.48892 23.5111 2.39999 16 2.39999C8.48895 2.39999 2.40002 8.48892 2.40002 16C2.40002 23.5111 8.48895 29.6 16 29.6Z" fill="#E32939"/>
<path d="M19.6881 21.1304C20.6177 21.1304 21.3713 20.3768 21.3713 19.4472C21.3713 18.5176 20.6177 17.764 19.6881 17.764C18.7585 17.764 18.0049 18.5176 18.0049 19.4472C18.0049 20.3768 18.7585 21.1304 19.6881 21.1304Z" fill="black"/>
<path d="M19.4001 17.4304C18.3081 18.0608 17.9417 18.9704 18.0169 19.576C18.0521 19.8568 18.2497 19.8816 18.4169 19.6408C18.6817 19.2592 19.2241 18.9576 20.0697 18.4688C20.8409 17.6976 21.7273 17.3856 22.0425 17.284C22.3209 17.1944 22.3521 16.98 22.1017 16.9176C21.6273 16.8 20.4921 16.8 19.4001 17.4304Z" fill="black"/>
<path d="M12.312 21.1304C13.2416 21.1304 13.9952 20.3768 13.9952 19.4472C13.9952 18.5176 13.2416 17.764 12.312 17.764C11.3824 17.764 10.6288 18.5176 10.6288 19.4472C10.6288 20.3768 11.3824 21.1304 12.312 21.1304Z" fill="black"/>
<path d="M12.6 17.4304C13.692 18.0608 14.0584 18.9704 13.9832 19.576C13.948 19.8568 13.7504 19.8816 13.5832 19.6408C13.3184 19.2592 12.776 18.9576 11.9304 18.4688C11.1592 17.6976 10.2728 17.3856 9.95762 17.284C9.67922 17.1944 9.64802 16.98 9.89842 16.9176C10.3728 16.8 11.5072 16.8 12.5992 17.4304" fill="black"/>
<path d="M16.0001 24.3968C14.8553 24.3968 13.9617 24.5944 13.3513 24.7944C13.0353 24.8976 12.7761 24.5216 12.9825 24.2608C13.5329 23.5624 14.5033 22.7312 16.0001 22.7312C17.4969 22.7312 18.4673 23.5624 19.0177 24.2608C19.2241 24.5224 18.9649 24.8984 18.6489 24.7944C18.0393 24.5952 17.1457 24.3968 16.0001 24.3968Z" fill="#731019"/>
</g>
<defs>
<clipPath id="clip0_10017_264">
<rect width="32" height="32" fill="white"/>
</clipPath>
</defs>
</svg>
