<svg width="84" height="114" viewBox="0 0 84 114" fill="none" xmlns="http://www.w3.org/2000/svg">
<ellipse cx="42" cy="99.7188" rx="41.5" ry="14" fill="#757575"/>
<path d="M41.4993 100.124C54.7526 100.124 65.4965 89.3801 65.4965 76.1267C65.4965 62.8734 54.7526 52.1294 41.4993 52.1294C28.2459 52.1294 17.502 62.8734 17.502 76.1267C17.502 89.3801 28.2459 100.124 41.4993 100.124Z" fill="#F5F5F5"/>
<mask id="mask0_2059_4468" style="mask-type:luminance" maskUnits="userSpaceOnUse" x="17" y="52" width="49" height="49">
<path d="M41.5032 100.124C54.7565 100.124 65.5005 89.3797 65.5005 76.1264C65.5005 62.873 54.7565 52.1291 41.5032 52.1291C28.2498 52.1291 17.5059 62.873 17.5059 76.1264C17.5059 89.3797 28.2498 100.124 41.5032 100.124Z" fill="white"/>
</mask>
<g mask="url(#mask0_2059_4468)">
<path d="M63.5549 73.5004C63.5799 73.5004 63.6049 73.4988 63.6299 73.4942C64.8183 73.3099 65.5288 73.249 65.5366 73.249C65.8052 73.2271 66.0067 72.9898 65.9848 72.7212C65.963 72.451 65.7287 72.2386 65.457 72.273C65.4273 72.2761 64.7074 72.3354 63.4816 72.526C63.2145 72.5681 63.0303 72.818 63.0724 73.085C63.1099 73.3271 63.3191 73.5004 63.5565 73.5004H63.5549Z" fill="#9E9E9E"/>
<path d="M33.2544 95.6722C32.9952 95.5957 32.8468 95.324 32.9218 95.0648C33.3013 93.7718 33.7775 92.5053 34.335 91.3013C34.449 91.0561 34.7395 90.9499 34.9862 91.0639C35.2314 91.1779 35.3376 91.4684 35.2236 91.7151C34.6848 92.8754 34.2273 94.0966 33.8619 95.3427C33.7994 95.5567 33.6042 95.6941 33.3918 95.6941C33.3465 95.6941 33.2997 95.6879 33.2544 95.6738V95.6722ZM36.4401 88.4701C36.2152 88.3202 36.1528 88.0157 36.3027 87.7908C37.0351 86.6898 37.8643 85.6217 38.7716 84.616C38.9527 84.4161 39.2619 84.4005 39.4634 84.5801C39.6648 84.7613 39.6804 85.0704 39.4993 85.2719C38.6248 86.2417 37.8237 87.2708 37.1194 88.3327C37.0241 88.4748 36.8695 88.5513 36.7103 88.5513C36.6166 88.5513 36.5229 88.5247 36.4401 88.4701ZM41.6012 82.5157C41.4263 82.3095 41.4513 82.0003 41.659 81.8254C42.6538 80.9821 43.736 80.1748 44.8728 79.4252C45.0992 79.2769 45.4022 79.3378 45.5521 79.5642C45.7005 79.7906 45.638 80.0936 45.4131 80.2435C44.3091 80.9712 43.2597 81.7567 42.293 82.5734C42.2009 82.6515 42.0885 82.689 41.9776 82.689C41.8386 82.689 41.6996 82.6297 41.6028 82.5157H41.6012ZM48.1194 78.0619C47.9945 77.8214 48.0882 77.5263 48.3271 77.4014C49.4764 76.8033 50.6992 76.238 51.9578 75.7226C52.2077 75.6211 52.495 75.7398 52.5965 75.9897C52.6996 76.2395 52.5794 76.5269 52.3295 76.6284C51.0974 77.1328 49.9028 77.684 48.78 78.2696C48.7081 78.3071 48.63 78.3258 48.5535 78.3258C48.3771 78.3258 48.2053 78.229 48.1178 78.0619H48.1194ZM55.3965 74.9777C55.3137 74.7201 55.4574 74.4452 55.7151 74.3625C56.9691 73.9643 58.2636 73.6051 59.5629 73.2975C59.8252 73.235 60.0907 73.3974 60.1532 73.6613C60.2157 73.9252 60.0532 74.1891 59.7893 74.2516C58.5135 74.5545 57.2423 74.9059 56.0118 75.2963C55.9618 75.3119 55.9134 75.3197 55.8634 75.3197C55.6557 75.3197 55.4621 75.187 55.3965 74.9777Z" fill="#9E9E9E"/>
<path d="M32.3188 101.513C32.5702 101.513 32.7841 101.321 32.806 101.065C32.8622 100.41 32.9372 99.7716 33.0309 99.1486C33.0715 98.8815 32.8856 98.6317 32.6186 98.5911C32.3547 98.5536 32.1017 98.7363 32.0611 99.0033C31.9643 99.6467 31.8878 100.306 31.83 100.98C31.8066 101.25 32.0065 101.486 32.2766 101.51C32.2907 101.51 32.3047 101.511 32.3188 101.511V101.513Z" fill="#9E9E9E"/>
<path d="M17.0602 76.3307C16.9477 76.084 17.0555 75.7935 17.3007 75.6811L17.4115 75.6311C17.6598 75.5202 17.9487 75.6342 18.058 75.8794C18.1674 76.1262 18.058 76.4166 17.8097 76.5259L17.7098 76.5712C17.6442 76.6009 17.5739 76.6165 17.5052 76.6165C17.3194 76.6165 17.1414 76.5103 17.0602 76.3307ZM20.6862 74.5677C20.5566 74.3303 20.6425 74.032 20.8799 73.9024C22.0074 73.284 23.1255 72.6125 24.2045 71.9051C24.4294 71.7552 24.7355 71.8192 24.8823 72.0472C25.0306 72.2736 24.9682 72.5766 24.7402 72.725C23.6392 73.4464 22.4993 74.1304 21.3499 74.7613C21.275 74.8019 21.1938 74.8222 21.1157 74.8222C20.9423 74.8222 20.7752 74.7301 20.6862 74.5677ZM27.2778 70.3435C27.1123 70.1296 27.1529 69.8219 27.3668 69.6564C28.3803 68.8756 29.3844 68.0401 30.3495 67.1719C30.5509 66.9907 30.8601 67.0079 31.0413 67.2093C31.2224 67.4108 31.2053 67.72 31.0038 67.9011C30.02 68.7834 28.9971 69.6361 27.9649 70.4309C27.8759 70.4997 27.7713 70.5325 27.6666 70.5325C27.5199 70.5325 27.3746 70.4669 27.2778 70.3419V70.3435ZM33.1557 65.1683C32.9605 64.9809 32.9558 64.6702 33.1432 64.4765C34.0333 63.5536 34.9063 62.5807 35.7386 61.5844C35.912 61.3767 36.2212 61.3502 36.4289 61.5235C36.6365 61.6969 36.6631 62.006 36.4898 62.2137C35.6418 63.2272 34.7532 64.2173 33.8475 65.1558C33.7507 65.2558 33.6226 65.3057 33.4946 65.3057C33.3665 65.3057 33.2494 65.2604 33.1542 65.1683H33.1557ZM38.2372 59.2029C38.0186 59.0437 37.9702 58.7376 38.1279 58.519C38.8884 57.4711 39.6208 56.3874 40.3032 55.2958C40.4469 55.0662 40.7498 54.996 40.9778 55.1396C41.2074 55.2833 41.2761 55.5863 41.134 55.8143C40.4391 56.923 39.6958 58.0271 38.9212 59.0921C38.8259 59.2248 38.676 59.2951 38.5245 59.2951C38.4246 59.2951 38.3247 59.2639 38.2372 59.2014V59.2029ZM42.4504 52.5911C42.2115 52.4646 42.1194 52.1679 42.2459 51.929C43.3671 49.8067 43.8871 48.4434 43.8918 48.4294C43.9886 48.1764 44.2713 48.0484 44.5227 48.1436C44.7757 48.2404 44.9037 48.5215 44.8085 48.7745C44.7866 48.8323 44.265 50.2034 43.111 52.3865C43.0235 52.552 42.8533 52.6473 42.6769 52.6473C42.6003 52.6473 42.5207 52.6286 42.4489 52.5895L42.4504 52.5911Z" fill="#9E9E9E"/>
</g>
<path d="M55.875 0C59.4539 0 62.3555 2.90155 62.3555 6.48047V28.8779C62.3555 32.4568 59.4539 35.3584 55.875 35.3584H47.5645L44.665 40.3828H44.6641C44.2551 41.0896 43.2353 41.0894 42.8262 40.3828L39.9258 35.3584H31.6211C28.0422 35.3584 25.1406 32.4568 25.1406 28.8779V6.48047C25.1406 2.90155 28.0422 0 31.6211 0H55.875Z" fill="#757575"/>
<path d="M42.4007 27.6413C41.995 27.4023 41.6769 27.0859 41.4463 26.692C41.214 26.2982 41.1029 25.8622 41.1097 25.3859C41.1029 24.9163 41.2157 24.4837 41.4463 24.0899C41.6769 23.696 41.9967 23.3812 42.4007 23.1506C42.8063 22.9201 43.2456 22.8039 43.7236 22.8039C44.2016 22.8039 44.609 22.9201 45.0096 23.1506C45.4118 23.3829 45.7316 23.6977 45.969 24.0949C46.208 24.4938 46.3292 24.923 46.3359 25.3859C46.3292 25.8555 46.2063 26.2898 45.969 26.687C45.73 27.0859 45.4102 27.404 45.0096 27.6413C44.6073 27.8803 44.1798 27.9982 43.7236 27.9982C43.2675 27.9982 42.8063 27.8787 42.4007 27.6413ZM45.7754 21.3328H41.6617L41.2123 6.80371H46.2248L45.7754 21.3328Z" fill="white"/>
</svg>
