<svg width="24" height="24" viewBox="0 0 24 24" fill="none" xmlns="http://www.w3.org/2000/svg">
<path d="M7.59344 20.3893C7.57222 20.3714 7.551 20.3554 7.52979 20.3375C7.55004 20.3554 7.57222 20.3714 7.59344 20.3893Z" fill="#263238"/>
<path d="M5.51044 12.084C5.52683 12.0411 5.5413 11.9973 5.55866 11.9554C5.5413 11.9973 5.5278 12.0411 5.51044 12.084Z" fill="#263238"/>
<path d="M6.63283 19.4156C6.57014 19.3388 6.5142 19.2571 6.45441 19.1783C6.51324 19.2581 6.57014 19.3388 6.63283 19.4156Z" fill="#263238"/>
<path d="M7.15008 19.9768C7.08064 19.907 7.01217 19.8362 6.94562 19.7634C7.01217 19.8362 7.07968 19.907 7.15008 19.9768Z" fill="#263238"/>
<path d="M11.9326 21.9969C11.9509 21.9969 11.9692 21.9999 11.9875 21.9999C12.5286 21.9999 13.0533 21.9301 13.5596 21.8094C13.2597 21.8783 12.9568 21.9321 12.6511 21.963C12.4119 21.9869 12.1727 21.9969 11.9326 21.9969Z" fill="#263238"/>
<path d="M14.3074 21.5826C14.1164 21.6494 13.9245 21.7132 13.7287 21.7641C13.9254 21.7122 14.1183 21.6524 14.3074 21.5826Z" fill="#263238"/>
<path d="M5.08008 15.9526C5.1013 16.0872 5.12444 16.2208 5.15241 16.3534C5.37328 17.3835 5.83815 18.3438 6.46216 19.1784C5.77835 18.26 5.3048 17.1681 5.11287 15.9745C5.10226 15.9665 5.09069 15.9606 5.08008 15.9526Z" fill="#263238"/>
<path d="M6.94917 19.7627C6.84501 19.6491 6.74084 19.5354 6.64343 19.4147C6.74084 19.5354 6.84404 19.6491 6.94917 19.7627Z" fill="#263238"/>
<path d="M9.58591 21.5888C10.3353 21.871 11.13 21.9987 11.9267 21.9967C10.2822 21.9837 8.77479 21.3834 7.5885 20.3873C8.18743 20.8958 8.85677 21.3136 9.58591 21.5878V21.5888Z" fill="#263238"/>
<path d="M7.52822 20.3361C7.39512 20.2224 7.26974 20.0998 7.14532 19.9761C7.26974 20.1008 7.39609 20.2204 7.52822 20.3361Z" fill="#263238"/>
<path d="M18.9734 14.1665C18.8972 13.2382 18.6474 12.3438 18.2742 11.5002C17.6965 10.1949 16.8207 9.00926 15.8264 7.99815C14.8744 7.02991 13.7508 6.09757 13.421 4.76038C13.2001 3.86493 13.3863 2.78502 13.8608 2.00125C12.9638 1.98031 11.7862 2.22062 11.0696 2.82191C10.4022 3.38131 9.87658 4.21693 9.62775 5.06252C9.35287 5.99885 9.4146 7.05284 9.87658 7.90541C9.8814 7.91439 9.88333 7.92535 9.88815 7.93433C10.2537 8.59345 10.8382 9.11397 11.1555 9.79502C11.6782 10.5309 11.9907 11.4373 11.9907 12.4205C11.9907 14.8775 10.0647 16.8688 7.68821 16.8688C6.71989 16.8688 5.83065 16.5318 5.11212 15.9734C5.30405 17.166 5.77664 18.2579 6.46141 19.1773C6.52121 19.257 6.57714 19.3378 6.63983 19.4146C6.73724 19.5342 6.84044 19.6489 6.94557 19.7626C7.01212 19.8354 7.0806 19.9062 7.15004 19.976C7.27445 20.0996 7.39983 20.2213 7.53293 20.336C7.55318 20.3539 7.57537 20.3699 7.59658 20.3878C8.78288 21.383 10.2913 21.9833 11.9347 21.9972C12.1739 21.9972 12.4141 21.9872 12.6533 21.9633C12.5549 21.5904 12.498 21.1995 12.498 20.7946C12.498 18.3377 14.424 16.3463 16.8005 16.3463C17.4785 16.3463 18.117 16.5139 18.687 16.802C18.6928 16.805 18.6985 16.807 18.7043 16.81C18.9503 15.9554 19.0496 15.056 18.9763 14.1665H18.9734Z" fill="#325288"/>
<path d="M13.7257 21.7645C13.6697 21.7794 13.6138 21.7954 13.5579 21.8093C13.6148 21.7964 13.6697 21.7794 13.7257 21.7645Z" fill="#263238"/>
<path d="M11.1553 9.79524C11.1736 9.83512 11.1948 9.87302 11.2112 9.91291C11.6163 10.9131 11.2662 12.1804 10.4117 12.8076C9.55715 13.4349 8.28406 13.3601 7.50477 12.6351C6.7467 11.9311 6.53548 10.6847 6.99553 9.74738C6.3966 10.3816 5.90858 11.1274 5.56716 11.9551C5.5498 11.998 5.5363 12.0408 5.51894 12.0837C5.41188 12.3579 5.32605 12.6441 5.25082 12.9333C5.23346 13.0001 5.21802 13.0659 5.20259 13.1327C5.15437 13.3441 5.11579 13.5585 5.08493 13.7759C4.9798 14.4968 4.9663 15.2307 5.07818 15.9507C5.08879 15.9587 5.10036 15.9646 5.11097 15.9726C5.8295 16.531 6.71873 16.8681 7.68705 16.8681C10.0635 16.8681 11.9895 14.8767 11.9895 12.4198C11.9895 11.4366 11.677 10.5311 11.1543 9.79424L11.1553 9.79524Z" fill="#AF917B"/>
<path d="M18.6886 16.8039C18.1186 16.5147 17.4801 16.3482 16.8021 16.3482C14.4257 16.3482 12.4996 18.3395 12.4996 20.7965C12.4996 21.2014 12.5565 21.5922 12.6549 21.9652C12.9606 21.9343 13.2645 21.8804 13.5634 21.8116C13.6203 21.7977 13.6753 21.7817 13.7313 21.7668C13.927 21.7169 14.119 21.6521 14.3099 21.5853C15.0063 21.342 15.6689 20.9999 16.2533 20.5373C17.4271 19.6079 18.2826 18.2747 18.705 16.8119C18.6992 16.8089 18.6934 16.8069 18.6876 16.8039H18.6886Z" fill="#AF917B"/>
</svg>
