<svg width="84" height="84" viewBox="0 0 84 84" fill="none" xmlns="http://www.w3.org/2000/svg">
<path d="M0 42C0 18.804 18.804 0 42 0C65.196 0 84 18.804 84 42C84 65.196 65.196 84 42 84C18.804 84 0 65.196 0 42Z" fill="url(#paint0_linear_10011_1819)"/>
<path d="M2 42C2 19.9086 19.9086 2 42 2C64.0914 2 82 19.9086 82 42C82 64.0914 64.0914 82 42 82C19.9086 82 2 64.0914 2 42Z" fill="#030303"/>
<circle cx="42" cy="42" r="36" fill="white"/>
<path d="M33.1555 55.3779C33.1143 55.3436 33.0709 55.3139 33.0297 55.2795C33.0709 55.3139 33.1143 55.3459 33.1555 55.3779Z" fill="#263238"/>
<path d="M29.0314 39.4192C29.0634 39.3368 29.0932 39.2544 29.1252 39.172C29.0909 39.2521 29.0634 39.3368 29.0314 39.4192Z" fill="#263238"/>
<path d="M31.256 53.5081C31.1324 53.3593 31.0203 53.2037 30.9012 53.0527C31.018 53.206 31.1324 53.3616 31.256 53.5081Z" fill="#263238"/>
<path d="M32.2698 54.5861C32.1325 54.451 31.9975 54.316 31.8647 54.1764C31.9975 54.316 32.1325 54.4533 32.2698 54.5861Z" fill="#263238"/>
<path d="M41.7769 58.4699C41.8135 58.4699 41.8501 58.4745 41.8867 58.4745C42.9624 58.4745 44.006 58.3394 45.0107 58.1083C44.4157 58.241 43.8115 58.344 43.205 58.4035C42.7312 58.4493 42.2529 58.4676 41.7769 58.4699Z" fill="#263238"/>
<path d="M46.4937 57.6757C46.1138 57.8039 45.7339 57.9275 45.3448 58.0236C45.7362 57.9229 46.1184 57.8085 46.4937 57.6757Z" fill="#263238"/>
<path d="M28.1571 46.8527C28.1983 47.1114 28.2441 47.3677 28.3013 47.6217C28.7407 49.6014 29.663 51.4483 30.9035 53.0504C29.544 51.2858 28.6057 49.1872 28.2235 46.8939C28.2029 46.8779 28.1777 46.8665 28.1571 46.8504V46.8527Z" fill="#263238"/>
<path d="M31.8648 54.1764C31.6565 53.959 31.4505 53.7393 31.2583 53.5081C31.4528 53.7393 31.6565 53.9567 31.8648 54.1764Z" fill="#263238"/>
<path d="M37.1263 57.6849C38.6162 58.2273 40.1954 58.4722 41.7768 58.4699C38.5109 58.4447 35.5151 57.2913 33.1555 55.3779C34.3456 56.3552 35.6776 57.1585 37.124 57.6849H37.1263Z" fill="#263238"/>
<path d="M33.0297 55.2772C32.7665 55.0575 32.5148 54.8241 32.2699 54.5861C32.5171 54.8264 32.7688 55.0575 33.0297 55.2772Z" fill="#263238"/>
<path d="M55.7674 43.4198C55.6164 41.6346 55.1197 39.9181 54.3782 38.2955C53.2293 35.7871 51.4899 33.5076 49.5126 31.5646C47.6221 29.7039 45.3884 27.9119 44.7316 25.3417C44.2921 23.6207 44.6629 21.5083 45.6058 20.0023C43.823 19.9611 41.484 20.4624 40.0582 21.6181C38.7307 22.6938 37.6871 24.2981 37.1928 25.9254C36.6458 27.7242 36.7694 29.7497 37.6871 31.3884C37.6963 31.4067 37.7008 31.425 37.71 31.4433C38.4355 32.7112 39.5981 33.7113 40.2275 35.0204C41.2666 36.4348 41.8868 38.1765 41.8868 40.0669C41.8868 44.7884 38.0602 48.615 33.3387 48.615C31.4139 48.615 29.6471 47.9673 28.219 46.8939C28.6012 49.1872 29.5395 51.2858 30.899 53.0504C31.018 53.2037 31.1302 53.3593 31.2537 53.5058C31.4483 53.737 31.6542 53.9567 31.8602 54.1741C31.993 54.3137 32.128 54.451 32.2653 54.5838C32.5125 54.8218 32.762 55.0552 33.0252 55.2749C33.0663 55.3093 33.1098 55.3413 33.151 55.3734C35.5083 57.2867 38.5042 58.4401 41.7723 58.4653C42.2484 58.4653 42.7244 58.4447 43.2005 58.3989C43.0059 57.6826 42.8915 56.9319 42.8915 56.1538C42.8915 51.4323 46.7181 47.6057 51.4396 47.6057C52.7853 47.6057 54.0555 47.9261 55.1884 48.4822C55.1998 48.4868 55.2113 48.4914 55.2227 48.496C55.7125 46.8527 55.9093 45.1248 55.7628 43.4152L55.7674 43.4198Z" fill="#616161"/>
<path d="M45.3449 58.0236C45.2327 58.0534 45.1229 58.0831 45.0107 58.1106C45.1229 58.0854 45.2327 58.0534 45.3449 58.0236Z" fill="#263238"/>
<path d="M40.232 35.0204C40.2687 35.096 40.3099 35.1692 40.3419 35.247C41.1475 37.1695 40.4518 39.6046 38.7513 40.8107C37.0531 42.0168 34.5242 41.8704 32.9747 40.4789C31.4688 39.124 31.05 36.7301 31.9632 34.9289C30.7731 36.1487 29.8027 37.5814 29.1253 39.172C29.0909 39.2544 29.0634 39.3368 29.0314 39.4192C28.8186 39.9479 28.6492 40.4949 28.4981 41.0533C28.4638 41.1815 28.4341 41.3073 28.402 41.4355C28.3059 41.8406 28.2281 42.2526 28.1686 42.6714C27.9603 44.056 27.9329 45.4681 28.1549 46.8527C28.1755 46.8688 28.2006 46.8802 28.2212 46.8962C29.6493 47.9696 31.4162 48.6173 33.3409 48.6173C38.0624 48.6173 41.889 44.7907 41.889 40.0692C41.889 38.1788 41.2688 36.4394 40.2298 35.0227L40.232 35.0204Z" fill="#263238"/>
<path d="M55.1929 48.4868C54.06 47.9307 52.7898 47.6103 51.4441 47.6103C46.7226 47.6103 42.896 51.4369 42.896 56.1584C42.896 56.9365 43.0081 57.6872 43.205 58.4035C43.8114 58.344 44.4157 58.241 45.0107 58.1083C45.1228 58.0831 45.2327 58.0511 45.3448 58.0213C45.7339 57.9252 46.1161 57.8016 46.4937 57.6735C47.8761 57.2043 49.1943 56.5497 50.357 55.6594C52.6891 53.8743 54.3896 51.311 55.2272 48.4983C55.2158 48.4937 55.2043 48.4891 55.1929 48.4845V48.4868Z" fill="#E0E0E0"/>
<circle cx="70" cy="62" r="13" fill="#333333" stroke="white" stroke-width="2"/>
<path d="M70 56V68" stroke="white"/>
<path d="M76 62L64 62" stroke="white"/>
<defs>
<linearGradient id="paint0_linear_10011_1819" x1="42" y1="0" x2="42" y2="84" gradientUnits="userSpaceOnUse">
<stop stop-color="#C3F0EC"/>
<stop offset="1" stop-color="#17A093"/>
</linearGradient>
</defs>
</svg>
