<svg width="80" height="22" viewBox="0 0 80 22" fill="none" xmlns="http://www.w3.org/2000/svg">
<path d="M22.363 7.52684C22.7929 7.05154 23.3346 6.67991 23.9869 6.41314C24.6382 6.14636 25.3721 6.01355 26.1887 6.01355C26.8469 6.01355 27.4818 6.14636 28.0946 6.41314C28.7062 6.67875 29.2502 7.04804 29.7267 7.51869C30.202 7.98933 30.5818 8.55085 30.8661 9.20206C31.1503 9.85444 31.2913 10.5651 31.2913 11.3363C31.2913 12.1075 31.1526 12.7797 30.8754 13.4192C30.5981 14.06 30.2265 14.6122 29.7617 15.0781C29.2968 15.543 28.7551 15.9111 28.1377 16.1837C27.5191 16.4563 26.8644 16.5973 26.1736 16.6089C25.7996 16.6194 25.4245 16.5891 25.0517 16.5157C24.6766 16.4423 24.3201 16.334 23.9799 16.193C23.6398 16.0509 23.3217 15.875 23.0282 15.6653C22.7334 15.4556 22.4783 15.2203 22.2628 14.9593L21.9564 16.2687H19.6777V5.57203C19.6777 4.08787 20.8811 2.88446 22.3653 2.88446V7.52684H22.363ZM25.6458 14.5341C26.0536 14.5341 26.4392 14.4607 26.8015 14.3139C27.1638 14.166 27.4795 13.9539 27.7463 13.6767C28.0119 13.3994 28.2216 13.0616 28.3754 12.6643C28.5291 12.2671 28.606 11.8256 28.606 11.3374C28.606 10.8493 28.5291 10.374 28.3754 9.97676C28.2216 9.57951 28.0131 9.24283 27.7463 8.96441C27.4795 8.68715 27.165 8.47396 26.8015 8.32717C26.438 8.18039 26.0536 8.10583 25.6458 8.10583C25.2381 8.10583 24.8525 8.17922 24.4902 8.32717C24.1267 8.47512 23.8122 8.68715 23.5454 8.96441C23.2786 9.24167 23.0701 9.57951 22.9163 9.97676C22.7626 10.374 22.6857 10.8272 22.6857 11.3374C22.6857 11.8477 22.7626 12.2671 22.9163 12.6643C23.0701 13.0616 23.2786 13.3983 23.5454 13.6767C23.8122 13.9551 24.1256 14.1671 24.4902 14.3139C24.8525 14.4607 25.2369 14.5341 25.6458 14.5341Z" fill="white"/>
<path d="M42.945 6.35372H44.0307V16.2687H41.752L41.4282 14.9593C41.2243 15.2203 40.975 15.4544 40.6803 15.6653C40.3855 15.875 40.0652 16.0509 39.7192 16.193C39.3732 16.334 39.0132 16.4423 38.6393 16.5157C38.2653 16.5891 37.8972 16.6205 37.5337 16.6089C36.8417 16.5972 36.187 16.4563 35.5696 16.1837C34.951 15.9122 34.4069 15.543 33.9375 15.0781C33.4656 14.6133 33.0952 14.0611 32.8238 13.4192C32.5512 12.7797 32.416 12.0842 32.416 11.3363C32.416 10.5884 32.557 9.85444 32.8412 9.20206C33.1243 8.55084 33.5041 7.98933 33.9806 7.51868C34.457 7.04804 35.0011 6.67991 35.6138 6.41313C36.2254 6.14636 36.8604 6.01355 37.5174 6.01355C38.334 6.01355 39.0773 6.14985 39.746 6.42129C40.4147 6.69389 40.9587 7.07949 41.3781 7.57693C41.5575 6.85698 42.204 6.35255 42.9461 6.35255L42.945 6.35372ZM38.0614 14.5341C38.4692 14.5341 38.8548 14.4607 39.2171 14.3139C39.5805 14.166 39.8951 13.9539 40.1607 13.6767C40.4263 13.3994 40.6372 13.0616 40.7898 12.6643C40.9424 12.2671 41.0193 11.8256 41.0193 11.3374C41.0193 10.8493 40.9424 10.374 40.7898 9.97676C40.6372 9.5795 40.4263 9.24283 40.1607 8.9644C39.8951 8.68598 39.5805 8.47395 39.2171 8.32717C38.8536 8.18038 38.4692 8.10583 38.0614 8.10583C37.6537 8.10583 37.2669 8.17922 36.9046 8.32717C36.5423 8.47512 36.2266 8.68714 35.961 8.9644C35.6942 9.24167 35.4845 9.5795 35.3319 9.97676C35.1793 10.374 35.1024 10.8272 35.1024 11.3374C35.1024 11.8477 35.1793 12.2671 35.3319 12.6643C35.4845 13.0616 35.6942 13.3983 35.961 13.6767C36.2266 13.9539 36.5423 14.1671 36.9046 14.3139C37.2669 14.4607 37.6537 14.5341 38.0614 14.5341Z" fill="white"/>
<path d="M48.9444 2.88446V16.2687H46.2568V5.57203C46.2568 4.08787 47.4602 2.88446 48.9444 2.88446Z" fill="white"/>
<path d="M53.8585 2.88446V16.2687H51.1709V5.57203C51.1709 4.08787 52.3743 2.88446 53.8585 2.88446Z" fill="white"/>
<path d="M55.4922 11.3362C55.4922 10.4975 55.6448 9.73791 55.9512 9.05758C56.2576 8.37724 56.6735 7.79825 57.2012 7.32294C57.7289 6.84764 58.344 6.48067 59.0465 6.22671C59.749 5.97275 60.498 5.8446 61.2914 5.8446C62.0847 5.8446 62.8163 5.97159 63.52 6.22671C64.2236 6.48184 64.8375 6.84764 65.3653 7.32294C65.893 7.79941 66.3124 8.37724 66.6246 9.05758C66.9356 9.73675 67.0917 10.4975 67.0917 11.3362C67.0917 12.175 66.9356 12.9299 66.6246 13.5986C66.3135 14.2673 65.8942 14.837 65.3653 15.3076C64.8387 15.7783 64.2236 16.1406 63.52 16.3957C62.8163 16.6508 62.0742 16.7778 61.2914 16.7778C60.5085 16.7778 59.7501 16.6508 59.0465 16.3957C58.3429 16.1406 57.7289 15.7771 57.2012 15.3076C56.6735 14.837 56.2576 14.2673 55.9512 13.5986C55.6448 12.9288 55.4922 12.1762 55.4922 11.3362ZM61.2914 14.7216C61.7341 14.7216 62.1476 14.6389 62.5332 14.4747C62.9188 14.3104 63.2497 14.0786 63.5281 13.778C63.8065 13.4774 64.0244 13.1198 64.1828 12.7062C64.3413 12.2927 64.4216 11.836 64.4216 11.3374C64.4216 10.8388 64.3413 10.36 64.1828 9.93479C64.0244 9.50958 63.8054 9.15077 63.5281 8.85487C63.2509 8.55897 62.9188 8.33064 62.5332 8.16638C62.1476 8.00212 61.7341 7.91941 61.2914 7.91941C60.8487 7.91941 60.4212 8.00445 60.0414 8.17453C59.6616 8.34462 59.3331 8.57994 59.0547 8.8805C58.7774 9.18106 58.5584 9.54104 58.3999 9.96042C58.2415 10.3798 58.1623 10.8388 58.1623 11.3374C58.1623 11.836 58.2415 12.2927 58.3999 12.7062C58.5584 13.121 58.7774 13.4774 59.0547 13.778C59.3319 14.0786 59.6616 14.3104 60.0414 14.4747C60.4212 14.6389 60.837 14.7216 61.2914 14.7216Z" fill="white"/>
<path d="M79.9985 15.8435C79.9985 16.6368 79.8657 17.3486 79.5989 17.9777C79.3321 18.6068 78.9617 19.145 78.4852 19.5935C78.0087 20.0409 77.4426 20.3892 76.7843 20.6397C76.1261 20.889 75.4074 21.0194 74.6245 21.0311C73.8987 21.0544 73.2044 20.9856 72.5415 20.8272C71.8787 20.6688 71.2857 20.4241 70.7638 20.0956C70.2419 19.7671 69.812 19.3454 69.4707 18.8281C69.4672 18.8235 69.4637 18.8176 69.4602 18.813C68.9476 18.0266 69.5721 16.984 70.511 16.984H71.5805C71.6247 17.6294 71.8892 18.1233 72.3703 18.4635C72.8514 18.8037 73.4735 18.9738 74.2331 18.9738C74.6746 18.9738 75.0835 18.912 75.4575 18.7874C75.8314 18.6627 76.1576 18.4693 76.4349 18.2095C76.7133 17.9486 76.9288 17.6224 77.0814 17.2321C77.234 16.8407 77.3109 16.3736 77.3109 15.8284V14.6378C76.8915 15.1934 76.3475 15.6047 75.6776 15.8715C75.0089 16.1371 74.2832 16.271 73.5015 16.271C72.8095 16.271 72.1548 16.1464 71.5373 15.8971C70.9188 15.6478 70.3747 15.296 69.9052 14.8428C69.4334 14.3896 69.063 13.8502 68.7915 13.2282C68.5189 12.6037 68.3838 11.9187 68.3838 11.1708C68.3838 10.4229 68.5247 9.69714 68.809 9.06224C69.0932 8.42733 69.4719 7.88562 69.9483 7.43828C70.4248 6.99093 70.9688 6.64144 71.5816 6.39214C72.1932 6.14284 72.8281 6.01819 73.4852 6.01819C74.3018 6.01819 75.0451 6.15449 75.7137 6.42593C76.3824 6.69853 76.9265 7.08413 77.3459 7.58157C77.5253 6.86162 78.1718 6.35719 78.9139 6.35719H79.9997V15.847L79.9985 15.8435ZM74.0292 14.1939C74.4369 14.1939 74.8225 14.1205 75.1849 13.9726C75.5483 13.8258 75.8629 13.6184 76.1285 13.3516C76.3941 13.0849 76.6049 12.7645 76.7576 12.3905C76.9102 12.0166 76.9871 11.6077 76.9871 11.1662C76.9871 10.7013 76.9102 10.282 76.7576 9.90684C76.6049 9.53288 76.3941 9.21252 76.1285 8.94574C75.8629 8.68013 75.5483 8.47277 75.1849 8.32482C74.8214 8.17687 74.4369 8.10347 74.0292 8.10347C73.6215 8.10347 73.2347 8.17687 72.8724 8.32482C72.5101 8.47277 72.1944 8.67897 71.9288 8.94574C71.6632 9.21252 71.4523 9.53288 71.2997 9.90684C71.1471 10.2808 71.0702 10.7013 71.0702 11.1662C71.0702 11.631 71.1471 12.0166 71.2997 12.3905C71.4523 12.7645 71.662 13.0849 71.9288 13.3516C72.1944 13.6172 72.5101 13.8258 72.8724 13.9726C73.2347 14.1205 73.6215 14.1939 74.0292 14.1939Z" fill="white"/>
<path d="M2.62462 18.008C2.60365 17.9906 2.58152 17.9754 2.56055 17.9579C2.58152 17.9754 2.60365 17.9917 2.62462 18.008Z" fill="#263238"/>
<path d="M0.525391 9.88473C0.5417 9.84279 0.556845 9.80085 0.573155 9.75891C0.55568 9.79968 0.5417 9.84279 0.525391 9.88473Z" fill="#263238"/>
<path d="M1.65713 17.0563C1.59422 16.9806 1.53714 16.9014 1.47656 16.8245C1.53598 16.9025 1.59422 16.9817 1.65713 17.0563Z" fill="#263238"/>
<path d="M2.173 17.605C2.1031 17.5362 2.03436 17.4675 1.9668 17.3964C2.03436 17.4675 2.1031 17.5374 2.173 17.605Z" fill="#263238"/>
<path d="M7.0127 19.5819C7.03133 19.5819 7.04997 19.5842 7.06861 19.5842C7.61615 19.5842 8.14737 19.5155 8.65879 19.3978C8.3559 19.4654 8.04835 19.5178 7.73963 19.5481C7.49849 19.5714 7.25501 19.5807 7.0127 19.5819Z" fill="#263238"/>
<path d="M9.41391 19.1765C9.22053 19.2418 9.02715 19.3047 8.8291 19.3536C9.02831 19.3023 9.22286 19.2441 9.41391 19.1765Z" fill="#263238"/>
<path d="M0.0800781 13.6685C0.101047 13.8002 0.124346 13.9306 0.153471 14.06C0.377144 15.0676 0.846625 16.0078 1.47804 16.8232C0.786047 15.9251 0.308411 14.8568 0.113862 13.6895C0.103378 13.6813 0.0905628 13.6755 0.0800781 13.6674V13.6685Z" fill="#FDFDFD"/>
<path d="M1.96692 17.3964C1.86091 17.2858 1.75606 17.1739 1.6582 17.0563C1.75723 17.1739 1.86091 17.2846 1.96692 17.3964Z" fill="#263238"/>
<path d="M4.64524 19.1823C5.40363 19.4584 6.20745 19.5831 7.01245 19.5819C5.35004 19.5691 3.8251 18.982 2.62402 18.0081C3.2298 18.5055 3.90781 18.9144 4.64407 19.1823H4.64524Z" fill="#263238"/>
<path d="M2.5606 17.9568C2.42663 17.845 2.29848 17.7261 2.17383 17.605C2.29964 17.7273 2.42779 17.845 2.5606 17.9568Z" fill="#263238"/>
<path d="M14.135 11.9211C14.0581 11.0124 13.8053 10.1387 13.4279 9.31275C12.843 8.03595 11.9577 6.87564 10.9511 5.88659C9.98888 4.93947 8.85187 4.02731 8.51752 2.71905C8.29385 1.843 8.48258 0.767738 8.96254 0.00119135C8.05503 -0.019778 6.86444 0.235349 6.13867 0.823656C5.46299 1.37119 4.93176 2.18783 4.68013 3.01612C4.4017 3.93178 4.46461 4.96277 4.93176 5.79689C4.93642 5.80621 4.93875 5.81553 4.94341 5.82485C5.31271 6.47024 5.90451 6.97932 6.22487 7.64568C6.75377 8.36563 7.06947 9.25217 7.06947 10.2144C7.06947 12.6178 5.12165 14.5656 2.71833 14.5656C1.7386 14.5656 0.839243 14.2359 0.112305 13.6895C0.306854 14.8568 0.784489 15.9251 1.47648 16.8233C1.53706 16.9013 1.59414 16.9805 1.65705 17.0551C1.75607 17.1728 1.86092 17.2846 1.96576 17.3953C2.03333 17.4663 2.10206 17.5362 2.17196 17.6038C2.29778 17.725 2.42476 17.8438 2.55873 17.9556C2.5797 17.9731 2.60183 17.9894 2.6228 18.0057C3.82272 18.9796 5.34766 19.5668 7.01123 19.5796C7.25354 19.5796 7.49585 19.5691 7.73816 19.5458C7.63914 19.1812 7.58089 18.799 7.58089 18.403C7.58089 15.9996 9.52871 14.0518 11.932 14.0518C12.617 14.0518 13.2636 14.2149 13.8402 14.498C13.8461 14.5003 13.8519 14.5027 13.8577 14.505C14.107 13.6685 14.2072 12.789 14.1327 11.9188L14.135 11.9211Z" fill="#FDFDFD"/>
<path d="M8.82927 19.3547C8.77218 19.3699 8.71626 19.385 8.65918 19.399C8.71626 19.3862 8.77218 19.3699 8.82927 19.3547Z" fill="#263238"/>
<path d="M6.22634 7.64572C6.24498 7.68416 6.26595 7.72144 6.28226 7.76105C6.69233 8.73962 6.33818 9.97914 5.47261 10.5931C4.60821 11.207 3.32092 11.1325 2.53224 10.4242C1.76569 9.7345 1.5525 8.51595 2.01732 7.59912C1.41154 8.22005 0.917598 8.94931 0.572768 9.75896C0.555294 9.8009 0.541314 9.84284 0.525004 9.88478C0.416663 10.1539 0.330455 10.4323 0.253567 10.7166C0.236093 10.7818 0.220948 10.8459 0.204639 10.9111C0.15571 11.1173 0.116102 11.327 0.085813 11.5402C-0.0201988 12.245 -0.034179 12.9638 0.0788226 13.6686C0.0893073 13.6767 0.102122 13.6826 0.112607 13.6907C0.839545 14.2371 1.7389 14.5668 2.71863 14.5668C5.12195 14.5668 7.06978 12.6189 7.06978 10.2156C7.06978 9.25337 6.75407 8.368 6.22518 7.64689L6.22634 7.64572Z" fill="#AFAFAF"/>
<path d="M13.8414 14.4992C13.2647 14.2161 12.6182 14.053 11.9332 14.053C9.52985 14.053 7.58203 16.0009 7.58203 18.4042C7.58203 18.8003 7.63912 19.1824 7.7393 19.547C8.04802 19.5167 8.35557 19.4643 8.65846 19.3967C8.71554 19.3839 8.77146 19.3676 8.82854 19.3525C9.02659 19.3035 9.22114 19.2406 9.41336 19.1754C10.117 18.9366 10.788 18.6034 11.3798 18.1502C12.5669 17.2415 13.4325 15.9368 13.8589 14.505C13.853 14.5027 13.8472 14.5004 13.8414 14.4981V14.4992Z" fill="#686868"/>
</svg>
