<svg width="48" height="49" viewBox="0 0 48 49" fill="none" xmlns="http://www.w3.org/2000/svg">
<path d="M2.44141 38.8958C2.44141 35.2418 12.0954 32.2778 23.9994 32.2778C35.9034 32.2778 45.5574 35.2418 45.5574 38.8958C45.5574 42.5498 35.9034 45.5138 23.9994 45.5138C12.0954 45.5138 2.44141 42.5498 2.44141 38.8958Z" fill="#212121"/>
<path d="M38.1352 17.6438H10.2232C9.40717 19.5098 8.95117 21.5678 8.95117 23.7338C8.95117 32.1398 15.7672 38.9558 24.1732 38.9558C32.5792 38.9558 39.3952 32.1398 39.3952 23.7338C39.3952 21.5678 38.9392 19.5098 38.1232 17.6438H38.1352Z" fill="#E63946"/>
<path d="M18.1314 26.4459C19.0195 26.4459 19.7394 25.2316 19.7394 23.7339C19.7394 22.2361 19.0195 21.0219 18.1314 21.0219C17.2434 21.0219 16.5234 22.2361 16.5234 23.7339C16.5234 25.2316 17.2434 26.4459 18.1314 26.4459Z" fill="#212121"/>
<path d="M19.5599 23.0799C19.4279 23.0799 19.2899 23.0379 19.1759 22.9419L16.8239 20.9979C16.5659 20.7879 16.5299 20.4099 16.7399 20.1519C16.9499 19.8939 17.3279 19.8579 17.5859 20.0679L19.9379 22.0119C20.1959 22.2219 20.2319 22.5999 20.0219 22.8579C19.9019 23.0019 19.7339 23.0739 19.5599 23.0739V23.0799Z" fill="#212121"/>
<path d="M24.3287 26.4457C25.2168 26.4457 25.9367 25.2315 25.9367 23.7337C25.9367 22.2359 25.2168 21.0217 24.3287 21.0217C23.4406 21.0217 22.7207 22.2359 22.7207 23.7337C22.7207 25.2315 23.4406 26.4457 24.3287 26.4457Z" fill="#212121"/>
<path d="M22.9011 23.0798C22.7271 23.0798 22.5591 23.0078 22.4391 22.8638C22.2291 22.6058 22.2651 22.2278 22.5231 22.0178L24.8751 20.0738C25.1331 19.8638 25.5111 19.8998 25.7211 20.1578C25.9311 20.4158 25.8951 20.7938 25.6371 21.0038L23.2851 22.9478C23.1711 23.0378 23.0391 23.0858 22.9011 23.0858V23.0798Z" fill="#212121"/>
<path d="M17.1104 32.0138C16.8344 32.0138 16.5884 31.8278 16.5284 31.5458C16.4564 31.2218 16.6544 30.9038 16.9784 30.8258C21.5084 29.7938 26.3084 29.7518 30.8564 30.7118L31.3724 30.8198C31.6964 30.8858 31.9064 31.2098 31.8344 31.5338C31.7684 31.8578 31.4444 32.0618 31.1204 31.9958L30.6044 31.8878C26.2244 30.9638 21.6044 30.9998 17.2424 31.9958C17.2004 32.0078 17.1524 32.0078 17.1104 32.0078V32.0138Z" fill="#333333"/>
<path d="M35.5862 11.1578C33.4202 9.13582 29.5322 7.29382 26.2322 6.73582C26.2502 6.67582 26.2682 6.61582 26.2682 6.55582C26.2682 5.97982 25.3862 5.51782 24.2942 5.51782C23.2022 5.51782 22.3202 5.98582 22.3202 6.55582C22.3202 6.62182 22.3322 6.68782 22.3562 6.74782C19.3862 7.27582 15.8642 8.82382 13.8722 10.4438C12.1682 11.8298 11.3402 13.6118 10.5722 15.6818H6.01819C5.45419 15.6818 4.99219 16.1438 4.99219 16.7078V17.1998C4.99219 17.7638 5.45419 18.2258 6.01819 18.2258H38.3702C37.5302 13.3898 37.5662 13.0058 35.5802 11.1518L35.5862 11.1578Z" fill="#B02C38"/>
</svg>
