<svg width="164" height="250" viewBox="0 0 164 250" fill="none" xmlns="http://www.w3.org/2000/svg">
<g clip-path="url(#clip0_3255_2799)">
<path d="M6.81877 151.023L7.59838 175.08L0.656541 186.554L-0.473322 197.482C-0.548369 198.211 -0.26901 198.933 0.272998 199.425C1.6572 200.671 3.87523 199.837 4.08786 197.986L4.29215 196.235C4.33802 195.839 4.91757 195.86 4.93842 196.256L5.7681 211.249C5.83481 212.458 6.92295 213.346 8.11954 213.175L24.7384 210.769C25.7515 210.623 26.5062 209.752 26.502 208.726L26.4644 180.713L38.1677 149.877L6.36428 136.944L6.81877 151.023Z" fill="#F74000"/>
<path d="M12.8308 212.491L12.1846 196.548" stroke="#BA3A3A" stroke-width="2.13885" stroke-miterlimit="10"/>
<path d="M19.7693 211.436L19.123 195.489" stroke="#BA3A3A" stroke-width="2.13885" stroke-miterlimit="10"/>
<path d="M156.679 151.023L155.899 175.08L162.841 186.554L163.971 197.482C164.046 198.211 163.767 198.933 163.225 199.425C161.841 200.671 159.623 199.837 159.41 197.986L159.206 196.235C159.16 195.839 158.58 195.86 158.559 196.256L157.73 211.249C157.663 212.458 156.575 213.346 155.378 213.175L138.759 210.769C137.746 210.623 136.992 209.752 136.996 208.726L137.033 180.713L125.33 149.877L157.133 136.944L156.679 151.023Z" fill="#F74000"/>
<path d="M150.667 212.491L151.313 196.548" stroke="#BA3A3A" stroke-width="2.13885" stroke-miterlimit="10"/>
<path d="M143.73 211.436L144.377 195.489" stroke="#BA3A3A" stroke-width="2.13885" stroke-miterlimit="10"/>
<path d="M46.8484 188.297L54.1238 210.803C54.3156 211.399 54.1572 212.053 53.7152 212.495L46.5274 219.683C45.4767 220.734 46.2189 222.531 47.7073 222.531H78.6184C79.5398 222.531 80.2862 221.785 80.2862 220.863V196.956C80.2862 196.223 79.8066 195.576 79.102 195.36L48.9164 186.183C47.6281 185.791 46.4315 187.009 46.8443 188.293L46.8484 188.297Z" fill="#F74000"/>
<path d="M116.651 188.172L109.375 210.678C109.183 211.274 109.342 211.928 109.784 212.37L116.972 219.558C118.022 220.609 117.28 222.406 115.792 222.406H84.8806C83.9592 222.406 83.2129 221.659 83.2129 220.738V196.831C83.2129 196.098 83.6924 195.451 84.397 195.234L114.583 186.058C115.871 185.666 117.068 186.883 116.655 188.167L116.651 188.172Z" fill="#F74000"/>
<path d="M81.9579 198.228C38.6681 198.228 3.5752 163.135 3.5752 119.845V115.197C3.5752 77.1852 21.7366 27.7331 75.3537 8.0916C81.1407 5.96943 87.2529 10.3305 87.1278 16.4969L86.7777 33.3408C86.6776 38.1522 91.0595 41.7879 95.7791 40.8581C112.252 37.6102 100.695 26.0613 111.56 28.9589C142.83 37.2975 160.341 88.3172 160.341 115.201V119.85C160.341 163.139 125.248 198.232 81.9579 198.232V198.228Z" fill="#F74000"/>
<mask id="mask0_3255_2799" style="mask-type:luminance" maskUnits="userSpaceOnUse" x="3" y="7" width="158" height="192">
<path d="M81.9579 198.228C38.6681 198.228 3.5752 163.135 3.5752 119.845V115.197C3.5752 77.1852 21.7366 27.7331 75.3537 8.0916C81.1407 5.96943 87.2529 10.3305 87.1278 16.4969L86.7777 33.3408C86.6776 38.1522 91.0595 41.7879 95.7791 40.8581C112.252 37.6102 100.695 26.0613 111.56 28.9589C142.83 37.2975 160.341 88.3172 160.341 115.201V119.85C160.341 163.139 125.248 198.232 81.9579 198.232V198.228Z" fill="white"/>
</mask>
<g mask="url(#mask0_3255_2799)">
<path d="M34.8447 170.711C34.8447 170.711 56.942 189.506 81.9578 189.506C106.974 189.506 133.24 170.711 133.24 170.711" stroke="#DD1D0A" stroke-width="20.0126" stroke-miterlimit="10" stroke-linecap="round"/>
</g>
<path d="M81.749 184.052C119.397 184.052 149.917 155.306 149.917 119.845C149.917 84.3847 119.397 55.6382 81.749 55.6382C44.1009 55.6382 13.5811 84.3847 13.5811 119.845C13.5811 155.306 44.1009 184.052 81.749 184.052Z" fill="#FF6C4A"/>
<mask id="mask1_3255_2799" style="mask-type:luminance" maskUnits="userSpaceOnUse" x="13" y="55" width="137" height="130">
<path d="M81.75 184.053C119.398 184.053 149.918 155.306 149.918 119.845C149.918 84.3848 119.398 55.6382 81.75 55.6382C44.1019 55.6382 13.582 84.3848 13.582 119.845C13.582 155.306 44.1019 184.053 81.75 184.053Z" fill="white"/>
</mask>
<g mask="url(#mask1_3255_2799)">
<path d="M10.7051 109.764C24.568 117.923 55.6167 141.997 43.0713 188.739" stroke="#DB2B03" stroke-width="2.50158" stroke-miterlimit="10"/>
<path d="M153.828 109.764C139.966 117.923 108.917 141.997 121.462 188.739" stroke="#DB2B03" stroke-width="2.50158" stroke-miterlimit="10"/>
<path d="M148.575 123.081C148.575 123.081 148.575 109.672 127.729 89.8973C104.285 67.6541 28.4994 63.4181 12.2391 126.099C12.2391 126.099 -1.24439 48.4837 98.9604 49.0049C141.275 49.2258 154.074 99.4533 148.575 123.081Z" fill="#FFD194"/>
</g>
<path d="M69.9325 121.556C71.7458 120.118 70.4904 115.516 67.1286 111.275C63.7667 107.035 59.5713 104.763 57.758 106.201C55.9446 107.639 57.2 112.242 60.5619 116.482C63.9238 120.722 68.1191 122.994 69.9325 121.556Z" fill="#4F2E29"/>
<path d="M102.503 116.326C105.864 112.086 107.12 107.483 105.306 106.045C103.493 104.607 99.2978 106.879 95.9359 111.119C92.574 115.359 91.3186 119.962 93.132 121.4C94.9453 122.838 99.1407 120.566 102.503 116.326Z" fill="#4F2E29"/>
<path d="M124.905 98.1651C128.381 94.6889 127.185 87.8569 122.234 82.9055C117.282 77.9542 110.45 76.7583 106.974 80.2346C103.498 83.7108 104.694 90.5428 109.645 95.4941C114.596 100.446 121.428 101.641 124.905 98.1651Z" fill="#FFD194"/>
<path d="M68.1992 138.399L68.5995 138.103C76.9881 131.87 88.5037 131.99 96.7589 138.399" stroke="#7F0303" stroke-width="3.75237" stroke-miterlimit="10" stroke-linecap="round"/>
</g>
<defs>
<clipPath id="clip0_3255_2799">
<rect width="163.779" height="250" fill="white"/>
</clipPath>
</defs>
</svg>
