<svg width="48" height="59" viewBox="0 0 48 59" fill="none" xmlns="http://www.w3.org/2000/svg">
<path d="M24.0003 58.3839C10.7455 58.3839 0.000488281 47.6389 0.000488281 34.3841V32.9607C0.000488281 21.322 5.56129 6.18043 21.9782 0.166433C23.7501 -0.48335 25.6216 0.851956 25.5833 2.74003L25.4761 7.89744C25.4454 9.37062 26.7871 10.4838 28.2322 10.1991C33.276 9.20467 29.7373 5.66852 33.0641 6.55575C42.6385 9.10892 48.0001 24.7305 48.0001 32.9619V34.3853C48.0001 47.6401 37.2551 58.3852 24.0003 58.3852V58.3839Z" fill="#F74000"/>
<mask id="mask0_3337_3017" style="mask-type:luminance" maskUnits="userSpaceOnUse" x="0" y="0" width="48" height="59">
<path d="M23.9998 58.3839C10.745 58.3839 0 47.6389 0 34.3841V32.9607C0 21.322 5.5608 6.18043 21.9777 0.166433C23.7496 -0.48335 25.6211 0.851956 25.5828 2.74003L25.4756 7.89744C25.4449 9.37062 26.7866 10.4838 28.2317 10.1991C33.2755 9.20467 29.7368 5.66852 33.0636 6.55575C42.638 9.10892 47.9996 24.7305 47.9996 32.9619V34.3853C47.9996 47.6401 37.2546 58.3852 23.9998 58.3852V58.3839Z" fill="white"/>
</mask>
<g mask="url(#mask0_3337_3017)">
<path d="M9.57471 49.9585C9.57471 49.9585 16.3406 55.7134 24.0001 55.7134C31.6597 55.7134 39.7021 49.9585 39.7021 49.9585" stroke="#DD1D0A" stroke-width="6.12762" stroke-miterlimit="10" stroke-linecap="round"/>
</g>
<path d="M23.9366 54.0432C35.464 54.0432 44.8088 45.2414 44.8088 34.3838C44.8088 23.5262 35.464 14.7244 23.9366 14.7244C12.4093 14.7244 3.06445 23.5262 3.06445 34.3838C3.06445 45.2414 12.4093 54.0432 23.9366 54.0432Z" fill="#FF6C4A"/>
<mask id="mask1_3337_3017" style="mask-type:luminance" maskUnits="userSpaceOnUse" x="3" y="14" width="42" height="41">
<path d="M23.9366 54.0437C35.464 54.0437 44.8088 45.2419 44.8088 34.3843C44.8088 23.5267 35.464 14.7249 23.9366 14.7249C12.4093 14.7249 3.06445 23.5267 3.06445 34.3843C3.06445 45.2419 12.4093 54.0437 23.9366 54.0437Z" fill="white"/>
</mask>
<g mask="url(#mask1_3337_3017)">
<path d="M2.18359 31.2976C6.42824 33.7959 15.935 41.1669 12.0937 55.4787" stroke="#DB2B03" stroke-width="0.765952" stroke-miterlimit="10"/>
<path d="M46.0064 31.2976C41.7617 33.7959 32.255 41.1669 36.0962 55.4787" stroke="#DB2B03" stroke-width="0.765952" stroke-miterlimit="10"/>
<path d="M44.3973 35.3748C44.3973 35.3748 44.3973 31.2693 38.0144 25.2144C30.8361 18.4038 7.63161 17.1068 2.65293 36.299C2.65293 36.299 -1.47555 12.5341 29.2059 12.6937C42.162 12.7613 46.0811 28.1404 44.3973 35.3748Z" fill="#FFD194"/>
</g>
<path d="M20.318 34.9078C20.8732 34.4676 20.4888 33.0582 19.4594 31.76C18.4301 30.4617 17.1455 29.7661 16.5903 30.2063C16.0351 30.6465 16.4194 32.0559 17.4488 33.3542C18.4782 34.6524 19.7627 35.348 20.318 34.9078Z" fill="#4F2E29"/>
<path d="M30.2905 33.3064C31.3199 32.0082 31.7042 30.5988 31.149 30.1586C30.5938 29.7184 29.3092 30.414 28.2799 31.7123C27.2505 33.0105 26.8661 34.4199 27.4213 34.8601C27.9766 35.3003 29.2611 34.6047 30.2905 33.3064Z" fill="#4F2E29"/>
<path d="M37.1493 27.7457C38.2137 26.6814 37.8475 24.5895 36.3315 23.0734C34.8154 21.5574 32.7235 21.1912 31.6592 22.2556C30.5948 23.32 30.9609 25.4119 32.477 26.9279C33.993 28.444 36.0849 28.8101 37.1493 27.7457Z" fill="#FFD194"/>
<path d="M19.7876 40.0648L19.9101 39.9742C22.4786 38.0657 26.0046 38.1027 28.5322 40.0648" stroke="#7F0303" stroke-width="1.14893" stroke-miterlimit="10" stroke-linecap="round"/>
</svg>
