<svg width="20" height="20" viewBox="0 0 20 20" fill="none" xmlns="http://www.w3.org/2000/svg">
<path d="M17.2155 7.94489H3.24436C2.83591 8.87889 2.60767 9.909 2.60767 10.9932C2.60767 15.2007 6.01937 18.6124 10.2269 18.6124C14.4345 18.6124 17.8462 15.2007 17.8462 10.9932C17.8462 9.909 17.618 8.87889 17.2095 7.94489H17.2155Z" fill="#E63946"/>
<path d="M7.20258 12.3504C7.6471 12.3504 8.00745 11.7427 8.00745 10.993C8.00745 10.2433 7.6471 9.6355 7.20258 9.6355C6.75806 9.6355 6.39771 10.2433 6.39771 10.993C6.39771 11.7427 6.75806 12.3504 7.20258 12.3504Z" fill="#212121"/>
<path d="M7.91632 10.6652C7.85025 10.6652 7.78117 10.6442 7.72411 10.5961L6.54683 9.62306C6.41769 9.51795 6.39967 9.32874 6.50479 9.1996C6.6099 9.07046 6.79911 9.05244 6.92825 9.15756L8.10553 10.1306C8.23467 10.2357 8.25269 10.4249 8.14757 10.5541C8.08751 10.6261 8.00341 10.6622 7.91632 10.6622V10.6652Z" fill="#212121"/>
<path d="M10.3061 12.3505C10.7506 12.3505 11.111 11.7428 11.111 10.9931C11.111 10.2434 10.7506 9.63562 10.3061 9.63562C9.86158 9.63562 9.50122 10.2434 9.50122 10.9931C9.50122 11.7428 9.86158 12.3505 10.3061 12.3505Z" fill="#212121"/>
<path d="M9.59077 10.6653C9.50368 10.6653 9.41959 10.6293 9.35952 10.5572C9.25441 10.4281 9.27243 10.2389 9.40157 10.1338L10.5788 9.16073C10.708 9.05562 10.8972 9.07364 11.0023 9.20278C11.1074 9.33191 11.0894 9.52112 10.9603 9.62623L9.78298 10.5993C9.72592 10.6443 9.65985 10.6684 9.59077 10.6684V10.6653Z" fill="#212121"/>
<path d="M6.69128 15.1373C6.55313 15.1373 6.43 15.0442 6.39997 14.903C6.36393 14.7409 6.46304 14.5817 6.62521 14.5427C8.89267 14.0261 11.2953 14.0051 13.5718 14.4856L13.83 14.5397C13.9922 14.5727 14.0973 14.7349 14.0613 14.897C14.0283 15.0592 13.8661 15.1613 13.7039 15.1283L13.4456 15.0742C11.2532 14.6117 8.94073 14.6297 6.75736 15.1283C6.73633 15.1343 6.71231 15.1343 6.69128 15.1343V15.1373Z" fill="#333333"/>
<path d="M15.9386 4.69791C14.8545 3.68583 12.9083 2.76383 11.2565 2.48453C11.2656 2.4545 11.2746 2.42447 11.2746 2.39444C11.2746 2.10613 10.8331 1.87488 10.2865 1.87488C9.7399 1.87488 9.29842 2.10913 9.29842 2.39444C9.29842 2.42747 9.30443 2.46051 9.31644 2.49054C7.82983 2.75482 6.06691 3.52966 5.06983 4.34053C4.2169 5.03428 3.80245 5.92624 3.41803 6.96235H1.13856C0.856251 6.96235 0.625 7.1936 0.625 7.4759V7.72217C0.625 8.00447 0.856251 8.23572 1.13856 8.23572H17.3322C16.9117 5.81512 16.9297 5.62291 15.9356 4.69491L15.9386 4.69791Z" fill="#B02C38"/>
</svg>
