<svg width="10" height="18" viewBox="0 0 10 18" fill="none" xmlns="http://www.w3.org/2000/svg">
<path d="M9.74165 1.35993L1.76526 8.53499C1.50869 8.76578 1.48761 9.16104 1.71815 9.41787H1.71815C1.73301 9.43441 1.74873 9.45014 1.76526 9.465L9.74165 16.6401C10.0617 16.9279 10.088 17.421 9.8004 17.7414C9.51282 18.0618 9.02024 18.0881 8.70019 17.8002L0.723797 10.6251H0.723797C0.666044 10.5732 0.611101 10.5182 0.559204 10.4604C-0.246515 9.56284 -0.17282 8.18141 0.723797 7.37487L8.70019 0.199814C9.02024 -0.0880802 9.51282 -0.0617547 9.8004 0.25862C10.088 0.578973 10.0617 1.07205 9.74165 1.35993V1.35993Z" fill="#9E9E9E"/>
</svg>
