<svg width="86" height="86" viewBox="0 0 86 86" fill="none" xmlns="http://www.w3.org/2000/svg">
<g clip-path="url(#clip0_10470_4894)" filter="url(#filter0_d_10470_4894)">
<path d="M42 35.9C39.8 35.9 38 36.7 36.4 38.2C34.8 39.7 34.1 41.6 34.1 43.8C34.1 46 34.9 47.8 36.4 49.4C37.9 51 39.8 51.7 42 51.7C44.2 51.7 46 50.9 47.6 49.4C49.2 47.9 49.9 46 49.9 43.8C49.9 41.6 49.1 39.8 47.6 38.2C46.1 36.6 44.2 35.9 42 35.9ZM45.1 46.9C44.3 47.7 43.2 48.2 42 48.2C40.8 48.2 39.7 47.8 38.9 46.9C38 46 37.6 45 37.6 43.8C37.6 42.6 38 41.5 38.9 40.7C39.7 39.9 40.8 39.4 42 39.4C43.2 39.4 44.3 39.8 45.1 40.7C45.9 41.5 46.4 42.6 46.4 43.8C46.4 45 46 46 45.1 46.9Z" fill="white"/>
<path d="M42 6C22.1 6 6 22.1 6 42C6 61.9 22.1 78 42 78C48.2 78 54 76.4 59.1 73.7C56 70.8 54 66.6 54 62C54 60.5 54.2 59.1 54.6 57.8H28C27 57.8 26.2 57.5 25.5 56.8C24.8 56.1 24.5 55.3 24.5 54.3V33.3C24.5 32.3 24.8 31.5 25.5 30.8C26.2 30.1 27 29.8 28 29.8H33.5L35.7 27.4C36 27 36.4 26.8 36.9 26.6C37.4 26.4 37.8 26.3 38.3 26.3H45.7C46.2 26.3 46.7 26.4 47.1 26.6C47.6 26.8 47.9 27.1 48.3 27.4L50.5 29.8H56C57 29.8 57.8 30.1 58.5 30.8C59.2 31.5 59.5 32.3 59.5 33.3V50C62.3 47.5 66 46 70 46C72.7 46 75.3 46.7 77.5 47.9C77.8 46 78 44 78 42C78 22.1 61.9 6 42 6Z" fill="white"/>
<path d="M42 39.4C40.8 39.4 39.7 39.8 38.9 40.7C38.1 41.5 37.6 42.6 37.6 43.8C37.6 45 38 46.1 38.9 46.9C39.7 47.7 40.8 48.2 42 48.2C43.2 48.2 44.3 47.8 45.1 46.9C45.9 46.1 46.4 45 46.4 43.8C46.4 42.6 46 41.5 45.1 40.7C44.3 39.8 43.2 39.4 42 39.4Z" fill="#424242"/>
<path d="M58.5 30.8C57.8 30.1 57 29.8 56 29.8H50.5L48.3 27.4C48 27 47.6 26.8 47.1 26.6C46.6 26.4 46.2 26.3 45.7 26.3H38.3C37.8 26.3 37.3 26.4 36.9 26.6C36.4 26.8 36.1 27.1 35.7 27.4L33.5 29.8H28C27 29.8 26.2 30.1 25.5 30.8C24.8 31.5 24.5 32.3 24.5 33.3V54.3C24.5 55.3 24.8 56.1 25.5 56.8C26.2 57.5 27 57.8 28 57.8H54.6C55.4 54.7 57.2 52 59.5 50V33.2C59.5 32.3 59.2 31.5 58.5 30.8ZM47.6 49.3C46.1 50.8 44.2 51.6 42 51.6C39.8 51.6 38 50.8 36.4 49.3C34.8 47.8 34.1 45.9 34.1 43.7C34.1 41.5 34.9 39.7 36.4 38.1C37.9 36.5 39.8 35.8 42 35.8C44.2 35.8 46 36.6 47.6 38.1C49.2 39.6 49.9 41.5 49.9 43.7C49.9 45.9 49.1 47.8 47.6 49.3Z" fill="#424242"/>
<path d="M70 74C76.6 74 82 68.6 82 62C82 55.4 76.6 50 70 50C63.4 50 58 55.4 58 62C58 68.6 63.4 74 70 74Z" fill="#424242"/>
<path d="M76 61H71V56C71 55.4 70.6 55 70 55C69.4 55 69 55.4 69 56V61H64C63.4 61 63 61.4 63 62C63 62.6 63.4 63 64 63H69V68C69 68.6 69.4 69 70 69C70.6 69 71 68.6 71 68V63H76C76.6 63 77 62.6 77 62C77 61.4 76.6 61 76 61Z" fill="white"/>
</g>
<path d="M46 0H12C5.4 0 0 5.4 0 12C0 17.4 3.6 21.9 8.4 23.4L19.5 30.1C20.2 30.5 21 30 21 29.2V24H46C52.6 24 58 18.6 58 12C58 5.4 52.6 0 46 0Z" fill="#36C1B3"/>
<path d="M12.3 9.2C12.3 11.1 13.4 13 14.9 13.7L14.2 14.6C13.1 14 12.2 12.8 11.7 11.4C11.2 12.9 10.3 14.1 9.1 14.8L8.4 13.9C10 13.1 11.1 11.1 11.1 9.2V7.4H12.2V9.2H12.3ZM15.7 17V6.5H16.8V10.7H18.5V11.6H16.8V17H15.7ZM22.9 8.7C22.9 10.1 23.9 11.3 25.5 11.9L25 12.7C23.8 12.3 22.9 11.5 22.4 10.4C21.9 11.5 21 12.4 19.7 12.9L19.1 12C20.7 11.4 21.7 10.1 21.7 8.6V8.1H19.3V7.2H25.1V8.1H22.8V8.7H22.9ZM20.9 16.8V13.5H22V15.9H28V16.8H20.9ZM26.6 14.2V6.5H27.7V14.2H26.6ZM38.1 6.5V17H37V6.5H38.1ZM29.5 14.2C32.3 12.9 33.7 11 33.9 8.5H30V7.6H35C35 10.7 33.7 13.3 30.1 15.1L29.5 14.2ZM49.4 12.2V13.1H39.8V12.2H44V11.2H41V8.5H47V7.6H41V6.7H48.2V9.3H42.1V10.3H48.4V11.2H45.1V12.2H49.4ZM40.8 14.8V13.9H48.2V16.9H47.1V14.7L40.8 14.8Z" fill="white"/>
<defs>
<filter id="filter0_d_10470_4894" x="-4" y="0" width="92" height="92" filterUnits="userSpaceOnUse" color-interpolation-filters="sRGB">
<feFlood flood-opacity="0" result="BackgroundImageFix"/>
<feColorMatrix in="SourceAlpha" type="matrix" values="0 0 0 0 0 0 0 0 0 0 0 0 0 0 0 0 0 0 127 0" result="hardAlpha"/>
<feOffset dy="4"/>
<feGaussianBlur stdDeviation="2"/>
<feComposite in2="hardAlpha" operator="out"/>
<feColorMatrix type="matrix" values="0 0 0 0 0 0 0 0 0 0 0 0 0 0 0 0 0 0 0.25 0"/>
<feBlend mode="normal" in2="BackgroundImageFix" result="effect1_dropShadow_10470_4894"/>
<feBlend mode="normal" in="SourceGraphic" in2="effect1_dropShadow_10470_4894" result="shape"/>
</filter>
<clipPath id="clip0_10470_4894">
<rect width="84" height="84" fill="white"/>
</clipPath>
</defs>
</svg>
