<svg width="80" height="22" viewBox="0 0 80 22" fill="none" xmlns="http://www.w3.org/2000/svg">
<path d="M22.3635 7.5269C22.7933 7.0516 23.335 6.67998 23.9874 6.4132C24.6386 6.14642 25.3726 6.01362 26.1892 6.01362C26.8474 6.01362 27.4823 6.14642 28.0951 6.4132C28.7067 6.67881 29.2507 7.0481 29.7272 7.51875C30.2025 7.98939 30.5823 8.55091 30.8665 9.20212C31.1508 9.8545 31.2918 10.5651 31.2918 11.3363C31.2918 12.1075 31.1531 12.7797 30.8759 13.4193C30.5986 14.06 30.227 14.6122 29.7622 15.0782C29.2973 15.543 28.7556 15.9111 28.1382 16.1838C27.5196 16.4564 26.8649 16.5973 26.1741 16.609C25.8001 16.6194 25.425 16.5892 25.0522 16.5158C24.6771 16.4424 24.3206 16.334 23.9804 16.1931C23.6403 16.0509 23.3222 15.875 23.0287 15.6653C22.7339 15.4556 22.4788 15.2203 22.2633 14.9594L21.9569 16.2688H19.6782V5.57209C19.6782 4.08793 20.8816 2.88452 22.3658 2.88452V7.5269H22.3635ZM25.6463 14.5342C26.0541 14.5342 26.4397 14.4608 26.802 14.314C27.1643 14.166 27.48 13.954 27.7468 13.6767C28.0124 13.3995 28.2221 13.0616 28.3759 12.6644C28.5296 12.2671 28.6065 11.8256 28.6065 11.3375C28.6065 10.8494 28.5296 10.3741 28.3759 9.97682C28.2221 9.57957 28.0135 9.2429 27.7468 8.96447C27.48 8.68721 27.1655 8.47402 26.802 8.32723C26.4385 8.18045 26.0541 8.10589 25.6463 8.10589C25.2386 8.10589 24.853 8.17928 24.4907 8.32723C24.1272 8.47518 23.8127 8.68721 23.5459 8.96447C23.2791 9.24173 23.0706 9.57957 22.9168 9.97682C22.763 10.3741 22.6862 10.8272 22.6862 11.3375C22.6862 11.8478 22.763 12.2671 22.9168 12.6644C23.0706 13.0616 23.2791 13.3983 23.5459 13.6767C23.8127 13.9552 24.1261 14.1672 24.4907 14.314C24.853 14.4608 25.2374 14.5342 25.6463 14.5342Z" fill="#212121"/>
<path d="M42.945 6.35384H44.0307V16.2688H41.752L41.4282 14.9594C41.2243 15.2204 40.975 15.4545 40.6803 15.6654C40.3855 15.8751 40.0652 16.051 39.7192 16.1931C39.3732 16.3341 39.0132 16.4424 38.6393 16.5158C38.2653 16.5892 37.8972 16.6207 37.5337 16.609C36.8417 16.5974 36.187 16.4564 35.5696 16.1838C34.951 15.9124 34.4069 15.5431 33.9375 15.0783C33.4656 14.6134 33.0952 14.0612 32.8238 13.4193C32.5512 12.7798 32.416 12.0843 32.416 11.3364C32.416 10.5885 32.557 9.85456 32.8412 9.20218C33.1243 8.55096 33.5041 7.98945 33.9806 7.51881C34.457 7.04816 35.0011 6.68003 35.6138 6.41326C36.2254 6.14648 36.8604 6.01367 37.5174 6.01367C38.334 6.01367 39.0773 6.14997 39.746 6.42141C40.4147 6.69401 40.9587 7.07961 41.3781 7.57705C41.5575 6.85711 42.204 6.35268 42.9461 6.35268L42.945 6.35384ZM38.0614 14.5342C38.4692 14.5342 38.8548 14.4608 39.2171 14.314C39.5805 14.1661 39.8951 13.9541 40.1607 13.6768C40.4263 13.3995 40.6372 13.0617 40.7898 12.6645C40.9424 12.2672 41.0193 11.8257 41.0193 11.3376C41.0193 10.8494 40.9424 10.3741 40.7898 9.97688C40.6372 9.57963 40.4263 9.24295 40.1607 8.96453C39.8951 8.6861 39.5805 8.47408 39.2171 8.32729C38.8536 8.18051 38.4692 8.10595 38.0614 8.10595C37.6537 8.10595 37.2669 8.17934 36.9046 8.32729C36.5423 8.47524 36.2266 8.68726 35.961 8.96453C35.6942 9.24179 35.4845 9.57963 35.3319 9.97688C35.1793 10.3741 35.1024 10.8273 35.1024 11.3376C35.1024 11.8478 35.1793 12.2672 35.3319 12.6645C35.4845 13.0617 35.6942 13.3984 35.961 13.6768C36.2266 13.9541 36.5423 14.1673 36.9046 14.314C37.2669 14.4608 37.6537 14.5342 38.0614 14.5342Z" fill="#212121"/>
<path d="M48.9444 2.88452V16.2688H46.2568V5.57209C46.2568 4.08793 47.4602 2.88452 48.9444 2.88452Z" fill="#212121"/>
<path d="M53.8594 2.88452V16.2688H51.1719V5.57209C51.1719 4.08793 52.3753 2.88452 53.8594 2.88452Z" fill="#212121"/>
<path d="M55.4927 11.3364C55.4927 10.4976 55.6453 9.73804 55.9517 9.0577C56.2581 8.37736 56.674 7.79837 57.2017 7.32307C57.7294 6.84776 58.3445 6.4808 59.047 6.22683C59.7495 5.97287 60.4985 5.84473 61.2919 5.84473C62.0852 5.84473 62.8168 5.97171 63.5205 6.22683C64.2241 6.48196 64.838 6.84776 65.3658 7.32307C65.8935 7.79954 66.3129 8.37736 66.6251 9.0577C66.9361 9.73687 67.0922 10.4976 67.0922 11.3364C67.0922 12.1751 66.9361 12.93 66.6251 13.5987C66.314 14.2674 65.8946 14.8371 65.3658 15.3077C64.8392 15.7784 64.2241 16.1407 63.5205 16.3958C62.8168 16.6509 62.0747 16.7779 61.2919 16.7779C60.509 16.7779 59.7506 16.6509 59.047 16.3958C58.3433 16.1407 57.7294 15.7772 57.2017 15.3077C56.674 14.8371 56.2581 14.2674 55.9517 13.5987C55.6453 12.9289 55.4927 12.1763 55.4927 11.3364ZM61.2919 14.7218C61.7346 14.7218 62.1481 14.639 62.5337 14.4748C62.9193 14.3105 63.2502 14.0787 63.5286 13.7781C63.807 13.4776 64.0249 13.1199 64.1833 12.7064C64.3418 12.2928 64.4221 11.8361 64.4221 11.3375C64.4221 10.8389 64.3418 10.3601 64.1833 9.93492C64.0249 9.5097 63.8059 9.15089 63.5286 8.85499C63.2513 8.55909 62.9193 8.33076 62.5337 8.1665C62.1481 8.00224 61.7346 7.91953 61.2919 7.91953C60.8492 7.91953 60.4216 8.00457 60.0419 8.17465C59.6621 8.34474 59.3336 8.58006 59.0551 8.88062C58.7779 9.18118 58.5589 9.54116 58.4004 9.96054C58.242 10.3799 58.1628 10.8389 58.1628 11.3375C58.1628 11.8361 58.242 12.2928 58.4004 12.7064C58.5589 13.1211 58.7779 13.4776 59.0551 13.7781C59.3324 14.0787 59.6621 14.3105 60.0419 14.4748C60.4216 14.639 60.8375 14.7218 61.2919 14.7218Z" fill="#212121"/>
<path d="M79.999 15.8436C79.999 16.637 79.8662 17.3488 79.5994 17.9778C79.3326 18.6069 78.9622 19.1451 78.4857 19.5936C78.0092 20.041 77.443 20.3893 76.7848 20.6398C76.1266 20.8891 75.4078 21.0196 74.625 21.0312C73.8992 21.0545 73.2049 20.9858 72.542 20.8273C71.8792 20.6689 71.2862 20.4243 70.7643 20.0957C70.2424 19.7672 69.8125 19.3455 69.4712 18.8283C69.4677 18.8236 69.4642 18.8178 69.4607 18.8131C68.9481 18.0268 69.5725 16.9841 70.5115 16.9841H71.5809C71.6252 17.6295 71.8897 18.1235 72.3708 18.4636C72.8519 18.8038 73.474 18.9739 74.2336 18.9739C74.6751 18.9739 75.084 18.9121 75.4579 18.7875C75.8319 18.6628 76.1581 18.4694 76.4353 18.2097C76.7138 17.9487 76.9293 17.6225 77.0819 17.2323C77.2345 16.8408 77.3114 16.3737 77.3114 15.8285V14.6379C76.892 15.1936 76.348 15.6048 75.6781 15.8716C75.0094 16.1372 74.2837 16.2712 73.502 16.2712C72.81 16.2712 72.1553 16.1465 71.5378 15.8972C70.9192 15.6479 70.3752 15.2961 69.9057 14.8429C69.4339 14.3897 69.0635 13.8504 68.792 13.2283C68.5194 12.6039 68.3843 11.9189 68.3843 11.1709C68.3843 10.423 68.5252 9.69727 68.8095 9.06236C69.0937 8.42746 69.4724 7.88575 69.9488 7.4384C70.4253 6.99105 70.9693 6.64157 71.5821 6.39226C72.1937 6.14296 72.8286 6.01831 73.4857 6.01831C74.3023 6.01831 75.0455 6.15461 75.7142 6.42605C76.3829 6.69865 76.927 7.08425 77.3463 7.58169C77.5258 6.86174 78.1723 6.35731 78.9144 6.35731H80.0001V15.8471L79.999 15.8436ZM74.0297 14.194C74.4374 14.194 74.823 14.1206 75.1853 13.9727C75.5488 13.8259 75.8633 13.6185 76.129 13.3518C76.3946 13.085 76.6054 12.7646 76.758 12.3907C76.9107 12.0167 76.9875 11.6078 76.9875 11.1663C76.9875 10.7015 76.9107 10.2821 76.758 9.90696C76.6054 9.53301 76.3946 9.21264 76.129 8.94586C75.8633 8.68025 75.5488 8.47289 75.1853 8.32494C74.8219 8.17699 74.4374 8.1036 74.0297 8.1036C73.622 8.1036 73.2352 8.17699 72.8729 8.32494C72.5106 8.47289 72.1949 8.67909 71.9293 8.94586C71.6637 9.21264 71.4528 9.53301 71.3002 9.90696C71.1476 10.2809 71.0707 10.7015 71.0707 11.1663C71.0707 11.6311 71.1476 12.0167 71.3002 12.3907C71.4528 12.7646 71.6625 13.085 71.9293 13.3518C72.1949 13.6174 72.5106 13.8259 72.8729 13.9727C73.2352 14.1206 73.622 14.194 74.0297 14.194Z" fill="#212121"/>
<path d="M2.62413 18.0081C2.60316 17.9906 2.58103 17.9755 2.56006 17.958C2.58103 17.9755 2.60316 17.9918 2.62413 18.0081Z" fill="#263238"/>
<path d="M0.524902 9.88485C0.541212 9.84291 0.556357 9.80097 0.572666 9.75903C0.555192 9.79981 0.541212 9.84291 0.524902 9.88485Z" fill="#263238"/>
<path d="M1.65713 17.0563C1.59422 16.9806 1.53714 16.9014 1.47656 16.8245C1.53598 16.9025 1.59422 16.9817 1.65713 17.0563Z" fill="#263238"/>
<path d="M2.17348 17.605C2.10359 17.5363 2.03485 17.4675 1.96729 17.3965C2.03485 17.4675 2.10359 17.5374 2.17348 17.605Z" fill="#263238"/>
<path d="M7.0127 19.582C7.03133 19.582 7.04997 19.5843 7.06861 19.5843C7.61615 19.5843 8.14737 19.5156 8.65879 19.3979C8.3559 19.4655 8.04835 19.5179 7.73963 19.5482C7.49849 19.5715 7.25501 19.5808 7.0127 19.582Z" fill="#263238"/>
<path d="M9.41391 19.1765C9.22053 19.2418 9.02715 19.3047 8.8291 19.3536C9.02831 19.3023 9.22286 19.2441 9.41391 19.1765Z" fill="#263238"/>
<path d="M0.0800781 13.6686C0.101047 13.8003 0.124346 13.9308 0.153471 14.0601C0.377144 15.0678 0.846625 16.0079 1.47804 16.8234C0.786047 15.9252 0.308411 14.8569 0.113862 13.6896C0.103378 13.6815 0.0905628 13.6756 0.0800781 13.6675V13.6686Z" fill="#FDFDFD"/>
<path d="M1.96741 17.3963C1.86139 17.2857 1.75655 17.1738 1.65869 17.0562C1.75771 17.1738 1.86139 17.2845 1.96741 17.3963Z" fill="#263238"/>
<path d="M4.64524 19.1823C5.40363 19.4584 6.20745 19.5831 7.01245 19.5819C5.35004 19.5691 3.8251 18.982 2.62402 18.0081C3.2298 18.5055 3.90781 18.9144 4.64407 19.1823H4.64524Z" fill="#263238"/>
<path d="M2.56011 17.9568C2.42614 17.845 2.29799 17.7261 2.17334 17.605C2.29916 17.7273 2.4273 17.845 2.56011 17.9568Z" fill="#263238"/>
<path d="M14.1355 11.9211C14.0586 11.0124 13.8058 10.1387 13.4283 9.31275C12.8435 8.03595 11.9582 6.87564 10.9516 5.88659C9.98936 4.93947 8.85236 4.02731 8.51801 2.71905C8.29434 1.843 8.48306 0.767738 8.96303 0.00119135C8.05552 -0.019778 6.86493 0.235349 6.13916 0.823656C5.46348 1.37119 4.93225 2.18783 4.68062 3.01612C4.40219 3.93178 4.4651 4.96277 4.93225 5.79689C4.93691 5.80621 4.93924 5.81553 4.9439 5.82485C5.3132 6.47024 5.905 6.97932 6.22536 7.64568C6.75426 8.36563 7.06996 9.25217 7.06996 10.2144C7.06996 12.6178 5.12214 14.5656 2.71882 14.5656C1.73908 14.5656 0.839731 14.2359 0.112793 13.6895C0.307342 14.8568 0.784977 15.9251 1.47697 16.8233C1.53754 16.9013 1.59463 16.9805 1.65754 17.0551C1.75656 17.1728 1.86141 17.2846 1.96625 17.3953C2.03382 17.4663 2.10255 17.5362 2.17245 17.6038C2.29827 17.725 2.42525 17.8438 2.55922 17.9556C2.58019 17.9731 2.60232 17.9894 2.62329 18.0057C3.82321 18.9796 5.34814 19.5668 7.01171 19.5796C7.25403 19.5796 7.49634 19.5691 7.73865 19.5458C7.63963 19.1812 7.58138 18.799 7.58138 18.403C7.58138 15.9996 9.5292 14.0518 11.9325 14.0518C12.6175 14.0518 13.2641 14.2149 13.8407 14.498C13.8466 14.5003 13.8524 14.5027 13.8582 14.505C14.1075 13.6685 14.2077 12.789 14.1331 11.9188L14.1355 11.9211Z" fill="#36C1B3"/>
<path d="M8.82878 19.3547C8.77169 19.3699 8.71577 19.385 8.65869 19.399C8.71577 19.3862 8.77169 19.3699 8.82878 19.3547Z" fill="#263238"/>
<path d="M6.22634 7.64572C6.24498 7.68416 6.26595 7.72144 6.28226 7.76105C6.69233 8.73962 6.33818 9.97914 5.47261 10.5931C4.60821 11.207 3.32092 11.1325 2.53224 10.4242C1.76569 9.7345 1.5525 8.51595 2.01732 7.59912C1.41154 8.22005 0.917598 8.94931 0.572768 9.75896C0.555294 9.8009 0.541314 9.84284 0.525004 9.88478C0.416663 10.1539 0.330455 10.4323 0.253567 10.7166C0.236093 10.7818 0.220948 10.8459 0.204639 10.9111C0.15571 11.1173 0.116102 11.327 0.085813 11.5402C-0.0201988 12.245 -0.034179 12.9638 0.0788226 13.6686C0.0893073 13.6767 0.102122 13.6826 0.112607 13.6907C0.839545 14.2371 1.7389 14.5668 2.71863 14.5668C5.12195 14.5668 7.06978 12.6189 7.06978 10.2156C7.06978 9.25337 6.75407 8.368 6.22518 7.64689L6.22634 7.64572Z" fill="#424242"/>
<path d="M13.8419 14.4992C13.2652 14.2161 12.6187 14.053 11.9337 14.053C9.53034 14.053 7.58252 16.0008 7.58252 18.4041C7.58252 18.8002 7.6396 19.1823 7.73979 19.5469C8.04851 19.5167 8.35606 19.4642 8.65895 19.3967C8.71603 19.3839 8.77195 19.3675 8.82903 19.3524C9.02708 19.3035 9.22162 19.2406 9.41384 19.1753C10.1175 18.9365 10.7885 18.6033 11.3803 18.1502C12.5674 17.2415 13.433 15.9367 13.8593 14.505C13.8535 14.5027 13.8477 14.5003 13.8419 14.498V14.4992Z" fill="#C3F0EC"/>
</svg>
