<svg width="28" height="28" viewBox="0 0 28 28" fill="none" xmlns="http://www.w3.org/2000/svg">
<path d="M24.5002 24.0333C24.3446 24.0333 24.1988 24.0041 24.0627 23.9458C23.9266 23.8874 23.8002 23.7999 23.6835 23.6833L21.0002 20.9999H9.3335C8.69183 20.9999 8.14252 20.7714 7.68558 20.3145C7.22864 19.8576 7.00016 19.3083 7.00016 18.6666V17.4999H19.8335C20.4752 17.4999 21.0245 17.2714 21.4814 16.8145C21.9384 16.3576 22.1668 15.8083 22.1668 15.1666V6.99992H23.3335C23.9752 6.99992 24.5245 7.22839 24.9814 7.68534C25.4384 8.14228 25.6668 8.69159 25.6668 9.33325V22.8374C25.6668 23.1874 25.5502 23.4742 25.3168 23.6978C25.0835 23.9214 24.8113 24.0333 24.5002 24.0333ZM3.50016 18.1999C3.18905 18.1999 2.91683 18.0881 2.6835 17.8645C2.45016 17.6409 2.3335 17.3541 2.3335 17.0041V4.66659C2.3335 4.02492 2.56197 3.47561 3.01891 3.01867C3.47586 2.56172 4.02516 2.33325 4.66683 2.33325H17.5002C18.1418 2.33325 18.6911 2.56172 19.1481 3.01867C19.605 3.47561 19.8335 4.02492 19.8335 4.66659V12.8333C19.8335 13.4749 19.605 14.0242 19.1481 14.4812C18.6911 14.9381 18.1418 15.1666 17.5002 15.1666H7.00016L4.31683 17.8499C4.20016 17.9666 4.07377 18.0541 3.93766 18.1124C3.80155 18.1708 3.65572 18.1999 3.50016 18.1999Z" fill="#424242"/>
</svg>
