<svg width="83" height="114" viewBox="0 0 83 114" fill="none" xmlns="http://www.w3.org/2000/svg">
<ellipse cx="41.5" cy="99.7188" rx="41.5" ry="14" fill="#757575"/>
<path d="M40.9993 100.124C54.2526 100.124 64.9965 89.3795 64.9965 76.1262C64.9965 62.8729 54.2526 52.1289 40.9993 52.1289C27.7459 52.1289 17.002 62.8729 17.002 76.1262C17.002 89.3795 27.7459 100.124 40.9993 100.124Z" fill="#EEEEEE"/>
<mask id="mask0_2129_9843" style="mask-type:luminance" maskUnits="userSpaceOnUse" x="17" y="52" width="48" height="49">
<path d="M41.0032 100.124C54.2565 100.124 65.0005 89.3795 65.0005 76.1262C65.0005 62.8729 54.2565 52.1289 41.0032 52.1289C27.7498 52.1289 17.0059 62.8729 17.0059 76.1262C17.0059 89.3795 27.7498 100.124 41.0032 100.124Z" fill="white"/>
</mask>
<g mask="url(#mask0_2129_9843)">
<path d="M63.0549 73.5006C63.0799 73.5006 63.1049 73.4991 63.1299 73.4944C64.3183 73.3101 65.0288 73.2492 65.0366 73.2492C65.3052 73.2273 65.5067 72.99 65.4848 72.7214C65.463 72.4512 65.2287 72.2388 64.957 72.2732C64.9273 72.2763 64.2074 72.3356 62.9816 72.5262C62.7145 72.5683 62.5303 72.8182 62.5724 73.0852C62.6099 73.3273 62.8191 73.5006 63.0565 73.5006H63.0549Z" fill="#9E9E9E"/>
<path d="M32.7544 95.6733C32.4952 95.5968 32.3468 95.3251 32.4218 95.0658C32.8013 93.7728 33.2775 92.5064 33.835 91.3024C33.949 91.0572 34.2395 90.951 34.4862 91.065C34.7314 91.179 34.8376 91.4694 34.7236 91.7162C34.1848 92.8765 33.7273 94.0976 33.3619 95.3438C33.2994 95.5577 33.1042 95.6952 32.8918 95.6952C32.8465 95.6952 32.7997 95.6889 32.7544 95.6749V95.6733ZM35.9401 88.4712C35.7152 88.3212 35.6528 88.0167 35.8027 87.7918C36.5351 86.6909 37.3643 85.6228 38.2716 84.6171C38.4527 84.4172 38.7619 84.4016 38.9634 84.5812C39.1648 84.7623 39.1804 85.0715 38.9993 85.273C38.1248 86.2427 37.3237 87.2718 36.6194 88.3337C36.5241 88.4758 36.3695 88.5524 36.2103 88.5524C36.1166 88.5524 36.0229 88.5258 35.9401 88.4712ZM41.1012 82.5167C40.9263 82.3106 40.9513 82.0014 41.159 81.8265C42.1538 80.9832 43.236 80.1759 44.3728 79.4263C44.5992 79.2779 44.9022 79.3388 45.0521 79.5653C45.2005 79.7917 45.138 80.0947 44.9131 80.2446C43.8091 80.9723 42.7597 81.7578 41.793 82.5745C41.7009 82.6526 41.5885 82.6901 41.4776 82.6901C41.3386 82.6901 41.1996 82.6307 41.1028 82.5167H41.1012ZM47.6194 78.063C47.4945 77.8225 47.5882 77.5274 47.8271 77.4024C48.9764 76.8043 50.1992 76.239 51.4578 75.7237C51.7077 75.6222 51.995 75.7409 52.0965 75.9907C52.1996 76.2406 52.0794 76.5279 51.8295 76.6294C50.5974 77.1338 49.4028 77.6851 48.28 78.2707C48.2081 78.3082 48.13 78.3269 48.0535 78.3269C47.8771 78.3269 47.7053 78.2301 47.6178 78.063H47.6194ZM54.8965 74.9788C54.8137 74.7212 54.9574 74.4463 55.2151 74.3635C56.4691 73.9653 57.7636 73.6062 59.0629 73.2985C59.3252 73.2361 59.5907 73.3985 59.6532 73.6624C59.7157 73.9263 59.5532 74.1902 59.2893 74.2527C58.0135 74.5556 56.7423 74.907 55.5118 75.2974C55.4618 75.313 55.4134 75.3208 55.3634 75.3208C55.1557 75.3208 54.9621 75.1881 54.8965 74.9788Z" fill="#9E9E9E"/>
<path d="M31.8188 101.513C32.0702 101.513 32.2841 101.321 32.306 101.064C32.3622 100.41 32.4372 99.7714 32.5309 99.1483C32.5715 98.8813 32.3856 98.6314 32.1186 98.5908C31.8547 98.5533 31.6017 98.736 31.5611 99.0031C31.4643 99.6465 31.3878 100.305 31.33 100.98C31.3066 101.25 31.5065 101.486 31.7766 101.509C31.7907 101.509 31.8047 101.511 31.8188 101.511V101.513Z" fill="#9E9E9E"/>
<path d="M16.5602 76.3299C16.4477 76.0832 16.5555 75.7927 16.8007 75.6803L16.9115 75.6303C17.1598 75.5195 17.4487 75.6335 17.558 75.8786C17.6674 76.1254 17.558 76.4158 17.3097 76.5251L17.2098 76.5704C17.1442 76.6001 17.0739 76.6157 17.0052 76.6157C16.8194 76.6157 16.6414 76.5095 16.5602 76.3299ZM20.1862 74.5669C20.0566 74.3295 20.1425 74.0312 20.3799 73.9016C21.5074 73.2832 22.6255 72.6117 23.7045 71.9043C23.9294 71.7544 24.2355 71.8184 24.3823 72.0464C24.5306 72.2729 24.4682 72.5758 24.2402 72.7242C23.1392 73.4456 21.9993 74.1296 20.8499 74.7605C20.775 74.8011 20.6938 74.8214 20.6157 74.8214C20.4423 74.8214 20.2752 74.7293 20.1862 74.5669ZM26.7778 70.3427C26.6123 70.1288 26.6529 69.8211 26.8668 69.6556C27.8803 68.8748 28.8844 68.0393 29.8495 67.1711C30.0509 66.9899 30.3601 67.0071 30.5413 67.2086C30.7224 67.41 30.7053 67.7192 30.5038 67.9004C29.52 68.7827 28.4971 69.6353 27.4649 70.4302C27.3759 70.4989 27.2713 70.5317 27.1666 70.5317C27.0199 70.5317 26.8746 70.4661 26.7778 70.3412V70.3427ZM32.6557 65.1675C32.4605 64.9801 32.4558 64.6694 32.6432 64.4757C33.5333 63.5528 34.4063 62.5799 35.2386 61.5836C35.412 61.3759 35.7212 61.3494 35.9289 61.5227C36.1365 61.6961 36.1631 62.0053 35.9898 62.213C35.1418 63.2265 34.2532 64.2165 33.3475 65.155C33.2507 65.255 33.1226 65.305 32.9946 65.305C32.8665 65.305 32.7494 65.2597 32.6542 65.1675H32.6557ZM37.7372 59.2022C37.5186 59.0429 37.4702 58.7368 37.6279 58.5182C38.3884 57.4703 39.1208 56.3866 39.8032 55.295C39.9469 55.0655 40.2498 54.9952 40.4778 55.1389C40.7074 55.2825 40.7761 55.5855 40.634 55.8135C39.9391 56.9222 39.1958 58.0263 38.4212 59.0913C38.3259 59.224 38.176 59.2943 38.0245 59.2943C37.9246 59.2943 37.8247 59.2631 37.7372 59.2006V59.2022ZM41.9504 52.5903C41.7115 52.4638 41.6194 52.1671 41.7459 51.9282C42.8671 49.806 43.3871 48.4427 43.3918 48.4286C43.4886 48.1756 43.7713 48.0476 44.0227 48.1428C44.2757 48.2397 44.4037 48.5207 44.3085 48.7737C44.2866 48.8315 43.765 50.2026 42.611 52.3857C42.5235 52.5513 42.3533 52.6465 42.1769 52.6465C42.1003 52.6465 42.0207 52.6278 41.9489 52.5887L41.9504 52.5903Z" fill="#9E9E9E"/>
</g>
<path d="M55.375 0C58.9539 0 61.8555 2.90155 61.8555 6.48047V28.8779C61.8555 32.4568 58.9539 35.3584 55.375 35.3584H47.0645L44.165 40.3828H44.1641C43.7551 41.0896 42.7353 41.0894 42.3262 40.3828L39.4258 35.3584H31.1211C27.5422 35.3584 24.6406 32.4568 24.6406 28.8779V6.48047C24.6406 2.90155 27.5422 0 31.1211 0H55.375Z" fill="#757575"/>
<path d="M41.9007 27.6423C41.495 27.4033 41.1769 27.0869 40.9463 26.693C40.714 26.2991 40.6029 25.8632 40.6097 25.3869C40.6029 24.9173 40.7157 24.4847 40.9463 24.0908C41.1769 23.697 41.4967 23.3822 41.9007 23.1516C42.3063 22.921 42.7456 22.8049 43.2236 22.8049C43.7016 22.8049 44.109 22.921 44.5096 23.1516C44.9118 23.3839 45.2316 23.6987 45.469 24.0959C45.708 24.4948 45.8292 24.924 45.8359 25.3869C45.8292 25.8565 45.7063 26.2907 45.469 26.688C45.23 27.0869 44.9102 27.405 44.5096 27.6423C44.1073 27.8813 43.6798 27.9991 43.2236 27.9991C42.7675 27.9991 42.3063 27.8796 41.9007 27.6423ZM45.2754 21.3338H41.1617L40.7123 6.80469H45.7248L45.2754 21.3338Z" fill="white"/>
</svg>
