<svg width="164" height="250" viewBox="0 0 164 250" fill="none" xmlns="http://www.w3.org/2000/svg">
<g clip-path="url(#clip0_3255_2899)">
<path d="M6.2063 151.162L6.99058 175.363L0.00713539 186.906L-1.1295 197.899C-1.205 198.633 -0.923963 199.358 -0.378706 199.853C1.0138 201.107 3.24512 200.269 3.45902 198.406L3.66454 196.645C3.71068 196.246 4.2937 196.267 4.31467 196.666L5.14933 211.748C5.21644 212.965 6.31111 213.858 7.51486 213.686L24.2333 211.266C25.2525 211.119 26.0117 210.243 26.0075 209.211L25.9697 181.029L37.7431 150.008L5.74909 136.998L6.2063 151.162Z" fill="#00CE1D"/>
<path d="M12.2527 212.998L11.6025 196.959" stroke="#3E9306" stroke-width="2.15167" stroke-miterlimit="10"/>
<path d="M19.2331 211.937L18.583 195.894" stroke="#3E9306" stroke-width="2.15167" stroke-miterlimit="10"/>
<path d="M156.965 151.162L156.18 175.363L163.164 186.906L164.3 197.899C164.376 198.633 164.095 199.358 163.55 199.853C162.157 201.107 159.926 200.269 159.712 198.406L159.506 196.645C159.46 196.246 158.877 196.267 158.856 196.666L158.022 211.748C157.954 212.965 156.86 213.858 155.656 213.686L138.938 211.266C137.918 211.119 137.159 210.243 137.163 209.211L137.201 181.029L125.428 150.008L157.422 136.998L156.965 151.162Z" fill="#00CE1D"/>
<path d="M150.916 212.998L151.566 196.959" stroke="#3E9306" stroke-width="2.15167" stroke-miterlimit="10"/>
<path d="M143.936 211.937L144.586 195.894" stroke="#3E9306" stroke-width="2.15167" stroke-miterlimit="10"/>
<path d="M46.4754 188.659L53.7944 211.3C53.9873 211.899 53.8279 212.558 53.3833 213.002L46.1524 220.233C45.0954 221.29 45.8421 223.098 47.3394 223.098H78.4358C79.3627 223.098 80.1135 222.347 80.1135 221.42V197.37C80.1135 196.632 79.6311 195.982 78.9223 195.764L48.5557 186.532C47.2597 186.138 46.0559 187.363 46.4712 188.655L46.4754 188.659Z" fill="#00CE1D"/>
<path d="M116.697 188.533L109.378 211.174C109.185 211.773 109.344 212.432 109.789 212.877L117.02 220.107C118.077 221.164 117.33 222.972 115.833 222.972H84.7363C83.8094 222.972 83.0586 222.221 83.0586 221.294V197.244C83.0586 196.506 83.541 195.856 84.2498 195.638L114.616 186.406C115.912 186.012 117.116 187.237 116.701 188.529L116.697 188.533Z" fill="#00CE1D"/>
<path d="M82.0586 198.65C38.5093 198.65 3.20605 163.346 3.20605 119.797V115.12C3.20605 76.8811 21.4764 27.1326 75.4149 7.37336C81.2366 5.23847 87.3854 9.62568 87.2596 15.829L86.9072 32.7739C86.8066 37.6142 91.2148 41.2716 95.9627 40.3363C112.534 37.0689 100.908 25.4507 111.838 28.3658C143.295 36.7543 160.911 88.0798 160.911 115.125V119.801C160.911 163.35 125.608 198.654 82.0586 198.654V198.65Z" fill="#00CE1D"/>
<mask id="mask0_3255_2899" style="mask-type:luminance" maskUnits="userSpaceOnUse" x="2" y="6" width="159" height="193">
<path d="M81.7949 198.65C38.2457 198.65 2.94238 163.346 2.94238 119.797V115.12C2.94238 76.8811 21.2126 27.1327 75.1512 7.37342C80.9728 5.23853 87.1216 9.62574 86.9958 15.8291L86.6436 32.774C86.5429 37.6142 90.951 41.2716 95.6989 40.3363C112.271 37.069 100.644 25.4508 111.574 28.3658C143.031 36.7544 160.647 88.0799 160.647 115.125V119.801C160.647 163.35 125.344 198.654 81.7949 198.654V198.65Z" fill="white"/>
</mask>
<g mask="url(#mask0_3255_2899)">
<path d="M34.3994 170.967C34.3994 170.967 56.6291 189.875 81.7948 189.875C106.961 189.875 133.385 170.967 133.385 170.967" stroke="#08A347" stroke-width="20.1326" stroke-miterlimit="10" stroke-linecap="round"/>
</g>
<path d="M81.5854 184.389C119.459 184.389 150.162 155.47 150.162 119.797C150.162 84.1238 119.459 55.205 81.5854 55.205C43.7116 55.205 13.0088 84.1238 13.0088 119.797C13.0088 155.47 43.7116 184.389 81.5854 184.389Z" fill="#4BEA2A"/>
<mask id="mask1_3255_2899" style="mask-type:luminance" maskUnits="userSpaceOnUse" x="13" y="55" width="138" height="130">
<path d="M81.5863 184.389C119.46 184.389 150.163 155.47 150.163 119.797C150.163 84.1238 119.46 55.205 81.5863 55.205C43.7125 55.205 13.0098 84.1238 13.0098 119.797C13.0098 155.47 43.7125 184.389 81.5863 184.389Z" fill="white"/>
</mask>
<g mask="url(#mask1_3255_2899)">
<path d="M10.1152 109.655C24.0612 117.863 55.296 142.081 42.6754 189.103" stroke="#009B12" stroke-width="2.51657" stroke-miterlimit="10"/>
<path d="M154.097 109.655C140.151 117.863 108.916 142.081 121.536 189.103" stroke="#009B12" stroke-width="2.51657" stroke-miterlimit="10"/>
<path d="M148.812 123.052C148.812 123.052 148.812 109.563 127.84 89.6695C104.256 67.293 28.0165 63.0316 11.6588 126.089C11.6588 126.089 -1.90556 48.0077 98.8999 48.532C141.468 48.7543 154.344 99.2828 148.812 123.052Z" fill="#CEFF80"/>
</g>
<path d="M124.998 97.9881C128.495 94.491 127.292 87.6181 122.311 82.637C117.33 77.6559 110.457 76.4529 106.96 79.95C103.463 83.4471 104.666 90.32 109.647 95.3011C114.628 100.282 121.501 101.485 124.998 97.9881Z" fill="#CEFF80"/>
<path d="M96.4213 133.542L96.0185 133.839C87.5796 140.11 75.9951 139.988 67.6904 133.542" stroke="#804002" stroke-width="3.77486" stroke-miterlimit="10" stroke-linecap="round"/>
<path d="M63.1305 123.572C66.9527 123.572 70.0511 119.159 70.0511 113.715C70.0511 108.272 66.9527 103.859 63.1305 103.859C59.3084 103.859 56.21 108.272 56.21 113.715C56.21 119.159 59.3084 123.572 63.1305 123.572Z" fill="#4F2E29"/>
<path d="M99.6208 123.572C103.443 123.572 106.541 119.159 106.541 113.715C106.541 108.272 103.443 103.859 99.6208 103.859C95.7986 103.859 92.7002 108.272 92.7002 113.715C92.7002 119.159 95.7986 123.572 99.6208 123.572Z" fill="#4F2E29"/>
</g>
<defs>
<clipPath id="clip0_3255_2899">
<rect width="163.779" height="250" fill="white"/>
</clipPath>
</defs>
</svg>
