<svg width="48" height="59" viewBox="0 0 48 59" fill="none" xmlns="http://www.w3.org/2000/svg">
<path d="M24.0398 58.2878C10.8069 58.2878 0.0795898 47.5605 0.0795898 34.3276V32.9065C0.0795898 21.2871 5.63125 6.17048 22.0211 0.166402C23.79 -0.482308 25.6584 0.850795 25.6202 2.73575L25.5131 7.88466C25.4825 9.35541 26.822 10.4668 28.2647 10.1825C33.3002 9.18973 29.7673 5.65941 33.0886 6.54518C42.6472 9.09414 48.0001 24.69 48.0001 32.9078V34.3288C48.0001 47.5618 37.2728 58.2891 24.0398 58.2891V58.2878Z" fill="#00CE1D"/>
<mask id="mask0_3337_3172" style="mask-type:luminance" maskUnits="userSpaceOnUse" x="0" y="0" width="48" height="59">
<path d="M23.9602 58.2876C10.7273 58.2876 0 47.5603 0 34.3273V32.9063C0 21.2868 5.55162 6.17024 21.9414 0.166158C23.7104 -0.482552 25.5788 0.850551 25.5406 2.73551L25.4335 7.88441C25.403 9.35516 26.7424 10.4665 28.1851 10.1823C33.2206 9.18948 29.6877 5.65917 33.009 6.54493C42.5676 9.09389 47.9205 24.6897 47.9205 32.9076V34.3286C47.9205 47.5615 37.1932 58.2888 23.9602 58.2888V58.2876Z" fill="white"/>
</mask>
<g mask="url(#mask0_3337_3172)">
<path d="M9.55859 49.8765C9.55859 49.8765 16.3133 55.6218 23.9602 55.6218C31.6071 55.6218 39.6363 49.8765 39.6363 49.8765" stroke="#08A347" stroke-width="6.11751" stroke-miterlimit="10" stroke-linecap="round"/>
</g>
<path d="M23.8959 53.9544C35.4042 53.9544 44.7336 45.1671 44.7336 34.3274C44.7336 23.4877 35.4042 14.7004 23.8959 14.7004C12.3875 14.7004 3.05811 23.4877 3.05811 34.3274C3.05811 45.1671 12.3875 53.9544 23.8959 53.9544Z" fill="#4BEA2A"/>
<mask id="mask1_3337_3172" style="mask-type:luminance" maskUnits="userSpaceOnUse" x="3" y="14" width="42" height="40">
<path d="M23.8963 53.9544C35.4047 53.9544 44.7341 45.1671 44.7341 34.3274C44.7341 23.4877 35.4047 14.7004 23.8963 14.7004C12.388 14.7004 3.05859 23.4877 3.05859 34.3274C3.05859 45.1671 12.388 53.9544 23.8963 53.9544Z" fill="white"/>
</mask>
<g mask="url(#mask1_3337_3172)">
<path d="M2.17871 31.2458C6.41636 33.74 15.9074 41.0989 12.0725 55.3871" stroke="#009B12" stroke-width="0.764688" stroke-miterlimit="10"/>
<path d="M45.9294 31.2458C41.6918 33.74 32.2008 41.0989 36.0357 55.3871" stroke="#009B12" stroke-width="0.764688" stroke-miterlimit="10"/>
<path d="M44.3232 35.3166C44.3232 35.3166 44.3232 31.2179 37.9508 25.173C30.7844 18.3737 7.61821 17.0788 2.64774 36.2393C2.64774 36.2393 -1.47393 12.5136 29.1569 12.6729C42.0916 12.7405 46.0043 28.0941 44.3232 35.3166Z" fill="#CEFF80"/>
</g>
<path d="M37.0877 27.7008C38.1504 26.6382 37.7848 24.5498 36.2713 23.0362C34.7577 21.5227 32.6693 21.1571 31.6067 22.2197C30.5441 23.2824 30.9096 25.3708 32.4231 26.8843C33.9367 28.3979 36.0251 28.7634 37.0877 27.7008Z" fill="#CEFF80"/>
<path d="M28.404 38.5042L28.2816 38.5946C25.7174 40.5 22.1973 40.463 19.6738 38.5042" stroke="#804002" stroke-width="1.14703" stroke-miterlimit="10" stroke-linecap="round"/>
<path d="M18.288 35.4747C19.4493 35.4747 20.3908 34.1338 20.3908 32.4796C20.3908 30.8255 19.4493 29.4846 18.288 29.4846C17.1266 29.4846 16.1851 30.8255 16.1851 32.4796C16.1851 34.1338 17.1266 35.4747 18.288 35.4747Z" fill="#4F2E29"/>
<path d="M29.3763 35.4747C30.5377 35.4747 31.4792 34.1338 31.4792 32.4796C31.4792 30.8255 30.5377 29.4846 29.3763 29.4846C28.2149 29.4846 27.2734 30.8255 27.2734 32.4796C27.2734 34.1338 28.2149 35.4747 29.3763 35.4747Z" fill="#4F2E29"/>
</svg>
