<svg width="72" height="74" viewBox="0 0 72 74" fill="none" xmlns="http://www.w3.org/2000/svg">
<path d="M3.66211 60.1501C3.66211 54.593 18.1431 50.0852 35.9991 50.0852C53.8551 50.0852 68.3361 54.593 68.3361 60.1501C68.3361 65.7072 53.8551 70.215 35.9991 70.215C18.1431 70.215 3.66211 65.7072 3.66211 60.1501Z" fill="#212121"/>
<path d="M56.6647 27.738H14.7967C13.5727 30.5759 12.8887 33.7058 12.8887 36.9999C12.8887 49.784 23.1127 60.15 35.7217 60.15C48.3307 60.15 58.5547 49.784 58.5547 36.9999C58.5547 33.7058 57.8707 30.5759 56.6467 27.738H56.6647Z" fill="#4EB65A"/>
<path d="M25.8398 48.7348C27.4688 51.4996 30.8708 54.2006 37.9718 54.2006C45.0728 54.2006 48.6368 51.3719 50.2208 48.5431C38.7278 41.7906 27.0098 48.0778 25.8398 48.7348Z" fill="#3F8F46"/>
<path d="M49.9779 42.8765H25.9659C25.0569 42.8765 24.3369 43.6795 24.4539 44.6011C24.5889 45.7143 24.9489 47.2382 25.8399 48.7347C27.0099 48.0686 38.7279 41.7906 50.2209 48.5431C51.0219 47.1013 51.3549 45.6687 51.4899 44.6011C51.6069 43.6795 50.8869 42.8765 49.9779 42.8765Z" fill="#212121"/>
<path d="M62.9647 24.8454H56.1337C54.9907 21.6973 53.7397 18.9872 51.1837 16.8793C48.1957 14.4156 42.9127 12.0613 38.4577 11.2583C38.4937 11.1671 38.5117 11.0667 38.5117 10.9663C38.5117 10.0903 37.1887 9.3877 35.5507 9.3877C33.9127 9.3877 32.5897 10.0994 32.5897 10.9663C32.5897 11.0576 32.6077 11.1488 32.6437 11.2401C27.6937 12.0978 21.8617 14.8901 18.6127 17.9652C15.6337 20.7848 15.6877 21.3688 14.4277 28.7236H62.9557C63.8017 28.7236 64.4947 28.0209 64.4947 27.1632V26.4149C64.4947 25.5572 63.8017 24.8546 62.9557 24.8546L62.9647 24.8454Z" fill="#A4D4AA"/>
<path d="M29.6737 39.9382C29.3497 39.9382 29.0437 39.7648 28.8817 39.4545C28.6567 39.0165 28.8187 38.469 29.2507 38.2318L35.0017 35.1658L29.2417 32.1272C28.8097 31.8899 28.6387 31.3515 28.8727 30.9044C29.1067 30.4573 29.6377 30.293 30.0787 30.5303L35.8027 33.6054C36.3787 33.943 36.7207 34.5179 36.7297 35.1658C36.7387 35.8046 36.4237 36.3885 35.8837 36.7262L30.0787 39.8287C29.9437 39.9017 29.8087 39.929 29.6647 39.929L29.6737 39.9382Z" fill="#212121"/>
<path d="M48.5281 39.9382C48.3841 39.9382 48.2491 39.9017 48.1141 39.8379L42.3631 36.7719C41.7691 36.4069 41.4541 35.8229 41.4631 35.175C41.4721 34.5271 41.8051 33.9522 42.3631 33.6329L48.1141 30.5395C48.5461 30.3022 49.0861 30.4756 49.3201 30.9136C49.5541 31.3516 49.3831 31.8991 48.9511 32.1364L43.2271 35.2115L48.9511 38.241C49.3831 38.4691 49.5541 39.0166 49.3201 39.4637C49.1581 39.774 48.8521 39.9474 48.5281 39.9474V39.9382Z" fill="#212121"/>
</svg>
