<svg width="108" height="112" viewBox="0 0 108 112" fill="none" xmlns="http://www.w3.org/2000/svg">
<path d="M5.08945 87.4829C5.85414 86.636 6.82105 85.9756 7.98072 85.5017C9.14039 85.0277 10.4486 84.7907 11.8989 84.7907C13.0712 84.7907 14.1993 85.0277 15.2895 85.5017C16.3796 85.9756 17.3465 86.6329 18.1965 87.4702C19.0434 88.3076 19.7196 89.3061 20.2252 90.4658C20.7307 91.6255 20.9835 92.8925 20.9835 94.2639C20.9835 95.6353 20.7371 96.8329 20.241 97.9736C19.7449 99.1143 19.0845 100.097 18.2566 100.925C17.4287 101.753 16.4649 102.41 15.3653 102.893C14.2657 103.377 13.0997 103.63 11.8705 103.652C11.2038 103.671 10.537 103.617 9.87347 103.484C9.20675 103.352 8.57161 103.162 7.96492 102.909C7.36139 102.657 6.79262 102.344 6.27124 101.971C5.7467 101.598 5.29169 101.178 4.90934 100.713L4.36585 103.045H0.308594V84.0039C0.308594 81.3622 2.45098 79.2199 5.09261 79.2199V87.4829H5.08945ZM10.932 99.9548C11.6588 99.9548 12.3445 99.8221 12.9891 99.563C13.6337 99.3007 14.1962 98.9215 14.6701 98.4286C15.1441 97.9325 15.517 97.3353 15.7887 96.6275C16.0605 95.9197 16.1995 95.1329 16.1995 94.2639C16.1995 93.395 16.0636 92.5481 15.7887 91.8435C15.5138 91.1388 15.1441 90.5353 14.6701 90.0424C14.1962 89.5463 13.6337 89.1703 12.9891 88.908C12.3445 88.6457 11.6588 88.513 10.932 88.513C10.2053 88.513 9.51957 88.6457 8.87496 88.908C8.22719 89.1703 7.6679 89.5494 7.19392 90.0424C6.71994 90.5353 6.34708 91.1357 6.07533 91.8435C5.80358 92.5513 5.66455 93.357 5.66455 94.2639C5.66455 95.1708 5.80042 95.9197 6.07533 96.6275C6.35024 97.3353 6.71994 97.9357 7.19392 98.4286C7.6679 98.9215 8.22719 99.3007 8.87496 99.563C9.51957 99.8253 10.2053 99.9548 10.932 99.9548Z" fill="white"/>
<path d="M41.7279 85.3942H43.6586V103.045H39.6013L39.0262 100.713C38.6628 101.178 38.2173 101.595 37.6959 101.971C37.1714 102.344 36.5994 102.656 35.9864 102.909C35.3703 103.162 34.7288 103.352 34.0621 103.484C33.3985 103.617 32.7413 103.671 32.0935 103.652C30.8611 103.63 29.6983 103.38 28.5987 102.893C27.4991 102.41 26.529 101.753 25.6916 100.925C24.8511 100.097 24.1907 99.1143 23.7072 97.9736C23.2206 96.836 22.9805 95.5974 22.9805 94.2639C22.9805 92.9304 23.2333 91.6254 23.7357 90.4658C24.2413 89.3061 24.9175 88.3076 25.7643 87.4702C26.6111 86.6329 27.5812 85.9756 28.6714 85.5016C29.7615 85.0277 30.8896 84.7907 32.0619 84.7907C33.5154 84.7907 34.8362 85.034 36.0275 85.5174C37.2188 86.0009 38.1888 86.6897 38.9346 87.5745C39.2537 86.2948 40.4071 85.3942 41.7247 85.3942H41.7279ZM33.0351 99.9548C33.7619 99.9548 34.4476 99.8221 35.0922 99.563C35.74 99.3007 36.2993 98.9215 36.7732 98.4286C37.2472 97.9356 37.6201 97.3353 37.895 96.6275C38.1699 95.9197 38.3026 95.1329 38.3026 94.2639C38.3026 93.3949 38.1667 92.5481 37.895 91.8435C37.6232 91.1357 37.2472 90.5353 36.7732 90.0423C36.2993 89.5494 35.74 89.1702 35.0922 88.908C34.4444 88.6457 33.7619 88.513 33.0351 88.513C32.3084 88.513 31.6227 88.6457 30.9749 88.908C30.3271 89.1702 29.7678 89.5494 29.2939 90.0423C28.8199 90.5384 28.447 91.1357 28.1721 91.8435C27.8972 92.5513 27.7645 93.357 27.7645 94.2639C27.7645 95.1708 27.9004 95.9197 28.1721 96.6275C28.4439 97.3353 28.8167 97.9356 29.2939 98.4286C29.7678 98.9247 30.3271 99.3007 30.9749 99.563C31.6195 99.8253 32.3084 99.9548 33.0351 99.9548Z" fill="white"/>
<path d="M52.409 79.2199V103.045H47.625V84.0039C47.625 81.3623 49.7674 79.2199 52.409 79.2199Z" fill="white"/>
<path d="M61.158 79.2199V103.045H56.374V84.0039C56.374 81.3623 58.5164 79.2199 61.158 79.2199Z" fill="white"/>
<path d="M64.0654 94.2639C64.0654 92.7725 64.3372 91.4169 64.8838 90.2067C65.4273 88.9965 66.1699 87.9663 67.1084 87.1163C68.0468 86.2695 69.1433 85.6186 70.3946 85.1636C71.6459 84.7085 72.9794 84.481 74.3918 84.481C75.8043 84.481 77.1061 84.7085 78.3575 85.1636C79.6088 85.6186 80.7052 86.2695 81.6405 87.1163C82.579 87.9632 83.3279 88.9933 83.8809 90.2067C84.437 91.4169 84.7119 92.7693 84.7119 94.2639C84.7119 95.7585 84.4339 97.1015 83.8809 98.2927C83.3247 99.484 82.579 100.498 81.6405 101.336C80.7021 102.173 79.6088 102.821 78.3575 103.273C77.1061 103.728 75.7853 103.955 74.3918 103.955C72.9983 103.955 71.6491 103.728 70.3946 103.273C69.1402 102.818 68.0468 102.173 67.1084 101.336C66.1699 100.498 65.4273 99.484 64.8838 98.2927C64.3403 97.1015 64.0654 95.7585 64.0654 94.2639ZM74.3887 100.29C75.1755 100.29 75.9117 100.141 76.5974 99.8505C77.2831 99.5598 77.874 99.1459 78.3669 98.6087C78.8599 98.0716 79.2517 97.4364 79.5329 96.7002C79.8141 95.9639 79.9563 95.1518 79.9563 94.2639C79.9563 93.376 79.8141 92.5229 79.5329 91.7677C79.2517 91.0125 78.863 90.371 78.3669 89.8465C77.8708 89.3219 77.2831 88.9111 76.5974 88.6204C75.9117 88.3266 75.1755 88.1812 74.3887 88.1812C73.6019 88.1812 72.8403 88.3329 72.1641 88.6362C71.4879 88.9396 70.9034 89.3567 70.4073 89.8939C69.9112 90.4279 69.5225 91.0693 69.2413 91.815C68.96 92.5639 68.8178 93.3792 68.8178 94.2671C68.8178 95.155 68.96 95.9671 69.2413 96.7033C69.5225 97.4396 69.9112 98.0779 70.4073 98.6119C70.9034 99.1459 71.4879 99.5598 72.1641 99.8537C72.8403 100.148 73.5829 100.293 74.3887 100.293V100.29Z" fill="white"/>
<path d="M107.691 102.287C107.691 103.699 107.454 104.966 106.98 106.085C106.506 107.204 105.846 108.164 104.996 108.96C104.149 109.757 103.138 110.379 101.969 110.822C100.796 111.264 99.5165 111.498 98.123 111.517C96.8306 111.558 95.5951 111.435 94.4133 111.153C93.2315 110.872 92.1793 110.436 91.2503 109.852C90.3213 109.267 89.5566 108.515 88.9499 107.595C88.9436 107.586 88.9373 107.576 88.931 107.567C88.0178 106.167 89.13 104.309 90.8016 104.309H92.7038C92.7828 105.459 93.2536 106.338 94.11 106.941C94.9663 107.545 96.0722 107.848 97.4246 107.848C98.2114 107.848 98.9382 107.738 99.6049 107.516C100.269 107.295 100.853 106.951 101.346 106.486C101.842 106.022 102.224 105.44 102.496 104.745C102.768 104.047 102.904 103.216 102.904 102.246V100.126C102.155 101.115 101.188 101.844 99.9968 102.322C98.8055 102.796 97.5163 103.033 96.1228 103.033C94.8904 103.033 93.7276 102.811 92.628 102.366C91.5284 101.92 90.5583 101.295 89.7209 100.489C88.8804 99.6831 88.22 98.7225 87.7365 97.6134C87.2499 96.5043 87.0098 95.2815 87.0098 93.9512C87.0098 92.6209 87.2625 91.3285 87.765 90.1972C88.2674 89.066 88.9468 88.1023 89.7936 87.306C90.6404 86.5097 91.6105 85.8872 92.7007 85.4448C93.7908 84.9993 94.9189 84.7781 96.0912 84.7781C97.5447 84.7781 98.8655 85.0214 100.057 85.5049C101.248 85.9883 102.218 86.6772 102.964 87.5619C103.283 86.2822 104.436 85.3816 105.754 85.3816H107.685V102.274L107.691 102.287ZM97.0644 99.3514C97.7912 99.3514 98.4769 99.2186 99.1215 98.9564C99.7693 98.6941 100.329 98.3244 100.803 97.8504C101.277 97.3764 101.649 96.8045 101.924 96.1409C102.199 95.4774 102.332 94.7474 102.332 93.9606C102.332 93.1328 102.196 92.387 101.924 91.7203C101.653 91.0536 101.277 90.4848 100.803 90.0108C100.329 89.5368 99.7693 89.1703 99.1215 88.9049C98.4737 88.6394 97.7912 88.5099 97.0644 88.5099C96.3377 88.5099 95.652 88.6426 95.0042 88.9049C94.3564 89.1671 93.7971 89.5368 93.3231 90.0108C92.8492 90.4848 92.4763 91.0567 92.2014 91.7203C91.9265 92.3839 91.7938 93.1328 91.7938 93.9606C91.7938 94.7885 91.9297 95.4742 92.2014 96.1409C92.4732 96.8077 92.846 97.3764 93.3231 97.8504C93.7971 98.3244 94.3564 98.6941 95.0042 98.9564C95.6488 99.2186 96.3377 99.3514 97.0644 99.3514Z" fill="white"/>
<path d="M39.566 58.747C39.4965 58.6901 39.4269 58.6396 39.3574 58.5827C39.4238 58.6396 39.4965 58.6901 39.566 58.747Z" fill="#263238"/>
<path d="M32.7666 32.4318C32.8203 32.2959 32.8677 32.1569 32.9246 32.0241C32.8677 32.1569 32.8235 32.2959 32.7666 32.4318Z" fill="#263238"/>
<path d="M36.4352 55.6632C36.2298 55.4199 36.0465 55.1608 35.8506 54.9111C36.0433 55.1639 36.2298 55.4199 36.4352 55.6632Z" fill="#263238"/>
<path d="M38.1064 57.4421C37.8789 57.2209 37.6546 56.9966 37.4365 56.7659C37.6546 56.9966 37.8757 57.2209 38.1064 57.4421Z" fill="#263238"/>
<path d="M53.7793 63.844C53.8393 63.844 53.8994 63.8535 53.9594 63.8535C55.7321 63.8535 57.451 63.6323 59.11 63.2499C58.1273 63.468 57.1351 63.6386 56.1334 63.7365C55.3497 63.8124 54.5661 63.844 53.7793 63.844Z" fill="#263238"/>
<path d="M61.559 62.5326C60.9333 62.7443 60.3045 62.9466 59.6631 63.1077C60.3077 62.9434 60.9397 62.7538 61.559 62.5326Z" fill="#263238"/>
<path d="M31.3232 44.6889C31.3928 45.1155 31.4686 45.5389 31.5602 45.9592C32.2838 49.2233 33.8069 52.2662 35.8513 54.911C33.611 52.0008 32.0595 48.5408 31.4307 44.7584C31.3959 44.7331 31.358 44.7142 31.3232 44.6889Z" fill="#263238"/>
<path d="M37.4362 56.7658C37.095 56.4056 36.7537 56.0454 36.4346 55.6631C36.7537 56.0454 37.0918 56.4056 37.4362 56.7658Z" fill="#263238"/>
<path d="M46.1144 62.5515C48.5696 63.4457 51.1733 63.8502 53.7833 63.8439C48.3958 63.8028 43.4569 61.9005 39.5703 58.7439C41.5326 60.3554 43.7255 61.6793 46.1144 62.5483V62.5515Z" fill="#263238"/>
<path d="M39.3609 58.5827C38.9248 58.2225 38.5141 57.8338 38.1064 57.442C38.5141 57.837 38.928 58.2162 39.3609 58.5827Z" fill="#263238"/>
<path d="M76.849 39.0297C76.5994 36.0879 75.781 33.2535 74.5581 30.5802C72.6653 26.444 69.7962 22.6869 66.5384 19.4828C63.4196 16.4146 59.7384 13.4602 58.6577 9.22279C57.9341 6.38524 58.5439 2.96312 60.0986 0.479479C57.1599 0.413122 53.3017 1.17464 50.954 3.08003C48.7674 4.85271 47.0452 7.50068 46.23 10.1802C45.3294 13.1473 45.5317 16.4873 47.0452 19.189C47.061 19.2174 47.0673 19.2522 47.0831 19.2806C48.2807 21.3693 50.1956 23.0187 51.2352 25.1769C52.9478 27.5089 53.9716 30.3812 53.9716 33.4968C53.9716 41.2827 47.6614 47.5929 39.8755 47.5929C36.703 47.5929 33.7896 46.5249 31.4355 44.7553C32.0644 48.5345 33.6127 51.9946 35.8562 54.908C36.0521 55.1607 36.2354 55.4167 36.4408 55.66C36.7599 56.0392 37.098 56.4026 37.4424 56.7628C37.6605 56.9935 37.8848 57.2178 38.1123 57.439C38.5199 57.8308 38.9307 58.2163 39.3668 58.5797C39.4331 58.6366 39.5058 58.6871 39.5753 58.744C43.462 61.8976 48.404 63.7998 53.7884 63.844C54.572 63.844 55.3588 63.8124 56.1425 63.7366C55.8201 62.5548 55.6337 61.3162 55.6337 60.0333C55.6337 52.2474 61.9439 45.9371 69.7298 45.9371C71.9512 45.9371 74.043 46.468 75.9105 47.3812C75.9295 47.3907 75.9484 47.397 75.9674 47.4065C76.7731 44.6985 77.0986 41.8483 76.8585 39.0297H76.849Z" fill="#686868"/>
<path d="M59.6631 63.1077C59.4798 63.1551 59.2966 63.2057 59.1133 63.2499C59.2997 63.2088 59.4798 63.1551 59.6631 63.1077Z" fill="#263238"/>
<path d="M51.2328 25.18C51.2928 25.3064 51.3623 25.4265 51.4161 25.5529C52.7432 28.7222 51.5962 32.7384 48.7965 34.7259C45.9969 36.7135 41.8259 36.4765 39.2727 34.1793C36.7891 31.9484 36.0971 27.9986 37.6043 25.0283C35.6421 27.038 34.0432 29.4016 32.9246 32.0242C32.8677 32.1601 32.8235 32.296 32.7666 32.4319C32.4158 33.3008 32.1346 34.2077 31.8882 35.1241C31.8313 35.3358 31.7807 35.5443 31.7302 35.756C31.5722 36.4259 31.4458 37.1053 31.3447 37.7941C31.0002 40.0787 30.956 42.4044 31.3225 44.6858C31.3573 44.7111 31.3952 44.73 31.43 44.7553C33.7841 46.5248 36.6975 47.5928 39.8699 47.5928C47.6558 47.5928 53.9661 41.2826 53.9661 33.4967C53.9661 30.3811 52.9423 27.512 51.2296 25.1768L51.2328 25.18Z" fill="#263238"/>
<path d="M75.9028 47.3842C74.0353 46.4679 71.9435 45.9402 69.7221 45.9402C61.9362 45.9402 55.626 52.2504 55.626 60.0363C55.626 61.3192 55.8124 62.5579 56.1347 63.7396C57.1364 63.6417 58.1317 63.4711 59.1113 63.253C59.2977 63.2088 59.4778 63.1582 59.6611 63.1108C60.3026 62.9528 60.9314 62.7475 61.557 62.5357C63.8384 61.7647 66.0093 60.6809 67.9241 59.2147C71.7697 56.2698 74.5725 52.045 75.9565 47.4095C75.9375 47.4 75.9186 47.3937 75.8996 47.3842H75.9028Z" fill="#AFAFAF"/>
</svg>
