<svg width="48" height="59" viewBox="0 0 48 59" fill="none" xmlns="http://www.w3.org/2000/svg">
<path d="M24.0527 58.256C10.827 58.256 0.105469 47.5345 0.105469 34.3087V32.8884C0.105469 21.2753 5.6541 6.16689 22.035 0.166068C23.8031 -0.482291 25.6704 0.850089 25.6322 2.73402L25.5252 7.88014C25.4946 9.35009 26.8334 10.4608 28.2753 10.1768C33.3081 9.1845 29.7771 5.6561 33.0966 6.54138C42.65 9.08896 48 24.6763 48 32.8897V34.31C48 47.5357 37.2785 58.2572 24.0527 58.2572V58.256Z" fill="#AFAFAF"/>
<mask id="mask0_3337_3469" style="mask-type:luminance" maskUnits="userSpaceOnUse" x="0" y="0" width="48" height="59">
<path d="M23.9472 58.256C10.7215 58.256 0 47.5345 0 34.3087V32.8884C0 21.2753 5.54863 6.16689 21.9296 0.166068C23.6976 -0.482291 25.565 0.850089 25.5267 2.73402L25.4197 7.88014C25.3892 9.35009 26.7279 10.4608 28.1699 10.1768C33.2026 9.1845 29.6716 5.6561 32.9911 6.54138C42.5446 9.08896 47.8945 24.6763 47.8945 32.8897V34.31C47.8945 47.5357 37.173 58.2572 23.9472 58.2572V58.256Z" fill="white"/>
</mask>
<g mask="url(#mask0_3337_3469)">
<path d="M9.55322 49.8489C9.55322 49.8489 16.3043 55.5911 23.947 55.5911C31.5898 55.5911 39.6147 49.8489 39.6147 49.8489" stroke="#8E8E8E" stroke-width="6.11419" stroke-miterlimit="10" stroke-linecap="round"/>
</g>
<path d="M23.8831 53.9249C35.3852 53.9249 44.7096 45.1423 44.7096 34.3085C44.7096 23.4747 35.3852 14.6921 23.8831 14.6921C12.381 14.6921 3.05664 23.4747 3.05664 34.3085C3.05664 45.1423 12.381 53.9249 23.8831 53.9249Z" fill="#EFEFEF"/>
<mask id="mask1_3337_3469" style="mask-type:luminance" maskUnits="userSpaceOnUse" x="3" y="14" width="42" height="40">
<path d="M23.8831 53.9249C35.3852 53.9249 44.7096 45.1423 44.7096 34.3085C44.7096 23.4747 35.3852 14.6921 23.8831 14.6921C12.381 14.6921 3.05664 23.4747 3.05664 34.3085C3.05664 45.1423 12.381 53.9249 23.8831 53.9249Z" fill="white"/>
</mask>
<g mask="url(#mask1_3337_3469)">
<path d="M2.17773 31.228C6.41308 33.7208 15.899 41.0757 12.0662 55.3561" stroke="#848484" stroke-width="0.764274" stroke-miterlimit="10"/>
<path d="M45.9046 31.228C41.6692 33.7208 32.1833 41.0757 36.0161 55.3561" stroke="#848484" stroke-width="0.764274" stroke-miterlimit="10"/>
<path d="M44.2996 35.2968C44.2996 35.2968 44.2996 31.2003 37.9306 25.1587C30.7681 18.363 7.61444 17.0688 2.64666 36.219C2.64666 36.219 -1.47278 12.5061 29.1415 12.6653C42.0692 12.7329 45.9797 28.0782 44.2996 35.2968Z" fill="white"/>
</g>
<path d="M18.406 35.4551C19.5667 35.4551 20.5077 34.1149 20.5077 32.4617C20.5077 30.8085 19.5667 29.4683 18.406 29.4683C17.2452 29.4683 16.3042 30.8085 16.3042 32.4617C16.3042 34.1149 17.2452 35.4551 18.406 35.4551Z" fill="#4F2E29"/>
<path d="M29.488 35.4551C30.6487 35.4551 31.5897 34.1149 31.5897 32.4617C31.5897 30.8085 30.6487 29.4683 29.488 29.4683C28.3272 29.4683 27.3862 30.8085 27.3862 32.4617C27.3862 34.1149 28.3272 35.4551 29.488 35.4551Z" fill="#4F2E29"/>
<path d="M37.0671 27.6852C38.1292 26.6232 37.7638 24.5359 36.2511 23.0232C34.7383 21.5104 32.6511 21.1451 31.589 22.2071C30.527 23.2692 30.8923 25.3564 32.4051 26.8692C33.9178 28.3819 36.0051 28.7473 37.0671 27.6852Z" fill="white"/>
<path d="M19.4888 39.229H28.618" stroke="#7F0303" stroke-width="1.14641" stroke-miterlimit="10" stroke-linecap="round"/>
</svg>
