<svg width="164" height="250" viewBox="0 0 164 250" fill="none" xmlns="http://www.w3.org/2000/svg">
<g clip-path="url(#clip0_3255_2562)">
<path d="M7.88545 150.219L8.6569 174.022L1.78808 185.376L0.670106 196.188C0.595849 196.91 0.872268 197.624 1.40857 198.111C2.77821 199.344 4.97294 198.519 5.18333 196.688L5.38547 194.955C5.43085 194.563 6.00426 194.584 6.02488 194.975L6.84584 209.81C6.91184 211.007 7.98858 211.886 9.17257 211.716L25.6165 209.336C26.6189 209.192 27.3656 208.329 27.3615 207.315L27.3244 179.596L38.9044 149.084L7.43579 136.287L7.88545 150.219Z" fill="#AFAFAF"/>
<path d="M13.8387 211.04L13.1992 195.264" stroke="#848484" stroke-width="2.11634" stroke-miterlimit="10"/>
<path d="M20.6995 209.996L20.0601 194.216" stroke="#848484" stroke-width="2.11634" stroke-miterlimit="10"/>
<path d="M156.168 150.219L155.397 174.023L162.266 185.376L163.384 196.188C163.458 196.91 163.182 197.624 162.645 198.111C161.276 199.344 159.081 198.519 158.871 196.688L158.668 194.955C158.623 194.563 158.05 194.584 158.029 194.976L157.208 209.811C157.142 211.007 156.065 211.886 154.881 211.716L138.437 209.336C137.435 209.192 136.688 208.33 136.692 207.315L136.729 179.596L125.149 149.084L156.618 136.287L156.168 150.219Z" fill="#AFAFAF"/>
<path d="M150.219 211.04L150.859 195.264" stroke="#848484" stroke-width="2.11634" stroke-miterlimit="10"/>
<path d="M143.354 209.996L143.994 194.216" stroke="#848484" stroke-width="2.11634" stroke-miterlimit="10"/>
<path d="M46.9439 187.1L54.1427 209.369C54.3325 209.959 54.1757 210.606 53.7384 211.044L46.6262 218.156C45.5866 219.196 46.3209 220.974 47.7937 220.974H78.3795C79.2912 220.974 80.0297 220.235 80.0297 219.323V195.668C80.0297 194.942 79.5553 194.303 78.8581 194.088L48.9901 185.008C47.7153 184.62 46.5313 185.825 46.9398 187.096L46.9439 187.1Z" fill="#AFAFAF"/>
<path d="M116.011 186.976L108.812 209.245C108.622 209.835 108.779 210.483 109.217 210.92L116.329 218.032C117.368 219.072 116.634 220.85 115.161 220.85H84.5755C83.6637 220.85 82.9253 220.112 82.9253 219.2V195.545C82.9253 194.819 83.3997 194.179 84.0969 193.965L113.965 184.885C115.24 184.497 116.424 185.702 116.015 186.972L116.011 186.976Z" fill="#AFAFAF"/>
<path d="M82.0255 196.927C39.1914 196.927 4.46777 162.203 4.46777 119.369V114.769C4.46777 77.1579 22.4381 28.2264 75.4909 8.79157C81.217 6.69173 87.2648 11.0069 87.141 17.1084L86.7945 33.7751C86.6955 38.5358 91.0313 42.1332 95.7013 41.2132C112.001 37.9995 100.565 26.5721 111.316 29.4392C142.257 37.6901 159.583 88.1728 159.583 114.773V119.373C159.583 162.207 124.86 196.931 82.0255 196.931V196.927Z" fill="#AFAFAF"/>
<mask id="mask0_3255_2562" style="mask-type:luminance" maskUnits="userSpaceOnUse" x="4" y="8" width="156" height="189">
<path d="M81.6837 196.927C38.8496 196.927 4.12598 162.203 4.12598 119.369V114.769C4.12598 77.1579 22.0963 28.2264 75.1491 8.79157C80.8752 6.69173 86.923 11.0069 86.7992 17.1084L86.4527 33.7751C86.3537 38.5358 90.6895 42.1332 95.3595 41.2132C111.659 37.9995 100.223 26.5721 110.974 29.4392C141.915 37.6901 159.241 88.1728 159.241 114.773V119.373C159.241 162.207 124.518 196.931 81.6837 196.931V196.927Z" fill="white"/>
</mask>
<g mask="url(#mask0_3255_2562)">
<path d="M35.0669 169.699C35.0669 169.699 56.9316 188.297 81.6841 188.297C106.437 188.297 132.427 169.699 132.427 169.699" stroke="#8E8E8E" stroke-width="19.802" stroke-miterlimit="10" stroke-linecap="round"/>
</g>
<path d="M81.4773 182.9C118.729 182.9 148.928 154.457 148.928 119.369C148.928 84.2817 118.729 55.8378 81.4773 55.8378C44.2255 55.8378 14.0269 84.2817 14.0269 119.369C14.0269 154.457 44.2255 182.9 81.4773 182.9Z" fill="#EFEFEF"/>
<mask id="mask1_3255_2562" style="mask-type:luminance" maskUnits="userSpaceOnUse" x="14" y="55" width="135" height="128">
<path d="M81.4783 182.901C118.73 182.901 148.929 154.457 148.929 119.369C148.929 84.2818 118.73 55.8379 81.4783 55.8379C44.2264 55.8379 14.0278 84.2818 14.0278 119.369C14.0278 154.457 44.2264 182.901 81.4783 182.901Z" fill="white"/>
</mask>
<g mask="url(#mask1_3255_2562)">
<path d="M11.1812 109.394C24.8981 117.467 55.6201 141.288 43.2067 187.538" stroke="#848484" stroke-width="2.47525" stroke-miterlimit="10"/>
<path d="M152.798 109.394C139.081 117.467 108.359 141.288 120.772 187.538" stroke="#848484" stroke-width="2.47525" stroke-miterlimit="10"/>
<path d="M147.6 122.571C147.6 122.571 147.6 109.303 126.973 89.7364C103.776 67.7274 28.7881 63.5359 12.699 125.557C12.699 125.557 -0.642547 48.7587 98.5076 49.2744C140.376 49.493 153.041 99.1919 147.6 122.571Z" fill="white"/>
</g>
<path d="M63.7386 123.082C67.4979 123.082 70.5455 118.741 70.5455 113.387C70.5455 108.033 67.4979 103.692 63.7386 103.692C59.9792 103.692 56.9316 108.033 56.9316 113.387C56.9316 118.741 59.9792 123.082 63.7386 123.082Z" fill="#4F2E29"/>
<path d="M99.6297 123.082C103.389 123.082 106.437 118.741 106.437 113.387C106.437 108.033 103.389 103.692 99.6297 103.692C95.8703 103.692 92.8228 108.033 92.8228 113.387C92.8228 118.741 95.8703 123.082 99.6297 123.082Z" fill="#4F2E29"/>
<path d="M124.177 97.9186C127.617 94.479 126.433 87.7189 121.534 82.8197C116.635 77.9204 109.875 76.7371 106.435 80.1768C102.995 83.6164 104.179 90.3764 109.078 95.2757C113.977 100.175 120.737 101.358 124.177 97.9186Z" fill="white"/>
<path d="M67.2451 135.305H96.812" stroke="#7F0303" stroke-width="3.71287" stroke-miterlimit="10" stroke-linecap="round"/>
</g>
<defs>
<clipPath id="clip0_3255_2562">
<rect width="163.779" height="250" fill="white"/>
</clipPath>
</defs>
</svg>
