<svg width="138" height="56" viewBox="0 0 138 56" fill="none" xmlns="http://www.w3.org/2000/svg">
<mask id="path-1-inside-1_3249_5317" fill="white">
<path d="M116.475 0C128.363 0 138 9.63746 138 21.5254C138 31.054 131.808 39.1352 123.228 41.9678C123.012 42.0393 122.807 42.1431 122.625 42.2797L105.7 54.9747C104.382 55.9637 102.5 55.0229 102.5 53.3748V45.0498C102.5 43.9452 101.605 43.0498 100.5 43.0498H21.5254C9.63759 43.0498 0.000211326 33.4131 0 21.5254C0 9.63746 9.63746 0 21.5254 0H116.475Z"/>
</mask>
<path d="M116.475 0C128.363 0 138 9.63746 138 21.5254C138 31.054 131.808 39.1352 123.228 41.9678C123.012 42.0393 122.807 42.1431 122.625 42.2797L105.7 54.9747C104.382 55.9637 102.5 55.0229 102.5 53.3748V45.0498C102.5 43.9452 101.605 43.0498 100.5 43.0498H21.5254C9.63759 43.0498 0.000211326 33.4131 0 21.5254C0 9.63746 9.63746 0 21.5254 0H116.475Z" fill="white"/>
<path d="M138 21.5254L139 21.5254V21.5254H138ZM0 21.5254H-1V21.5254L0 21.5254ZM123.228 41.9678L122.915 41.0183L123.228 41.9678ZM122.625 42.2797L122.025 41.4798L122.625 42.2797ZM116.475 0V1C127.81 1 137 10.1897 137 21.5254H138H139C139 9.08518 128.915 -1 116.475 -1V0ZM138 21.5254L137 21.5254C137 30.6097 131.097 38.3168 122.915 41.0183L123.228 41.9678L123.542 42.9174C132.519 39.9536 139 31.4983 139 21.5254L138 21.5254ZM122.625 42.2797L122.025 41.4798L105.1 54.1747L105.7 54.9747L106.3 55.7747L123.225 43.0797L122.625 42.2797ZM102.5 53.3748H103.5V45.0498H102.5H101.5V53.3748H102.5ZM100.5 43.0498V42.0498H21.5254V43.0498V44.0498H100.5V43.0498ZM21.5254 43.0498V42.0498C10.1898 42.0498 1.0002 32.8608 1 21.5254L0 21.5254L-1 21.5254C-0.999779 33.9655 9.08535 44.0498 21.5254 44.0498V43.0498ZM0 21.5254H1C1 10.1897 10.1897 1 21.5254 1V0V-1C9.08518 -1 -1 9.08518 -1 21.5254H0ZM21.5254 0V1H116.475V0V-1H21.5254V0ZM102.5 45.0498H103.5C103.5 43.393 102.157 42.0498 100.5 42.0498V43.0498V44.0498C101.052 44.0498 101.5 44.4975 101.5 45.0498H102.5ZM105.7 54.9747L105.1 54.1747C104.441 54.6692 103.5 54.1988 103.5 53.3748H102.5H101.5C101.5 55.847 104.322 57.2581 106.3 55.7747L105.7 54.9747ZM123.228 41.9678L122.915 41.0183C122.604 41.121 122.301 41.2731 122.025 41.4798L122.625 42.2797L123.225 43.0797C123.314 43.0131 123.421 42.9575 123.542 42.9174L123.228 41.9678Z" fill="#BDBDBD" mask="url(#path-1-inside-1_3249_5317)"/>
</svg>
