<svg width="56" height="56" viewBox="0 0 56 56" fill="none" xmlns="http://www.w3.org/2000/svg">
<mask id="path-1-inside-1_3311_18857" fill="white">
<path d="M0 11.7551C0 5.26294 5.26294 0 11.7551 0H44.2449C50.7371 0 56 5.26294 56 11.7551V44.2449C56 50.7371 50.7371 56 44.2449 56H11.7551C5.26294 56 0 50.7371 0 44.2449V11.7551Z"/>
</mask>
<path d="M0 11.7551C0 5.26294 5.26294 0 11.7551 0H44.2449C50.7371 0 56 5.26294 56 11.7551V44.2449C56 50.7371 50.7371 56 44.2449 56H11.7551C5.26294 56 0 50.7371 0 44.2449V11.7551Z" fill="white"/>
<path d="M11.7551 0V0.979592H44.2449V0V-0.979592H11.7551V0ZM56 11.7551H55.0204V44.2449H56H56.9796V11.7551H56ZM44.2449 56V55.0204H11.7551V56V56.9796H44.2449V56ZM0 44.2449H0.979592V11.7551H0H-0.979592V44.2449H0ZM11.7551 56V55.0204C5.80396 55.0204 0.979592 50.196 0.979592 44.2449H0H-0.979592C-0.979592 51.2781 4.72193 56.9796 11.7551 56.9796V56ZM56 44.2449H55.0204C55.0204 50.196 50.196 55.0204 44.2449 55.0204V56V56.9796C51.2781 56.9796 56.9796 51.2781 56.9796 44.2449H56ZM44.2449 0V0.979592C50.196 0.979592 55.0204 5.80395 55.0204 11.7551H56H56.9796C56.9796 4.72192 51.2781 -0.979592 44.2449 -0.979592V0ZM11.7551 0V-0.979592C4.72192 -0.979592 -0.979592 4.72193 -0.979592 11.7551H0H0.979592C0.979592 5.80396 5.80395 0.979592 11.7551 0.979592V0Z" fill="#E0E0E0" mask="url(#path-1-inside-1_3311_18857)"/>
<path d="M12 41.1943H43.3469V9.84735H12V41.1943Z" fill="#424242"/>
</svg>
