<svg width="23" height="14" viewBox="0 0 23 14" fill="none" xmlns="http://www.w3.org/2000/svg">
<path d="M20.2734 9.55078C20.2734 9.23828 20.2031 8.94922 20.0625 8.68359C19.9297 8.41016 19.6523 8.16406 19.2305 7.94531C18.8164 7.71875 18.1914 7.52344 17.3555 7.35938C16.6523 7.21094 16.0156 7.03516 15.4453 6.83203C14.8828 6.62891 14.4023 6.38281 14.0039 6.09375C13.6133 5.80469 13.3125 5.46484 13.1016 5.07422C12.8906 4.68359 12.7852 4.22656 12.7852 3.70312C12.7852 3.20312 12.8945 2.73047 13.1133 2.28516C13.3398 1.83984 13.6562 1.44531 14.0625 1.10156C14.4766 0.757812 14.9727 0.488281 15.5508 0.292969C16.1289 0.0976562 16.7734 0 17.4844 0C18.5 0 19.3672 0.179688 20.0859 0.539062C20.8047 0.898438 21.3555 1.37891 21.7383 1.98047C22.1211 2.57422 22.3125 3.23438 22.3125 3.96094H20.1445C20.1445 3.60938 20.0391 3.26953 19.8281 2.94141C19.625 2.60547 19.3242 2.32812 18.9258 2.10938C18.5352 1.89062 18.0547 1.78125 17.4844 1.78125C16.8828 1.78125 16.3945 1.875 16.0195 2.0625C15.6523 2.24219 15.3828 2.47266 15.2109 2.75391C15.0469 3.03516 14.9648 3.33203 14.9648 3.64453C14.9648 3.87891 15.0039 4.08984 15.082 4.27734C15.168 4.45703 15.3164 4.625 15.5273 4.78125C15.7383 4.92969 16.0352 5.07031 16.418 5.20312C16.8008 5.33594 17.2891 5.46875 17.8828 5.60156C18.9219 5.83594 19.7773 6.11719 20.4492 6.44531C21.1211 6.77344 21.6211 7.17578 21.9492 7.65234C22.2773 8.12891 22.4414 8.70703 22.4414 9.38672C22.4414 9.94141 22.3242 10.4492 22.0898 10.9102C21.8633 11.3711 21.5312 11.7695 21.0938 12.1055C20.6641 12.4336 20.1484 12.6914 19.5469 12.8789C18.9531 13.0586 18.2852 13.1484 17.543 13.1484C16.4258 13.1484 15.4805 12.9492 14.707 12.5508C13.9336 12.1523 13.3477 11.6367 12.9492 11.0039C12.5508 10.3711 12.3516 9.70312 12.3516 9H14.5312C14.5625 9.59375 14.7344 10.0664 15.0469 10.418C15.3594 10.7617 15.7422 11.0078 16.1953 11.1562C16.6484 11.2969 17.0977 11.3672 17.543 11.3672C18.1367 11.3672 18.6328 11.2891 19.0312 11.1328C19.4375 10.9766 19.7461 10.7617 19.957 10.4883C20.168 10.2148 20.2734 9.90234 20.2734 9.55078Z" fill="#424242"/>
<path d="M5.12109 10.957L8.58984 0.234375H10.8047L6.24609 12.9141H4.79297L5.12109 10.957ZM2.22656 0.234375L5.80078 11.0156L6.04688 12.9141H4.59375L0 0.234375H2.22656Z" fill="#424242"/>
</svg>
